<mxfile host="65bd71144e" pages="3">
    <diagram id="C5RBs43oDa-KdzZeNtuy" name="Data-Model">
        <mxGraphModel dx="388" dy="-409" grid="1" gridSize="10" guides="1" tooltips="1" connect="1" arrows="1" fold="1" page="1" pageScale="1" pageWidth="1169" pageHeight="827" math="0" shadow="0">
            <root>
                <mxCell id="WIyWlLk6GJQsqaUBKTNV-0"/>
                <mxCell id="WIyWlLk6GJQsqaUBKTNV-1" parent="WIyWlLk6GJQsqaUBKTNV-0"/>
                <mxCell id="OsoryH45wkaK99GPfpwu-0" style="edgeStyle=orthogonalEdgeStyle;rounded=0;orthogonalLoop=1;jettySize=auto;html=1;fontSize=12;startSize=8;endSize=8;endArrow=none;startFill=0;" parent="WIyWlLk6GJQsqaUBKTNV-1" edge="1">
                    <mxGeometry relative="1" as="geometry">
                        <Array as="points">
                            <mxPoint x="80" y="705"/>
                            <mxPoint x="80" y="190"/>
                        </Array>
                        <mxPoint x="200" y="189.99999999999977" as="targetPoint"/>
                    </mxGeometry>
                </mxCell>
                <mxCell id="dGSDt7Tnk5ZxoIO6iwxw-14" value="open pull request" style="swimlane;fontStyle=0;childLayout=stackLayout;horizontal=1;startSize=30;horizontalStack=0;resizeParent=1;resizeParentMax=0;resizeLast=0;collapsible=1;marginBottom=0;whiteSpace=wrap;html=1;" parent="WIyWlLk6GJQsqaUBKTNV-1" vertex="1">
                    <mxGeometry x="1480" y="840" width="140" height="90" as="geometry"/>
                </mxCell>
                <mxCell id="dGSDt7Tnk5ZxoIO6iwxw-16" value="authored-by: User" style="text;strokeColor=#23445d;fillColor=#bac8d3;align=left;verticalAlign=middle;spacingLeft=4;spacingRight=4;overflow=hidden;points=[[0,0.5],[1,0.5]];portConstraint=eastwest;rotatable=0;whiteSpace=wrap;html=1;" parent="dGSDt7Tnk5ZxoIO6iwxw-14" vertex="1">
                    <mxGeometry y="30" width="140" height="30" as="geometry"/>
                </mxCell>
                <mxCell id="dGSDt7Tnk5ZxoIO6iwxw-17" value="pr: Pull Request" style="text;strokeColor=#d79b00;fillColor=#ffe6cc;align=left;verticalAlign=middle;spacingLeft=4;spacingRight=4;overflow=hidden;points=[[0,0.5],[1,0.5]];portConstraint=eastwest;rotatable=0;whiteSpace=wrap;html=1;" parent="dGSDt7Tnk5ZxoIO6iwxw-14" vertex="1">
                    <mxGeometry y="60" width="140" height="30" as="geometry"/>
                </mxCell>
                <mxCell id="dGSDt7Tnk5ZxoIO6iwxw-0" value="commit" style="swimlane;fontStyle=0;childLayout=stackLayout;horizontal=1;startSize=30;horizontalStack=0;resizeParent=1;resizeParentMax=0;resizeLast=0;collapsible=1;marginBottom=0;whiteSpace=wrap;html=1;" parent="WIyWlLk6GJQsqaUBKTNV-1" vertex="1">
                    <mxGeometry x="1180" y="840" width="140" height="150" as="geometry"/>
                </mxCell>
                <mxCell id="dGSDt7Tnk5ZxoIO6iwxw-1" value="sha: Commit" style="text;strokeColor=#d6b656;fillColor=#fff2cc;align=left;verticalAlign=middle;spacingLeft=4;spacingRight=4;overflow=hidden;points=[[0,0.5],[1,0.5]];portConstraint=eastwest;rotatable=0;whiteSpace=wrap;html=1;" parent="dGSDt7Tnk5ZxoIO6iwxw-0" vertex="1">
                    <mxGeometry y="30" width="140" height="30" as="geometry"/>
                </mxCell>
                <mxCell id="dGSDt7Tnk5ZxoIO6iwxw-2" value="authored-by: User" style="text;strokeColor=#23445d;fillColor=#bac8d3;align=left;verticalAlign=middle;spacingLeft=4;spacingRight=4;overflow=hidden;points=[[0,0.5],[1,0.5]];portConstraint=eastwest;rotatable=0;whiteSpace=wrap;html=1;" parent="dGSDt7Tnk5ZxoIO6iwxw-0" vertex="1">
                    <mxGeometry y="60" width="140" height="30" as="geometry"/>
                </mxCell>
                <mxCell id="dGSDt7Tnk5ZxoIO6iwxw-3" value="committed-to-pr: Pull Request" style="text;strokeColor=#d79b00;fillColor=#ffe6cc;align=left;verticalAlign=middle;spacingLeft=4;spacingRight=4;overflow=hidden;points=[[0,0.5],[1,0.5]];portConstraint=eastwest;rotatable=0;whiteSpace=wrap;html=1;" parent="dGSDt7Tnk5ZxoIO6iwxw-0" vertex="1">
                    <mxGeometry y="90" width="140" height="30" as="geometry"/>
                </mxCell>
                <mxCell id="ZhmbJ5T0E56LUVYO4Q5e-6" value="changed-file: File" style="text;strokeColor=#6c8ebf;fillColor=#dae8fc;align=left;verticalAlign=middle;spacingLeft=4;spacingRight=4;overflow=hidden;points=[[0,0.5],[1,0.5]];portConstraint=eastwest;rotatable=0;whiteSpace=wrap;html=1;" parent="dGSDt7Tnk5ZxoIO6iwxw-0" vertex="1">
                    <mxGeometry y="120" width="140" height="30" as="geometry"/>
                </mxCell>
                <mxCell id="dGSDt7Tnk5ZxoIO6iwxw-4" value="add label" style="swimlane;fontStyle=0;childLayout=stackLayout;horizontal=1;startSize=30;horizontalStack=0;resizeParent=1;resizeParentMax=0;resizeLast=0;collapsible=1;marginBottom=0;whiteSpace=wrap;html=1;" parent="WIyWlLk6GJQsqaUBKTNV-1" vertex="1">
                    <mxGeometry x="1330" y="940" width="140" height="120" as="geometry"/>
                </mxCell>
                <mxCell id="dGSDt7Tnk5ZxoIO6iwxw-6" value="labelled-by: User" style="text;strokeColor=#23445d;fillColor=#bac8d3;align=left;verticalAlign=middle;spacingLeft=4;spacingRight=4;overflow=hidden;points=[[0,0.5],[1,0.5]];portConstraint=eastwest;rotatable=0;whiteSpace=wrap;html=1;" parent="dGSDt7Tnk5ZxoIO6iwxw-4" vertex="1">
                    <mxGeometry y="30" width="140" height="30" as="geometry"/>
                </mxCell>
                <mxCell id="dGSDt7Tnk5ZxoIO6iwxw-7" value="to-pr: Pull Request" style="text;strokeColor=#d79b00;fillColor=#ffe6cc;align=left;verticalAlign=middle;spacingLeft=4;spacingRight=4;overflow=hidden;points=[[0,0.5],[1,0.5]];portConstraint=eastwest;rotatable=0;whiteSpace=wrap;html=1;" parent="dGSDt7Tnk5ZxoIO6iwxw-4" vertex="1">
                    <mxGeometry y="60" width="140" height="30" as="geometry"/>
                </mxCell>
                <mxCell id="cFPhVOMwrruSEyY2H_j8-7" value="labelled-with: Label" style="text;strokeColor=#d79b00;fillColor=#ffe6cc;align=left;verticalAlign=middle;spacingLeft=4;spacingRight=4;overflow=hidden;points=[[0,0.5],[1,0.5]];portConstraint=eastwest;rotatable=0;whiteSpace=wrap;html=1;" parent="dGSDt7Tnk5ZxoIO6iwxw-4" vertex="1">
                    <mxGeometry y="90" width="140" height="30" as="geometry"/>
                </mxCell>
                <mxCell id="dGSDt7Tnk5ZxoIO6iwxw-9" value="remove label" style="swimlane;fontStyle=0;childLayout=stackLayout;horizontal=1;startSize=30;horizontalStack=0;resizeParent=1;resizeParentMax=0;resizeLast=0;collapsible=1;marginBottom=0;whiteSpace=wrap;html=1;" parent="WIyWlLk6GJQsqaUBKTNV-1" vertex="1">
                    <mxGeometry x="1330" y="1070" width="140" height="120" as="geometry"/>
                </mxCell>
                <mxCell id="dGSDt7Tnk5ZxoIO6iwxw-10" value="unlabelled-by: User" style="text;strokeColor=#23445d;fillColor=#bac8d3;align=left;verticalAlign=middle;spacingLeft=4;spacingRight=4;overflow=hidden;points=[[0,0.5],[1,0.5]];portConstraint=eastwest;rotatable=0;whiteSpace=wrap;html=1;" parent="dGSDt7Tnk5ZxoIO6iwxw-9" vertex="1">
                    <mxGeometry y="30" width="140" height="30" as="geometry"/>
                </mxCell>
                <mxCell id="dGSDt7Tnk5ZxoIO6iwxw-11" value="from-pr: Pull Request" style="text;strokeColor=#d79b00;fillColor=#ffe6cc;align=left;verticalAlign=middle;spacingLeft=4;spacingRight=4;overflow=hidden;points=[[0,0.5],[1,0.5]];portConstraint=eastwest;rotatable=0;whiteSpace=wrap;html=1;" parent="dGSDt7Tnk5ZxoIO6iwxw-9" vertex="1">
                    <mxGeometry y="60" width="140" height="30" as="geometry"/>
                </mxCell>
                <mxCell id="cFPhVOMwrruSEyY2H_j8-6" value="removed-label: Label" style="text;strokeColor=#d79b00;fillColor=#ffe6cc;align=left;verticalAlign=middle;spacingLeft=4;spacingRight=4;overflow=hidden;points=[[0,0.5],[1,0.5]];portConstraint=eastwest;rotatable=0;whiteSpace=wrap;html=1;" parent="dGSDt7Tnk5ZxoIO6iwxw-9" vertex="1">
                    <mxGeometry y="90" width="140" height="30" as="geometry"/>
                </mxCell>
                <mxCell id="dGSDt7Tnk5ZxoIO6iwxw-19" value="merge pull request" style="swimlane;fontStyle=0;childLayout=stackLayout;horizontal=1;startSize=30;horizontalStack=0;resizeParent=1;resizeParentMax=0;resizeLast=0;collapsible=1;marginBottom=0;whiteSpace=wrap;html=1;" parent="WIyWlLk6GJQsqaUBKTNV-1" vertex="1">
                    <mxGeometry x="1480" y="1040" width="140" height="120" as="geometry"/>
                </mxCell>
                <mxCell id="dGSDt7Tnk5ZxoIO6iwxw-20" value="merged-by: User" style="text;strokeColor=#23445d;fillColor=#bac8d3;align=left;verticalAlign=middle;spacingLeft=4;spacingRight=4;overflow=hidden;points=[[0,0.5],[1,0.5]];portConstraint=eastwest;rotatable=0;whiteSpace=wrap;html=1;" parent="dGSDt7Tnk5ZxoIO6iwxw-19" vertex="1">
                    <mxGeometry y="30" width="140" height="30" as="geometry"/>
                </mxCell>
                <mxCell id="dGSDt7Tnk5ZxoIO6iwxw-21" value="pr: Pull Request" style="text;strokeColor=#d79b00;fillColor=#ffe6cc;align=left;verticalAlign=middle;spacingLeft=4;spacingRight=4;overflow=hidden;points=[[0,0.5],[1,0.5]];portConstraint=eastwest;rotatable=0;whiteSpace=wrap;html=1;" parent="dGSDt7Tnk5ZxoIO6iwxw-19" vertex="1">
                    <mxGeometry y="60" width="140" height="30" as="geometry"/>
                </mxCell>
                <mxCell id="SyDYMFvP34luzLLvAT9_-2" value="merged-with: Commit" style="text;strokeColor=#d6b656;fillColor=#fff2cc;align=left;verticalAlign=middle;spacingLeft=4;spacingRight=4;overflow=hidden;points=[[0,0.5],[1,0.5]];portConstraint=eastwest;rotatable=0;whiteSpace=wrap;html=1;" parent="dGSDt7Tnk5ZxoIO6iwxw-19" vertex="1">
                    <mxGeometry y="90" width="140" height="30" as="geometry"/>
                </mxCell>
                <mxCell id="dGSDt7Tnk5ZxoIO6iwxw-22" value="close pull request" style="swimlane;fontStyle=0;childLayout=stackLayout;horizontal=1;startSize=30;horizontalStack=0;resizeParent=1;resizeParentMax=0;resizeLast=0;collapsible=1;marginBottom=0;whiteSpace=wrap;html=1;" parent="WIyWlLk6GJQsqaUBKTNV-1" vertex="1">
                    <mxGeometry x="1480" y="940" width="140" height="90" as="geometry"/>
                </mxCell>
                <mxCell id="dGSDt7Tnk5ZxoIO6iwxw-23" value="closed-by: User" style="text;strokeColor=#23445d;fillColor=#bac8d3;align=left;verticalAlign=middle;spacingLeft=4;spacingRight=4;overflow=hidden;points=[[0,0.5],[1,0.5]];portConstraint=eastwest;rotatable=0;whiteSpace=wrap;html=1;" parent="dGSDt7Tnk5ZxoIO6iwxw-22" vertex="1">
                    <mxGeometry y="30" width="140" height="30" as="geometry"/>
                </mxCell>
                <mxCell id="dGSDt7Tnk5ZxoIO6iwxw-24" value="pr: Pull Request" style="text;strokeColor=#d79b00;fillColor=#ffe6cc;align=left;verticalAlign=middle;spacingLeft=4;spacingRight=4;overflow=hidden;points=[[0,0.5],[1,0.5]];portConstraint=eastwest;rotatable=0;whiteSpace=wrap;html=1;" parent="dGSDt7Tnk5ZxoIO6iwxw-22" vertex="1">
                    <mxGeometry y="60" width="140" height="30" as="geometry"/>
                </mxCell>
                <mxCell id="dGSDt7Tnk5ZxoIO6iwxw-39" value="rename pull request" style="swimlane;fontStyle=0;childLayout=stackLayout;horizontal=1;startSize=30;horizontalStack=0;resizeParent=1;resizeParentMax=0;resizeLast=0;collapsible=1;marginBottom=0;whiteSpace=wrap;html=1;" parent="WIyWlLk6GJQsqaUBKTNV-1" vertex="1">
                    <mxGeometry x="1630" y="840" width="140" height="120" as="geometry"/>
                </mxCell>
                <mxCell id="dGSDt7Tnk5ZxoIO6iwxw-40" value="change-issued-by: user" style="text;strokeColor=#23445d;fillColor=#bac8d3;align=left;verticalAlign=middle;spacingLeft=4;spacingRight=4;overflow=hidden;points=[[0,0.5],[1,0.5]];portConstraint=eastwest;rotatable=0;whiteSpace=wrap;html=1;" parent="dGSDt7Tnk5ZxoIO6iwxw-39" vertex="1">
                    <mxGeometry y="30" width="140" height="30" as="geometry"/>
                </mxCell>
                <mxCell id="dGSDt7Tnk5ZxoIO6iwxw-41" value="for-pr: pull_request" style="text;strokeColor=#d79b00;fillColor=#ffe6cc;align=left;verticalAlign=middle;spacingLeft=4;spacingRight=4;overflow=hidden;points=[[0,0.5],[1,0.5]];portConstraint=eastwest;rotatable=0;whiteSpace=wrap;html=1;" parent="dGSDt7Tnk5ZxoIO6iwxw-39" vertex="1">
                    <mxGeometry y="60" width="140" height="30" as="geometry"/>
                </mxCell>
                <mxCell id="F_2k5IYyWrM17wDWxj8I-81" value="renamed-to: string" style="text;strokeColor=#d79b00;fillColor=#ffe6cc;align=left;verticalAlign=middle;spacingLeft=4;spacingRight=4;overflow=hidden;points=[[0,0.5],[1,0.5]];portConstraint=eastwest;rotatable=0;whiteSpace=wrap;html=1;" parent="dGSDt7Tnk5ZxoIO6iwxw-39" vertex="1">
                    <mxGeometry y="90" width="140" height="30" as="geometry"/>
                </mxCell>
                <mxCell id="dGSDt7Tnk5ZxoIO6iwxw-43" value="comment pull request" style="swimlane;fontStyle=0;childLayout=stackLayout;horizontal=1;startSize=30;horizontalStack=0;resizeParent=1;resizeParentMax=0;resizeLast=0;collapsible=1;marginBottom=0;whiteSpace=wrap;html=1;" parent="WIyWlLk6GJQsqaUBKTNV-1" vertex="1">
                    <mxGeometry x="1740" y="1176" width="140" height="120" as="geometry"/>
                </mxCell>
                <mxCell id="dGSDt7Tnk5ZxoIO6iwxw-46" value="commented-by: User" style="text;strokeColor=#23445d;fillColor=#bac8d3;align=left;verticalAlign=middle;spacingLeft=4;spacingRight=4;overflow=hidden;points=[[0,0.5],[1,0.5]];portConstraint=eastwest;rotatable=0;whiteSpace=wrap;html=1;" parent="dGSDt7Tnk5ZxoIO6iwxw-43" vertex="1">
                    <mxGeometry y="30" width="140" height="30" as="geometry"/>
                </mxCell>
                <mxCell id="7" value="comment: string" style="text;align=left;verticalAlign=middle;spacingLeft=4;spacingRight=4;overflow=hidden;points=[[0,0.5],[1,0.5]];portConstraint=eastwest;rotatable=0;whiteSpace=wrap;html=1;" parent="dGSDt7Tnk5ZxoIO6iwxw-43" vertex="1">
                    <mxGeometry y="60" width="140" height="30" as="geometry"/>
                </mxCell>
                <mxCell id="dGSDt7Tnk5ZxoIO6iwxw-45" value="on-pr: Pull Request" style="text;strokeColor=#d79b00;fillColor=#ffe6cc;align=left;verticalAlign=middle;spacingLeft=4;spacingRight=4;overflow=hidden;points=[[0,0.5],[1,0.5]];portConstraint=eastwest;rotatable=0;whiteSpace=wrap;html=1;" parent="dGSDt7Tnk5ZxoIO6iwxw-43" vertex="1">
                    <mxGeometry y="90" width="140" height="30" as="geometry"/>
                </mxCell>
                <mxCell id="dGSDt7Tnk5ZxoIO6iwxw-47" value="approve review" style="swimlane;fontStyle=0;childLayout=stackLayout;horizontal=1;startSize=30;horizontalStack=0;resizeParent=1;resizeParentMax=0;resizeLast=0;collapsible=1;marginBottom=0;whiteSpace=wrap;html=1;" parent="WIyWlLk6GJQsqaUBKTNV-1" vertex="1">
                    <mxGeometry x="2040" y="1070" width="140" height="90" as="geometry">
                        <mxRectangle x="1660" y="840" width="120" height="30" as="alternateBounds"/>
                    </mxGeometry>
                </mxCell>
                <mxCell id="dGSDt7Tnk5ZxoIO6iwxw-48" value="approved-by: User" style="text;strokeColor=#23445d;fillColor=#bac8d3;align=left;verticalAlign=middle;spacingLeft=4;spacingRight=4;overflow=hidden;points=[[0,0.5],[1,0.5]];portConstraint=eastwest;rotatable=0;whiteSpace=wrap;html=1;" parent="dGSDt7Tnk5ZxoIO6iwxw-47" vertex="1">
                    <mxGeometry y="30" width="140" height="30" as="geometry"/>
                </mxCell>
                <mxCell id="dGSDt7Tnk5ZxoIO6iwxw-49" value="for-pr: Pull Request" style="text;strokeColor=#d79b00;fillColor=#ffe6cc;align=left;verticalAlign=middle;spacingLeft=4;spacingRight=4;overflow=hidden;points=[[0,0.5],[1,0.5]];portConstraint=eastwest;rotatable=0;whiteSpace=wrap;html=1;" parent="dGSDt7Tnk5ZxoIO6iwxw-47" vertex="1">
                    <mxGeometry y="60" width="140" height="30" as="geometry"/>
                </mxCell>
                <mxCell id="dGSDt7Tnk5ZxoIO6iwxw-53" value="dismiss review" style="swimlane;fontStyle=0;childLayout=stackLayout;horizontal=1;startSize=30;horizontalStack=0;resizeParent=1;resizeParentMax=0;resizeLast=0;collapsible=1;marginBottom=0;whiteSpace=wrap;html=1;" parent="WIyWlLk6GJQsqaUBKTNV-1" vertex="1">
                    <mxGeometry x="2190" y="1070" width="140" height="90" as="geometry"/>
                </mxCell>
                <mxCell id="dGSDt7Tnk5ZxoIO6iwxw-54" value="dismissed-by: User" style="text;strokeColor=#23445d;fillColor=#bac8d3;align=left;verticalAlign=middle;spacingLeft=4;spacingRight=4;overflow=hidden;points=[[0,0.5],[1,0.5]];portConstraint=eastwest;rotatable=0;whiteSpace=wrap;html=1;" parent="dGSDt7Tnk5ZxoIO6iwxw-53" vertex="1">
                    <mxGeometry y="30" width="140" height="30" as="geometry"/>
                </mxCell>
                <mxCell id="dGSDt7Tnk5ZxoIO6iwxw-55" value="for-pr: Pull Request" style="text;strokeColor=#d79b00;fillColor=#ffe6cc;align=left;verticalAlign=middle;spacingLeft=4;spacingRight=4;overflow=hidden;points=[[0,0.5],[1,0.5]];portConstraint=eastwest;rotatable=0;whiteSpace=wrap;html=1;" parent="dGSDt7Tnk5ZxoIO6iwxw-53" vertex="1">
                    <mxGeometry y="60" width="140" height="30" as="geometry"/>
                </mxCell>
                <mxCell id="dGSDt7Tnk5ZxoIO6iwxw-56" value="reopen pull request" style="swimlane;fontStyle=0;childLayout=stackLayout;horizontal=1;startSize=30;horizontalStack=0;resizeParent=1;resizeParentMax=0;resizeLast=0;collapsible=1;marginBottom=0;whiteSpace=wrap;html=1;" parent="WIyWlLk6GJQsqaUBKTNV-1" vertex="1">
                    <mxGeometry x="1330" y="840" width="140" height="90" as="geometry"/>
                </mxCell>
                <mxCell id="dGSDt7Tnk5ZxoIO6iwxw-57" value="reopened-by: User" style="text;strokeColor=#23445d;fillColor=#bac8d3;align=left;verticalAlign=middle;spacingLeft=4;spacingRight=4;overflow=hidden;points=[[0,0.5],[1,0.5]];portConstraint=eastwest;rotatable=0;whiteSpace=wrap;html=1;" parent="dGSDt7Tnk5ZxoIO6iwxw-56" vertex="1">
                    <mxGeometry y="30" width="140" height="30" as="geometry"/>
                </mxCell>
                <mxCell id="dGSDt7Tnk5ZxoIO6iwxw-58" value="pr: Pull Request" style="text;strokeColor=#d79b00;fillColor=#ffe6cc;align=left;verticalAlign=middle;spacingLeft=4;spacingRight=4;overflow=hidden;points=[[0,0.5],[1,0.5]];portConstraint=eastwest;rotatable=0;whiteSpace=wrap;html=1;" parent="dGSDt7Tnk5ZxoIO6iwxw-56" vertex="1">
                    <mxGeometry y="60" width="140" height="30" as="geometry"/>
                </mxCell>
                <mxCell id="dGSDt7Tnk5ZxoIO6iwxw-60" value="change file" style="swimlane;fontStyle=0;childLayout=stackLayout;horizontal=1;startSize=30;horizontalStack=0;resizeParent=1;resizeParentMax=0;resizeLast=0;collapsible=1;marginBottom=0;whiteSpace=wrap;html=1;" parent="WIyWlLk6GJQsqaUBKTNV-1" vertex="1">
                    <mxGeometry x="1180" y="1002" width="140" height="120" as="geometry"/>
                </mxCell>
                <mxCell id="dGSDt7Tnk5ZxoIO6iwxw-61" value="with: Commit" style="text;strokeColor=#d6b656;fillColor=#fff2cc;align=left;verticalAlign=middle;spacingLeft=4;spacingRight=4;overflow=hidden;points=[[0,0.5],[1,0.5]];portConstraint=eastwest;rotatable=0;whiteSpace=wrap;html=1;" parent="dGSDt7Tnk5ZxoIO6iwxw-60" vertex="1">
                    <mxGeometry y="30" width="140" height="30" as="geometry"/>
                </mxCell>
                <mxCell id="dGSDt7Tnk5ZxoIO6iwxw-62" value="changed-by: User" style="text;strokeColor=#23445d;fillColor=#bac8d3;align=left;verticalAlign=middle;spacingLeft=4;spacingRight=4;overflow=hidden;points=[[0,0.5],[1,0.5]];portConstraint=eastwest;rotatable=0;whiteSpace=wrap;html=1;" parent="dGSDt7Tnk5ZxoIO6iwxw-60" vertex="1">
                    <mxGeometry y="60" width="140" height="30" as="geometry"/>
                </mxCell>
                <mxCell id="dGSDt7Tnk5ZxoIO6iwxw-63" value="changed-file: File" style="text;strokeColor=#6c8ebf;fillColor=#dae8fc;align=left;verticalAlign=middle;spacingLeft=4;spacingRight=4;overflow=hidden;points=[[0,0.5],[1,0.5]];portConstraint=eastwest;rotatable=0;whiteSpace=wrap;html=1;" parent="dGSDt7Tnk5ZxoIO6iwxw-60" vertex="1">
                    <mxGeometry y="90" width="140" height="30" as="geometry"/>
                </mxCell>
                <mxCell id="1tEBdCSff_7u_dz9eGTI-0" style="edgeStyle=orthogonalEdgeStyle;rounded=1;orthogonalLoop=1;jettySize=auto;html=1;endArrow=none;startFill=0;curved=0;" parent="WIyWlLk6GJQsqaUBKTNV-1" source="1tEBdCSff_7u_dz9eGTI-4" target="1tEBdCSff_7u_dz9eGTI-51" edge="1">
                    <mxGeometry relative="1" as="geometry">
                        <Array as="points">
                            <mxPoint x="490" y="970"/>
                            <mxPoint x="490" y="970"/>
                        </Array>
                    </mxGeometry>
                </mxCell>
                <mxCell id="1tEBdCSff_7u_dz9eGTI-1" value="1..*" style="edgeLabel;html=1;align=left;verticalAlign=middle;resizable=0;points=[];" parent="1tEBdCSff_7u_dz9eGTI-0" vertex="1" connectable="0">
                    <mxGeometry x="-1" relative="1" as="geometry">
                        <mxPoint as="offset"/>
                    </mxGeometry>
                </mxCell>
                <mxCell id="1tEBdCSff_7u_dz9eGTI-2" value="aggregates" style="edgeLabel;html=1;align=right;verticalAlign=middle;resizable=0;points=[];" parent="1tEBdCSff_7u_dz9eGTI-0" vertex="1" connectable="0">
                    <mxGeometry x="0.8" relative="1" as="geometry">
                        <mxPoint as="offset"/>
                    </mxGeometry>
                </mxCell>
                <mxCell id="1tEBdCSff_7u_dz9eGTI-3" value="0..*" style="edgeLabel;html=1;align=right;verticalAlign=middle;resizable=0;points=[];" parent="1tEBdCSff_7u_dz9eGTI-0" vertex="1" connectable="0">
                    <mxGeometry x="1" relative="1" as="geometry">
                        <mxPoint as="offset"/>
                    </mxGeometry>
                </mxCell>
                <mxCell id="1tEBdCSff_7u_dz9eGTI-4" value="Commit: commit-sha" style="swimlane;fontStyle=0;align=center;verticalAlign=top;childLayout=stackLayout;horizontal=1;startSize=26;horizontalStack=0;resizeParent=1;resizeLast=0;collapsible=1;marginBottom=0;rounded=1;shadow=0;strokeWidth=1;arcSize=29;fillColor=#fff2cc;strokeColor=#d6b656;" parent="WIyWlLk6GJQsqaUBKTNV-1" vertex="1">
                    <mxGeometry x="160" y="920" width="160" height="140" as="geometry">
                        <mxRectangle x="200" y="240" width="160" height="26" as="alternateBounds"/>
                    </mxGeometry>
                </mxCell>
                <mxCell id="1tEBdCSff_7u_dz9eGTI-6" value="message: string" style="text;align=left;verticalAlign=top;spacingLeft=4;spacingRight=4;overflow=hidden;rotatable=0;points=[[0,0.5],[1,0.5]];portConstraint=eastwest;rounded=1;shadow=0;html=0;" parent="1tEBdCSff_7u_dz9eGTI-4" vertex="1">
                    <mxGeometry y="26" width="160" height="26" as="geometry"/>
                </mxCell>
                <mxCell id="1tEBdCSff_7u_dz9eGTI-7" value="description?: string" style="text;align=left;verticalAlign=top;spacingLeft=4;spacingRight=4;overflow=hidden;rotatable=0;points=[[0,0.5],[1,0.5]];portConstraint=eastwest;rounded=1;shadow=0;html=0;" parent="1tEBdCSff_7u_dz9eGTI-4" vertex="1">
                    <mxGeometry y="52" width="160" height="26" as="geometry"/>
                </mxCell>
                <mxCell id="1tEBdCSff_7u_dz9eGTI-8" value="to: string" style="text;align=left;verticalAlign=top;spacingLeft=4;spacingRight=4;overflow=hidden;rotatable=0;points=[[0,0.5],[1,0.5]];portConstraint=eastwest;rounded=1;" parent="1tEBdCSff_7u_dz9eGTI-4" vertex="1">
                    <mxGeometry y="78" width="160" height="26" as="geometry"/>
                </mxCell>
                <mxCell id="1tEBdCSff_7u_dz9eGTI-9" style="edgeStyle=orthogonalEdgeStyle;rounded=1;orthogonalLoop=1;jettySize=auto;html=1;endArrow=none;startFill=0;elbow=vertical;curved=0;" parent="WIyWlLk6GJQsqaUBKTNV-1" source="1tEBdCSff_7u_dz9eGTI-33" edge="1">
                    <mxGeometry relative="1" as="geometry">
                        <mxPoint x="320" y="1175" as="sourcePoint"/>
                        <mxPoint x="650" y="1000" as="targetPoint"/>
                        <Array as="points">
                            <mxPoint x="540" y="1150"/>
                            <mxPoint x="540" y="1000"/>
                        </Array>
                    </mxGeometry>
                </mxCell>
                <mxCell id="1tEBdCSff_7u_dz9eGTI-10" value="aggregates" style="edgeLabel;html=1;align=right;verticalAlign=middle;resizable=0;points=[];" parent="1tEBdCSff_7u_dz9eGTI-9" vertex="1" connectable="0">
                    <mxGeometry x="0.86" relative="1" as="geometry">
                        <mxPoint as="offset"/>
                    </mxGeometry>
                </mxCell>
                <mxCell id="1tEBdCSff_7u_dz9eGTI-11" value="1..*" style="edgeLabel;html=1;align=right;verticalAlign=middle;resizable=0;points=[];" parent="1tEBdCSff_7u_dz9eGTI-9" vertex="1" connectable="0">
                    <mxGeometry x="1" relative="1" as="geometry">
                        <mxPoint as="offset"/>
                    </mxGeometry>
                </mxCell>
                <mxCell id="1tEBdCSff_7u_dz9eGTI-12" value="0..*" style="edgeLabel;html=1;align=left;verticalAlign=middle;resizable=0;points=[];" parent="1tEBdCSff_7u_dz9eGTI-9" vertex="1" connectable="0">
                    <mxGeometry x="-1" relative="1" as="geometry">
                        <mxPoint as="offset"/>
                    </mxGeometry>
                </mxCell>
                <mxCell id="1tEBdCSff_7u_dz9eGTI-13" style="edgeStyle=orthogonalEdgeStyle;rounded=1;orthogonalLoop=1;jettySize=auto;html=1;endArrow=none;startFill=0;elbow=vertical;curved=0;" parent="WIyWlLk6GJQsqaUBKTNV-1" source="1tEBdCSff_7u_dz9eGTI-33" target="1tEBdCSff_7u_dz9eGTI-4" edge="1">
                    <mxGeometry relative="1" as="geometry">
                        <Array as="points">
                            <mxPoint x="230" y="1090"/>
                            <mxPoint x="230" y="1090"/>
                        </Array>
                    </mxGeometry>
                </mxCell>
                <mxCell id="1tEBdCSff_7u_dz9eGTI-14" value="formalises" style="edgeLabel;html=1;align=right;verticalAlign=top;resizable=0;points=[];" parent="1tEBdCSff_7u_dz9eGTI-13" vertex="1" connectable="0">
                    <mxGeometry x="1" relative="1" as="geometry">
                        <mxPoint x="-25" as="offset"/>
                    </mxGeometry>
                </mxCell>
                <mxCell id="1tEBdCSff_7u_dz9eGTI-15" value="1..*" style="edgeLabel;html=1;align=right;verticalAlign=bottom;resizable=0;points=[];labelPosition=center;verticalLabelPosition=top;" parent="1tEBdCSff_7u_dz9eGTI-13" vertex="1" connectable="0">
                    <mxGeometry x="-1" relative="1" as="geometry">
                        <mxPoint as="offset"/>
                    </mxGeometry>
                </mxCell>
                <mxCell id="1tEBdCSff_7u_dz9eGTI-16" value="1..*" style="edgeLabel;html=1;align=right;verticalAlign=top;resizable=0;points=[];labelPosition=center;verticalLabelPosition=top;" parent="1tEBdCSff_7u_dz9eGTI-13" vertex="1" connectable="0">
                    <mxGeometry x="1" relative="1" as="geometry">
                        <mxPoint as="offset"/>
                    </mxGeometry>
                </mxCell>
                <mxCell id="1tEBdCSff_7u_dz9eGTI-17" style="edgeStyle=orthogonalEdgeStyle;rounded=1;orthogonalLoop=1;jettySize=auto;html=1;endArrow=none;startFill=0;curved=0;" parent="WIyWlLk6GJQsqaUBKTNV-1" source="1tEBdCSff_7u_dz9eGTI-33" target="1tEBdCSff_7u_dz9eGTI-46" edge="1">
                    <mxGeometry relative="1" as="geometry">
                        <Array as="points">
                            <mxPoint x="580" y="1200"/>
                        </Array>
                    </mxGeometry>
                </mxCell>
                <mxCell id="1tEBdCSff_7u_dz9eGTI-18" value="0..*" style="edgeLabel;html=1;align=left;verticalAlign=middle;resizable=0;points=[];" parent="1tEBdCSff_7u_dz9eGTI-17" vertex="1" connectable="0">
                    <mxGeometry x="-1" relative="1" as="geometry">
                        <mxPoint as="offset"/>
                    </mxGeometry>
                </mxCell>
                <mxCell id="1tEBdCSff_7u_dz9eGTI-19" value="is-reviewed-by" style="edgeLabel;html=1;align=left;verticalAlign=middle;resizable=0;points=[];textDirection=vertical-rl;" parent="1tEBdCSff_7u_dz9eGTI-17" vertex="1" connectable="0">
                    <mxGeometry x="0.7" relative="1" as="geometry">
                        <mxPoint as="offset"/>
                    </mxGeometry>
                </mxCell>
                <mxCell id="1tEBdCSff_7u_dz9eGTI-20" value="0..*" style="edgeLabel;html=1;align=right;verticalAlign=middle;resizable=0;points=[];" parent="1tEBdCSff_7u_dz9eGTI-17" vertex="1" connectable="0">
                    <mxGeometry x="0.95" relative="1" as="geometry">
                        <mxPoint as="offset"/>
                    </mxGeometry>
                </mxCell>
                <mxCell id="1tEBdCSff_7u_dz9eGTI-21" style="edgeStyle=orthogonalEdgeStyle;rounded=1;orthogonalLoop=1;jettySize=auto;html=1;endArrow=none;startFill=0;curved=0;" parent="WIyWlLk6GJQsqaUBKTNV-1" source="1tEBdCSff_7u_dz9eGTI-33" target="1tEBdCSff_7u_dz9eGTI-46" edge="1">
                    <mxGeometry relative="1" as="geometry">
                        <Array as="points">
                            <mxPoint x="540" y="1220"/>
                        </Array>
                    </mxGeometry>
                </mxCell>
                <mxCell id="1tEBdCSff_7u_dz9eGTI-22" value="0..*" style="edgeLabel;html=1;align=left;verticalAlign=middle;resizable=0;points=[];" parent="1tEBdCSff_7u_dz9eGTI-21" vertex="1" connectable="0">
                    <mxGeometry x="-1" relative="1" as="geometry">
                        <mxPoint as="offset"/>
                    </mxGeometry>
                </mxCell>
                <mxCell id="1tEBdCSff_7u_dz9eGTI-23" value="is-authored-by" style="edgeLabel;html=1;align=left;verticalAlign=middle;resizable=0;points=[];textDirection=vertical-lr;" parent="1tEBdCSff_7u_dz9eGTI-21" vertex="1" connectable="0">
                    <mxGeometry x="0.8" relative="1" as="geometry">
                        <mxPoint as="offset"/>
                    </mxGeometry>
                </mxCell>
                <mxCell id="1tEBdCSff_7u_dz9eGTI-24" value="1..*" style="edgeLabel;html=1;align=right;verticalAlign=middle;resizable=0;points=[];" parent="1tEBdCSff_7u_dz9eGTI-21" vertex="1" connectable="0">
                    <mxGeometry x="0.95" relative="1" as="geometry">
                        <mxPoint as="offset"/>
                    </mxGeometry>
                </mxCell>
                <mxCell id="1tEBdCSff_7u_dz9eGTI-25" style="edgeStyle=orthogonalEdgeStyle;rounded=1;orthogonalLoop=1;jettySize=auto;html=1;endArrow=none;startFill=0;endFill=0;curved=0;" parent="WIyWlLk6GJQsqaUBKTNV-1" source="1tEBdCSff_7u_dz9eGTI-33" target="1tEBdCSff_7u_dz9eGTI-4" edge="1">
                    <mxGeometry relative="1" as="geometry">
                        <Array as="points">
                            <mxPoint x="250" y="1090"/>
                            <mxPoint x="250" y="1090"/>
                        </Array>
                    </mxGeometry>
                </mxCell>
                <mxCell id="1tEBdCSff_7u_dz9eGTI-26" value="&lt;span style=&quot;font-style: normal;&quot;&gt;is-merged-with&lt;/span&gt;" style="edgeLabel;html=1;align=left;verticalAlign=top;resizable=0;points=[];fontStyle=2" parent="1tEBdCSff_7u_dz9eGTI-25" vertex="1" connectable="0">
                    <mxGeometry x="1" y="-25" relative="1" as="geometry">
                        <mxPoint as="offset"/>
                    </mxGeometry>
                </mxCell>
                <mxCell id="1tEBdCSff_7u_dz9eGTI-27" value="0..1" style="edgeLabel;html=1;align=left;verticalAlign=top;resizable=0;points=[];" parent="1tEBdCSff_7u_dz9eGTI-25" vertex="1" connectable="0">
                    <mxGeometry x="1" relative="1" as="geometry">
                        <mxPoint as="offset"/>
                    </mxGeometry>
                </mxCell>
                <mxCell id="1tEBdCSff_7u_dz9eGTI-28" value="0..1" style="edgeLabel;html=1;align=left;verticalAlign=bottom;resizable=0;points=[];" parent="1tEBdCSff_7u_dz9eGTI-25" vertex="1" connectable="0">
                    <mxGeometry x="-1" relative="1" as="geometry">
                        <mxPoint as="offset"/>
                    </mxGeometry>
                </mxCell>
                <mxCell id="1tEBdCSff_7u_dz9eGTI-29" value="" style="edgeStyle=orthogonalEdgeStyle;rounded=1;orthogonalLoop=1;jettySize=auto;html=1;fontSize=12;endArrow=none;startFill=0;curved=0;" parent="WIyWlLk6GJQsqaUBKTNV-1" source="1tEBdCSff_7u_dz9eGTI-33" target="1tEBdCSff_7u_dz9eGTI-71" edge="1">
                    <mxGeometry relative="1" as="geometry">
                        <Array as="points">
                            <mxPoint x="440" y="1130"/>
                        </Array>
                        <mxPoint x="420" y="1100" as="targetPoint"/>
                    </mxGeometry>
                </mxCell>
                <mxCell id="1tEBdCSff_7u_dz9eGTI-30" value="has" style="edgeLabel;html=1;align=right;verticalAlign=middle;resizable=0;points=[];fontSize=12;" parent="1tEBdCSff_7u_dz9eGTI-29" vertex="1" connectable="0">
                    <mxGeometry x="0.87" y="5" relative="1" as="geometry">
                        <mxPoint x="-25" as="offset"/>
                    </mxGeometry>
                </mxCell>
                <mxCell id="1tEBdCSff_7u_dz9eGTI-31" value="0..*" style="edgeLabel;html=1;align=right;verticalAlign=top;resizable=0;points=[];fontSize=12;" parent="1tEBdCSff_7u_dz9eGTI-29" vertex="1" connectable="0">
                    <mxGeometry x="1" relative="1" as="geometry">
                        <mxPoint as="offset"/>
                    </mxGeometry>
                </mxCell>
                <mxCell id="1tEBdCSff_7u_dz9eGTI-32" value="1..*" style="edgeLabel;html=1;align=left;verticalAlign=middle;resizable=0;points=[];fontSize=12;" parent="1tEBdCSff_7u_dz9eGTI-29" vertex="1" connectable="0">
                    <mxGeometry x="-1" relative="1" as="geometry">
                        <mxPoint as="offset"/>
                    </mxGeometry>
                </mxCell>
                <mxCell id="1tEBdCSff_7u_dz9eGTI-33" value="Pull Request: number" style="swimlane;fontStyle=0;align=center;verticalAlign=top;childLayout=stackLayout;horizontal=1;startSize=26;horizontalStack=0;resizeParent=1;resizeLast=0;collapsible=1;marginBottom=0;rounded=1;shadow=0;strokeWidth=1;fillColor=#d5e8d4;strokeColor=#82b366;" parent="WIyWlLk6GJQsqaUBKTNV-1" vertex="1">
                    <mxGeometry x="160" y="1120" width="160" height="130" as="geometry">
                        <mxRectangle x="200" y="40" width="160" height="26" as="alternateBounds"/>
                    </mxGeometry>
                </mxCell>
                <mxCell id="1tEBdCSff_7u_dz9eGTI-35" value="title: string" style="text;align=left;verticalAlign=top;spacingLeft=4;spacingRight=4;overflow=hidden;rotatable=0;points=[[0,0.5],[1,0.5]];portConstraint=eastwest;rounded=1;shadow=0;html=0;" parent="1tEBdCSff_7u_dz9eGTI-33" vertex="1">
                    <mxGeometry y="26" width="160" height="26" as="geometry"/>
                </mxCell>
                <mxCell id="1tEBdCSff_7u_dz9eGTI-37" value="description?: string" style="text;align=left;verticalAlign=top;spacingLeft=4;spacingRight=4;overflow=hidden;rotatable=0;points=[[0,0.5],[1,0.5]];portConstraint=eastwest;rounded=1;" parent="1tEBdCSff_7u_dz9eGTI-33" vertex="1">
                    <mxGeometry y="52" width="160" height="26" as="geometry"/>
                </mxCell>
                <mxCell id="1tEBdCSff_7u_dz9eGTI-36" value="state: string&#xa;" style="text;align=left;verticalAlign=top;spacingLeft=4;spacingRight=4;overflow=hidden;rotatable=0;points=[[0,0.5],[1,0.5]];portConstraint=eastwest;fontStyle=0;rounded=1;" parent="1tEBdCSff_7u_dz9eGTI-33" vertex="1">
                    <mxGeometry y="78" width="160" height="26" as="geometry"/>
                </mxCell>
                <mxCell id="1tEBdCSff_7u_dz9eGTI-38" style="edgeStyle=orthogonalEdgeStyle;rounded=1;orthogonalLoop=1;jettySize=auto;html=1;endArrow=none;startFill=0;align=right;labelPosition=left;verticalLabelPosition=middle;verticalAlign=middle;curved=0;" parent="WIyWlLk6GJQsqaUBKTNV-1" source="1tEBdCSff_7u_dz9eGTI-46" target="1tEBdCSff_7u_dz9eGTI-33" edge="1">
                    <mxGeometry relative="1" as="geometry">
                        <Array as="points">
                            <mxPoint x="620" y="1180"/>
                        </Array>
                    </mxGeometry>
                </mxCell>
                <mxCell id="1tEBdCSff_7u_dz9eGTI-39" value="has-participant" style="edgeLabel;html=1;align=left;verticalAlign=middle;resizable=0;points=[];textDirection=vertical-lr;" parent="1tEBdCSff_7u_dz9eGTI-38" vertex="1" connectable="0">
                    <mxGeometry x="-0.63" relative="1" as="geometry">
                        <mxPoint as="offset"/>
                    </mxGeometry>
                </mxCell>
                <mxCell id="1tEBdCSff_7u_dz9eGTI-40" value="1..*" style="edgeLabel;html=1;align=right;verticalAlign=middle;resizable=0;points=[];labelPosition=left;verticalLabelPosition=middle;" parent="1tEBdCSff_7u_dz9eGTI-38" vertex="1" connectable="0">
                    <mxGeometry x="-0.95" relative="1" as="geometry">
                        <mxPoint as="offset"/>
                    </mxGeometry>
                </mxCell>
                <mxCell id="1tEBdCSff_7u_dz9eGTI-41" value="1..*" style="edgeLabel;html=1;align=left;verticalAlign=middle;resizable=0;points=[];" parent="1tEBdCSff_7u_dz9eGTI-38" vertex="1" connectable="0">
                    <mxGeometry x="1" relative="1" as="geometry">
                        <mxPoint as="offset"/>
                    </mxGeometry>
                </mxCell>
                <mxCell id="1tEBdCSff_7u_dz9eGTI-42" style="edgeStyle=elbowEdgeStyle;rounded=1;orthogonalLoop=1;jettySize=auto;html=1;endArrow=none;startFill=0;curved=0;" parent="WIyWlLk6GJQsqaUBKTNV-1" source="1tEBdCSff_7u_dz9eGTI-46" target="1tEBdCSff_7u_dz9eGTI-51" edge="1">
                    <mxGeometry relative="1" as="geometry">
                        <Array as="points">
                            <mxPoint x="770" y="1410"/>
                        </Array>
                    </mxGeometry>
                </mxCell>
                <mxCell id="1tEBdCSff_7u_dz9eGTI-43" value="1" style="edgeLabel;html=1;align=left;verticalAlign=middle;resizable=0;points=[];" parent="1tEBdCSff_7u_dz9eGTI-42" vertex="1" connectable="0">
                    <mxGeometry x="-1" relative="1" as="geometry">
                        <mxPoint as="offset"/>
                    </mxGeometry>
                </mxCell>
                <mxCell id="1tEBdCSff_7u_dz9eGTI-44" value="created-by" style="edgeLabel;html=1;align=left;verticalAlign=middle;resizable=0;points=[];" parent="1tEBdCSff_7u_dz9eGTI-42" vertex="1" connectable="0">
                    <mxGeometry x="-1" relative="1" as="geometry">
                        <mxPoint x="15" as="offset"/>
                    </mxGeometry>
                </mxCell>
                <mxCell id="1tEBdCSff_7u_dz9eGTI-45" value="0..*" style="edgeLabel;html=1;align=right;verticalAlign=top;resizable=0;points=[];" parent="1tEBdCSff_7u_dz9eGTI-42" vertex="1" connectable="0">
                    <mxGeometry x="1" relative="1" as="geometry">
                        <mxPoint as="offset"/>
                    </mxGeometry>
                </mxCell>
                <mxCell id="1tEBdCSff_7u_dz9eGTI-46" value="User: full-name" style="swimlane;fontStyle=0;align=center;verticalAlign=top;childLayout=stackLayout;horizontal=1;startSize=26;horizontalStack=0;resizeParent=1;resizeLast=0;collapsible=1;marginBottom=0;rounded=1;shadow=0;strokeWidth=1;fillColor=#bac8d3;strokeColor=#23445d;" parent="WIyWlLk6GJQsqaUBKTNV-1" vertex="1">
                    <mxGeometry x="520.0000000000001" y="1370" width="160" height="130" as="geometry">
                        <mxRectangle x="200" y="640" width="160" height="26" as="alternateBounds"/>
                    </mxGeometry>
                </mxCell>
                <mxCell id="1tEBdCSff_7u_dz9eGTI-48" value="username: string&#xa;" style="text;align=left;verticalAlign=top;spacingLeft=4;spacingRight=4;overflow=hidden;rotatable=0;points=[[0,0.5],[1,0.5]];portConstraint=eastwest;fontStyle=0;rounded=1;" parent="1tEBdCSff_7u_dz9eGTI-46" vertex="1">
                    <mxGeometry y="26" width="160" height="26" as="geometry"/>
                </mxCell>
                <mxCell id="1tEBdCSff_7u_dz9eGTI-49" value="rank: string&#xa;" style="text;align=left;verticalAlign=top;spacingLeft=4;spacingRight=4;overflow=hidden;rotatable=0;points=[[0,0.5],[1,0.5]];portConstraint=eastwest;fontStyle=0;rounded=1;" parent="1tEBdCSff_7u_dz9eGTI-46" vertex="1">
                    <mxGeometry y="52" width="160" height="26" as="geometry"/>
                </mxCell>
                <mxCell id="1tEBdCSff_7u_dz9eGTI-50" value="is-bot: boolean" style="text;align=left;verticalAlign=top;spacingLeft=4;spacingRight=4;overflow=hidden;rotatable=0;points=[[0,0.5],[1,0.5]];portConstraint=eastwest;fontStyle=0;rounded=1;" parent="1tEBdCSff_7u_dz9eGTI-46" vertex="1">
                    <mxGeometry y="78" width="160" height="26" as="geometry"/>
                </mxCell>
                <mxCell id="Lo2DWNxIxuQ1iNFuZWaj-28" style="edgeStyle=elbowEdgeStyle;html=1;endArrow=none;endFill=0;elbow=vertical;rounded=1;curved=0;" parent="WIyWlLk6GJQsqaUBKTNV-1" source="1tEBdCSff_7u_dz9eGTI-51" target="Lo2DWNxIxuQ1iNFuZWaj-13" edge="1">
                    <mxGeometry relative="1" as="geometry"/>
                </mxCell>
                <mxCell id="Lo2DWNxIxuQ1iNFuZWaj-29" value="includes" style="edgeLabel;html=1;align=right;verticalAlign=middle;resizable=0;points=[];" parent="Lo2DWNxIxuQ1iNFuZWaj-28" vertex="1" connectable="0">
                    <mxGeometry x="0.5" relative="1" as="geometry">
                        <mxPoint as="offset"/>
                    </mxGeometry>
                </mxCell>
                <mxCell id="Lo2DWNxIxuQ1iNFuZWaj-30" value="0..*" style="edgeLabel;html=1;align=right;verticalAlign=middle;resizable=0;points=[];" parent="Lo2DWNxIxuQ1iNFuZWaj-28" vertex="1" connectable="0">
                    <mxGeometry x="1" relative="1" as="geometry">
                        <mxPoint as="offset"/>
                    </mxGeometry>
                </mxCell>
                <mxCell id="Lo2DWNxIxuQ1iNFuZWaj-32" value="1" style="edgeLabel;html=1;align=left;verticalAlign=middle;resizable=0;points=[];" parent="Lo2DWNxIxuQ1iNFuZWaj-28" vertex="1" connectable="0">
                    <mxGeometry x="-1" relative="1" as="geometry">
                        <mxPoint as="offset"/>
                    </mxGeometry>
                </mxCell>
                <mxCell id="1tEBdCSff_7u_dz9eGTI-51" value="File: full-path" style="swimlane;fontStyle=0;align=center;verticalAlign=top;childLayout=stackLayout;horizontal=1;startSize=26;horizontalStack=0;resizeParent=1;resizeLast=0;collapsible=1;marginBottom=0;rounded=1;shadow=0;strokeWidth=1;fillColor=#dae8fc;strokeColor=#6c8ebf;" parent="WIyWlLk6GJQsqaUBKTNV-1" vertex="1">
                    <mxGeometry x="650" y="930" width="160" height="388" as="geometry">
                        <mxRectangle x="600" y="120" width="160" height="26" as="alternateBounds"/>
                    </mxGeometry>
                </mxCell>
                <mxCell id="Lo2DWNxIxuQ1iNFuZWaj-2" value="method_count: int" style="text;align=left;verticalAlign=top;spacingLeft=4;spacingRight=4;overflow=hidden;rotatable=0;points=[[0,0.5],[1,0.5]];portConstraint=eastwest;rounded=1;shadow=0;html=0;" parent="1tEBdCSff_7u_dz9eGTI-51" vertex="1">
                    <mxGeometry y="26" width="160" height="26" as="geometry"/>
                </mxCell>
                <mxCell id="Lo2DWNxIxuQ1iNFuZWaj-3" value="theta_1: int" style="text;align=left;verticalAlign=top;spacingLeft=4;spacingRight=4;overflow=hidden;rotatable=0;points=[[0,0.5],[1,0.5]];portConstraint=eastwest;rounded=1;shadow=0;html=0;" parent="1tEBdCSff_7u_dz9eGTI-51" vertex="1">
                    <mxGeometry y="52" width="160" height="26" as="geometry"/>
                </mxCell>
                <mxCell id="Lo2DWNxIxuQ1iNFuZWaj-4" value="theta_2: int" style="text;align=left;verticalAlign=top;spacingLeft=4;spacingRight=4;overflow=hidden;rotatable=0;points=[[0,0.5],[1,0.5]];portConstraint=eastwest;rounded=1;shadow=0;html=0;" parent="1tEBdCSff_7u_dz9eGTI-51" vertex="1">
                    <mxGeometry y="78" width="160" height="26" as="geometry"/>
                </mxCell>
                <mxCell id="Lo2DWNxIxuQ1iNFuZWaj-5" value="N_1: int" style="text;align=left;verticalAlign=top;spacingLeft=4;spacingRight=4;overflow=hidden;rotatable=0;points=[[0,0.5],[1,0.5]];portConstraint=eastwest;rounded=1;shadow=0;html=0;" parent="1tEBdCSff_7u_dz9eGTI-51" vertex="1">
                    <mxGeometry y="104" width="160" height="26" as="geometry"/>
                </mxCell>
                <mxCell id="Lo2DWNxIxuQ1iNFuZWaj-6" value="N_2: int" style="text;align=left;verticalAlign=top;spacingLeft=4;spacingRight=4;overflow=hidden;rotatable=0;points=[[0,0.5],[1,0.5]];portConstraint=eastwest;rounded=1;" parent="1tEBdCSff_7u_dz9eGTI-51" vertex="1">
                    <mxGeometry y="130" width="160" height="26" as="geometry"/>
                </mxCell>
                <mxCell id="Lo2DWNxIxuQ1iNFuZWaj-7" value="lloc: int" style="text;align=left;verticalAlign=top;spacingLeft=4;spacingRight=4;overflow=hidden;rotatable=0;points=[[0,0.5],[1,0.5]];portConstraint=eastwest;rounded=1;" parent="1tEBdCSff_7u_dz9eGTI-51" vertex="1">
                    <mxGeometry y="156" width="160" height="26" as="geometry"/>
                </mxCell>
                <mxCell id="Lo2DWNxIxuQ1iNFuZWaj-8" value="loc: int" style="text;align=left;verticalAlign=top;spacingLeft=4;spacingRight=4;overflow=hidden;rotatable=0;points=[[0,0.5],[1,0.5]];portConstraint=eastwest;fontStyle=0;rounded=1;" parent="1tEBdCSff_7u_dz9eGTI-51" vertex="1">
                    <mxGeometry y="182" width="160" height="26" as="geometry"/>
                </mxCell>
                <mxCell id="Lo2DWNxIxuQ1iNFuZWaj-9" value="sloc: int" style="text;align=left;verticalAlign=top;spacingLeft=4;spacingRight=4;overflow=hidden;rotatable=0;points=[[0,0.5],[1,0.5]];portConstraint=eastwest;fontStyle=0;rounded=1;" parent="1tEBdCSff_7u_dz9eGTI-51" vertex="1">
                    <mxGeometry y="208" width="160" height="26" as="geometry"/>
                </mxCell>
                <mxCell id="Lo2DWNxIxuQ1iNFuZWaj-10" value="comment_lines: int" style="text;align=left;verticalAlign=top;spacingLeft=4;spacingRight=4;overflow=hidden;rotatable=0;points=[[0,0.5],[1,0.5]];portConstraint=eastwest;fontStyle=0;rounded=1;" parent="1tEBdCSff_7u_dz9eGTI-51" vertex="1">
                    <mxGeometry y="234" width="160" height="26" as="geometry"/>
                </mxCell>
                <mxCell id="Lo2DWNxIxuQ1iNFuZWaj-11" value="documentation_liens: int" style="text;align=left;verticalAlign=top;spacingLeft=4;spacingRight=4;overflow=hidden;rotatable=0;points=[[0,0.5],[1,0.5]];portConstraint=eastwest;fontStyle=0;rounded=1;" parent="1tEBdCSff_7u_dz9eGTI-51" vertex="1">
                    <mxGeometry y="260" width="160" height="24" as="geometry"/>
                </mxCell>
                <mxCell id="Lo2DWNxIxuQ1iNFuZWaj-12" value="blank_lines:int" style="text;align=left;verticalAlign=top;spacingLeft=4;spacingRight=4;overflow=hidden;rotatable=0;points=[[0,0.5],[1,0.5]];portConstraint=eastwest;fontStyle=0;rounded=1;" parent="1tEBdCSff_7u_dz9eGTI-51" vertex="1">
                    <mxGeometry y="284" width="160" height="26" as="geometry"/>
                </mxCell>
                <mxCell id="1tEBdCSff_7u_dz9eGTI-54" value="pylint_score: float" style="text;align=left;verticalAlign=top;spacingLeft=4;spacingRight=4;overflow=hidden;rotatable=0;points=[[0,0.5],[1,0.5]];portConstraint=eastwest;rounded=1;shadow=0;html=0;" parent="1tEBdCSff_7u_dz9eGTI-51" vertex="1">
                    <mxGeometry y="310" width="160" height="26" as="geometry"/>
                </mxCell>
                <mxCell id="1tEBdCSff_7u_dz9eGTI-64" style="edgeStyle=orthogonalEdgeStyle;rounded=1;orthogonalLoop=1;jettySize=auto;html=1;endArrow=none;startFill=0;" parent="WIyWlLk6GJQsqaUBKTNV-1" source="1tEBdCSff_7u_dz9eGTI-4" target="1tEBdCSff_7u_dz9eGTI-4" edge="1">
                    <mxGeometry relative="1" as="geometry">
                        <Array as="points">
                            <mxPoint x="200" y="890"/>
                            <mxPoint x="280" y="890"/>
                        </Array>
                    </mxGeometry>
                </mxCell>
                <mxCell id="1tEBdCSff_7u_dz9eGTI-65" value="is-child-of" style="edgeLabel;html=1;align=center;verticalAlign=middle;resizable=0;points=[];rounded=1;" parent="1tEBdCSff_7u_dz9eGTI-64" vertex="1" connectable="0">
                    <mxGeometry x="0.0333" y="2" relative="1" as="geometry">
                        <mxPoint x="-3" as="offset"/>
                    </mxGeometry>
                </mxCell>
                <mxCell id="1tEBdCSff_7u_dz9eGTI-66" value="0..*" style="edgeLabel;html=1;align=center;verticalAlign=middle;resizable=0;points=[];rounded=1;" parent="1tEBdCSff_7u_dz9eGTI-64" vertex="1" connectable="0">
                    <mxGeometry relative="1" as="geometry">
                        <mxPoint x="-39" y="20" as="offset"/>
                    </mxGeometry>
                </mxCell>
                <mxCell id="1tEBdCSff_7u_dz9eGTI-67" value="0..*" style="edgeLabel;html=1;align=center;verticalAlign=middle;resizable=0;points=[];rounded=1;" parent="1tEBdCSff_7u_dz9eGTI-64" vertex="1" connectable="0">
                    <mxGeometry x="0.76" relative="1" as="geometry">
                        <mxPoint y="7" as="offset"/>
                    </mxGeometry>
                </mxCell>
                <mxCell id="1tEBdCSff_7u_dz9eGTI-68" style="edgeStyle=orthogonalEdgeStyle;rounded=1;orthogonalLoop=1;jettySize=auto;html=1;fontSize=12;startSize=8;endSize=8;endArrow=none;startFill=0;curved=0;" parent="WIyWlLk6GJQsqaUBKTNV-1" source="1tEBdCSff_7u_dz9eGTI-46" target="1tEBdCSff_7u_dz9eGTI-4" edge="1">
                    <mxGeometry relative="1" as="geometry">
                        <Array as="points">
                            <mxPoint x="120" y="1440"/>
                            <mxPoint x="120" y="990"/>
                        </Array>
                    </mxGeometry>
                </mxCell>
                <mxCell id="1tEBdCSff_7u_dz9eGTI-69" value="is-authored-by" style="edgeLabel;html=1;align=right;verticalAlign=middle;resizable=0;points=[];fontSize=12;spacing=2;" parent="1tEBdCSff_7u_dz9eGTI-68" vertex="1" connectable="0">
                    <mxGeometry x="-0.94" relative="1" as="geometry">
                        <mxPoint x="3" as="offset"/>
                    </mxGeometry>
                </mxCell>
                <mxCell id="1tEBdCSff_7u_dz9eGTI-70" value="1..*" style="edgeLabel;html=1;align=right;verticalAlign=middle;resizable=0;points=[];fontSize=12;spacing=2;" parent="1tEBdCSff_7u_dz9eGTI-68" vertex="1" connectable="0">
                    <mxGeometry x="-1" relative="1" as="geometry">
                        <mxPoint as="offset"/>
                    </mxGeometry>
                </mxCell>
                <mxCell id="9" value="0..*" style="edgeLabel;html=1;align=right;verticalAlign=middle;resizable=0;points=[];" parent="1tEBdCSff_7u_dz9eGTI-68" vertex="1" connectable="0">
                    <mxGeometry x="1" relative="1" as="geometry">
                        <mxPoint as="offset"/>
                    </mxGeometry>
                </mxCell>
                <mxCell id="1tEBdCSff_7u_dz9eGTI-71" value="Label: name " style="swimlane;fontStyle=0;align=center;verticalAlign=top;childLayout=stackLayout;horizontal=1;startSize=26;horizontalStack=0;resizeParent=1;resizeLast=0;collapsible=1;marginBottom=0;rounded=1;shadow=0;strokeWidth=1;fillColor=#d5e8d4;strokeColor=#82b366;" parent="WIyWlLk6GJQsqaUBKTNV-1" vertex="1">
                    <mxGeometry x="360" y="1008" width="160" height="52" as="geometry">
                        <mxRectangle x="200" y="40" width="160" height="26" as="alternateBounds"/>
                    </mxGeometry>
                </mxCell>
                <mxCell id="0" value="suggest changes as review" style="swimlane;fontStyle=0;childLayout=stackLayout;horizontal=1;startSize=30;horizontalStack=0;resizeParent=1;resizeParentMax=0;resizeLast=0;collapsible=1;marginBottom=0;whiteSpace=wrap;html=1;" parent="WIyWlLk6GJQsqaUBKTNV-1" vertex="1">
                    <mxGeometry x="1890" y="1070" width="140" height="90" as="geometry"/>
                </mxCell>
                <mxCell id="1" value="suggested-by: User" style="text;strokeColor=#23445d;fillColor=#bac8d3;align=left;verticalAlign=middle;spacingLeft=4;spacingRight=4;overflow=hidden;points=[[0,0.5],[1,0.5]];portConstraint=eastwest;rotatable=0;whiteSpace=wrap;html=1;fontColor=default;" parent="0" vertex="1">
                    <mxGeometry y="30" width="140" height="30" as="geometry"/>
                </mxCell>
                <mxCell id="16" value="for-pr: Pull Request" style="text;strokeColor=#d79b00;fillColor=#ffe6cc;align=left;verticalAlign=middle;spacingLeft=4;spacingRight=4;overflow=hidden;points=[[0,0.5],[1,0.5]];portConstraint=eastwest;rotatable=0;whiteSpace=wrap;html=1;" parent="0" vertex="1">
                    <mxGeometry y="60" width="140" height="30" as="geometry"/>
                </mxCell>
                <mxCell id="F_2k5IYyWrM17wDWxj8I-82" value="comment review" style="swimlane;fontStyle=0;childLayout=stackLayout;horizontal=1;startSize=30;horizontalStack=0;resizeParent=1;resizeParentMax=0;resizeLast=0;collapsible=1;marginBottom=0;whiteSpace=wrap;html=1;" parent="WIyWlLk6GJQsqaUBKTNV-1" vertex="1">
                    <mxGeometry x="1740" y="1070" width="140" height="90" as="geometry"/>
                </mxCell>
                <mxCell id="F_2k5IYyWrM17wDWxj8I-94" value="commented-by: User" style="text;strokeColor=#23445d;fillColor=#bac8d3;align=left;verticalAlign=middle;spacingLeft=4;spacingRight=4;overflow=hidden;points=[[0,0.5],[1,0.5]];portConstraint=eastwest;rotatable=0;whiteSpace=wrap;html=1;" parent="F_2k5IYyWrM17wDWxj8I-82" vertex="1">
                    <mxGeometry y="30" width="140" height="30" as="geometry"/>
                </mxCell>
                <mxCell id="17" value="for-pr: Pull Request" style="text;strokeColor=#d79b00;fillColor=#ffe6cc;align=left;verticalAlign=middle;spacingLeft=4;spacingRight=4;overflow=hidden;points=[[0,0.5],[1,0.5]];portConstraint=eastwest;rotatable=0;whiteSpace=wrap;html=1;" parent="F_2k5IYyWrM17wDWxj8I-82" vertex="1">
                    <mxGeometry y="60" width="140" height="30" as="geometry"/>
                </mxCell>
                <mxCell id="F_2k5IYyWrM17wDWxj8I-85" value="mark ready for review" style="swimlane;fontStyle=0;childLayout=stackLayout;horizontal=1;startSize=30;horizontalStack=0;resizeParent=1;resizeParentMax=0;resizeLast=0;collapsible=1;marginBottom=0;whiteSpace=wrap;html=1;" parent="WIyWlLk6GJQsqaUBKTNV-1" vertex="1">
                    <mxGeometry x="1970" y="840" width="140" height="90" as="geometry"/>
                </mxCell>
                <mxCell id="F_2k5IYyWrM17wDWxj8I-86" value="marked-by: User" style="text;strokeColor=#23445d;fillColor=#bac8d3;align=left;verticalAlign=middle;spacingLeft=4;spacingRight=4;overflow=hidden;points=[[0,0.5],[1,0.5]];portConstraint=eastwest;rotatable=0;whiteSpace=wrap;html=1;" parent="F_2k5IYyWrM17wDWxj8I-85" vertex="1">
                    <mxGeometry y="30" width="140" height="30" as="geometry"/>
                </mxCell>
                <mxCell id="F_2k5IYyWrM17wDWxj8I-87" value="in-pr: Pull Request" style="text;strokeColor=#d79b00;fillColor=#ffe6cc;align=left;verticalAlign=middle;spacingLeft=4;spacingRight=4;overflow=hidden;points=[[0,0.5],[1,0.5]];portConstraint=eastwest;rotatable=0;whiteSpace=wrap;html=1;" parent="F_2k5IYyWrM17wDWxj8I-85" vertex="1">
                    <mxGeometry y="60" width="140" height="30" as="geometry"/>
                </mxCell>
                <mxCell id="F_2k5IYyWrM17wDWxj8I-89" value="add review request" style="swimlane;fontStyle=0;childLayout=stackLayout;horizontal=1;startSize=30;horizontalStack=0;resizeParent=1;resizeParentMax=0;resizeLast=0;collapsible=1;marginBottom=0;whiteSpace=wrap;html=1;" parent="WIyWlLk6GJQsqaUBKTNV-1" vertex="1">
                    <mxGeometry x="1970" y="940" width="140" height="120" as="geometry"/>
                </mxCell>
                <mxCell id="F_2k5IYyWrM17wDWxj8I-90" value="by: User" style="text;strokeColor=#23445d;fillColor=#bac8d3;align=left;verticalAlign=middle;spacingLeft=4;spacingRight=4;overflow=hidden;points=[[0,0.5],[1,0.5]];portConstraint=eastwest;rotatable=0;whiteSpace=wrap;html=1;" parent="F_2k5IYyWrM17wDWxj8I-89" vertex="1">
                    <mxGeometry y="30" width="140" height="30" as="geometry"/>
                </mxCell>
                <mxCell id="F_2k5IYyWrM17wDWxj8I-95" value="for: User" style="text;strokeColor=#23445d;fillColor=#bac8d3;align=left;verticalAlign=middle;spacingLeft=4;spacingRight=4;overflow=hidden;points=[[0,0.5],[1,0.5]];portConstraint=eastwest;rotatable=0;whiteSpace=wrap;html=1;" parent="F_2k5IYyWrM17wDWxj8I-89" vertex="1">
                    <mxGeometry y="60" width="140" height="30" as="geometry"/>
                </mxCell>
                <mxCell id="F_2k5IYyWrM17wDWxj8I-91" value="in-pr: Pull Request" style="text;strokeColor=#d79b00;fillColor=#ffe6cc;align=left;verticalAlign=middle;spacingLeft=4;spacingRight=4;overflow=hidden;points=[[0,0.5],[1,0.5]];portConstraint=eastwest;rotatable=0;whiteSpace=wrap;html=1;" parent="F_2k5IYyWrM17wDWxj8I-89" vertex="1">
                    <mxGeometry y="90" width="140" height="30" as="geometry"/>
                </mxCell>
                <mxCell id="Lo2DWNxIxuQ1iNFuZWaj-13" value="Method: full-path/method-name" style="swimlane;fontStyle=0;align=center;verticalAlign=top;childLayout=stackLayout;horizontal=1;startSize=26;horizontalStack=0;resizeParent=1;resizeLast=0;collapsible=1;marginBottom=0;rounded=1;shadow=0;strokeWidth=1;" parent="WIyWlLk6GJQsqaUBKTNV-1" vertex="1">
                    <mxGeometry x="900.0000000000001" y="930" width="190" height="336" as="geometry">
                        <mxRectangle x="600" y="640" width="160" height="26" as="alternateBounds"/>
                    </mxGeometry>
                </mxCell>
                <mxCell id="Lo2DWNxIxuQ1iNFuZWaj-15" value="cyclomatic_complexity: int " style="text;align=left;verticalAlign=top;spacingLeft=4;spacingRight=4;overflow=hidden;rotatable=0;points=[[0,0.5],[1,0.5]];portConstraint=eastwest;rounded=1;shadow=0;html=0;fontStyle=0;" parent="Lo2DWNxIxuQ1iNFuZWaj-13" vertex="1">
                    <mxGeometry y="26" width="190" height="26" as="geometry"/>
                </mxCell>
                <mxCell id="Lo2DWNxIxuQ1iNFuZWaj-17" value="theta_1: int" style="text;align=left;verticalAlign=top;spacingLeft=4;spacingRight=4;overflow=hidden;rotatable=0;points=[[0,0.5],[1,0.5]];portConstraint=eastwest;rounded=1;" parent="Lo2DWNxIxuQ1iNFuZWaj-13" vertex="1">
                    <mxGeometry y="52" width="190" height="26" as="geometry"/>
                </mxCell>
                <mxCell id="Lo2DWNxIxuQ1iNFuZWaj-18" value="theta_2: int" style="text;align=left;verticalAlign=top;spacingLeft=4;spacingRight=4;overflow=hidden;rotatable=0;points=[[0,0.5],[1,0.5]];portConstraint=eastwest;rounded=1;shadow=0;html=0;" parent="Lo2DWNxIxuQ1iNFuZWaj-13" vertex="1">
                    <mxGeometry y="78" width="190" height="26" as="geometry"/>
                </mxCell>
                <mxCell id="Lo2DWNxIxuQ1iNFuZWaj-19" value="N_1: int" style="text;align=left;verticalAlign=top;spacingLeft=4;spacingRight=4;overflow=hidden;rotatable=0;points=[[0,0.5],[1,0.5]];portConstraint=eastwest;rounded=1;shadow=0;html=0;" parent="Lo2DWNxIxuQ1iNFuZWaj-13" vertex="1">
                    <mxGeometry y="104" width="190" height="26" as="geometry"/>
                </mxCell>
                <mxCell id="Lo2DWNxIxuQ1iNFuZWaj-20" value="N_2: int" style="text;align=left;verticalAlign=top;spacingLeft=4;spacingRight=4;overflow=hidden;rotatable=0;points=[[0,0.5],[1,0.5]];portConstraint=eastwest;rounded=1;" parent="Lo2DWNxIxuQ1iNFuZWaj-13" vertex="1">
                    <mxGeometry y="130" width="190" height="26" as="geometry"/>
                </mxCell>
                <mxCell id="Lo2DWNxIxuQ1iNFuZWaj-16" value="lloc: int" style="text;align=left;verticalAlign=top;spacingLeft=4;spacingRight=4;overflow=hidden;rotatable=0;points=[[0,0.5],[1,0.5]];portConstraint=eastwest;rounded=1;" parent="Lo2DWNxIxuQ1iNFuZWaj-13" vertex="1">
                    <mxGeometry y="156" width="190" height="26" as="geometry"/>
                </mxCell>
                <mxCell id="Lo2DWNxIxuQ1iNFuZWaj-21" value="loc: int" style="text;align=left;verticalAlign=top;spacingLeft=4;spacingRight=4;overflow=hidden;rotatable=0;points=[[0,0.5],[1,0.5]];portConstraint=eastwest;fontStyle=0;rounded=1;" parent="Lo2DWNxIxuQ1iNFuZWaj-13" vertex="1">
                    <mxGeometry y="182" width="190" height="26" as="geometry"/>
                </mxCell>
                <mxCell id="Lo2DWNxIxuQ1iNFuZWaj-22" value="sloc: int" style="text;align=left;verticalAlign=top;spacingLeft=4;spacingRight=4;overflow=hidden;rotatable=0;points=[[0,0.5],[1,0.5]];portConstraint=eastwest;fontStyle=0;rounded=1;" parent="Lo2DWNxIxuQ1iNFuZWaj-13" vertex="1">
                    <mxGeometry y="208" width="190" height="26" as="geometry"/>
                </mxCell>
                <mxCell id="Lo2DWNxIxuQ1iNFuZWaj-23" value="comment_lines: int" style="text;align=left;verticalAlign=top;spacingLeft=4;spacingRight=4;overflow=hidden;rotatable=0;points=[[0,0.5],[1,0.5]];portConstraint=eastwest;fontStyle=0;rounded=1;" parent="Lo2DWNxIxuQ1iNFuZWaj-13" vertex="1">
                    <mxGeometry y="234" width="190" height="26" as="geometry"/>
                </mxCell>
                <mxCell id="Lo2DWNxIxuQ1iNFuZWaj-24" value="documentation_liens: int" style="text;align=left;verticalAlign=top;spacingLeft=4;spacingRight=4;overflow=hidden;rotatable=0;points=[[0,0.5],[1,0.5]];portConstraint=eastwest;fontStyle=0;rounded=1;" parent="Lo2DWNxIxuQ1iNFuZWaj-13" vertex="1">
                    <mxGeometry y="260" width="190" height="24" as="geometry"/>
                </mxCell>
                <mxCell id="Lo2DWNxIxuQ1iNFuZWaj-25" value="blank_lines:int" style="text;align=left;verticalAlign=top;spacingLeft=4;spacingRight=4;overflow=hidden;rotatable=0;points=[[0,0.5],[1,0.5]];portConstraint=eastwest;fontStyle=0;rounded=1;" parent="Lo2DWNxIxuQ1iNFuZWaj-13" vertex="1">
                    <mxGeometry y="284" width="190" height="26" as="geometry"/>
                </mxCell>
                <mxCell id="Lo2DWNxIxuQ1iNFuZWaj-26" value="pylint_score: float" style="text;align=left;verticalAlign=top;spacingLeft=4;spacingRight=4;overflow=hidden;rotatable=0;points=[[0,0.5],[1,0.5]];portConstraint=eastwest;rounded=1;shadow=0;html=0;" parent="Lo2DWNxIxuQ1iNFuZWaj-13" vertex="1">
                    <mxGeometry y="310" width="190" height="26" as="geometry"/>
                </mxCell>
                <mxCell id="Lo2DWNxIxuQ1iNFuZWaj-33" style="edgeStyle=elbowEdgeStyle;rounded=1;orthogonalLoop=1;jettySize=auto;html=1;elbow=vertical;endArrow=none;startFill=0;curved=0;spacing=2;verticalAlign=middle;" parent="WIyWlLk6GJQsqaUBKTNV-1" source="Lo2DWNxIxuQ1iNFuZWaj-13" target="Lo2DWNxIxuQ1iNFuZWaj-13" edge="1">
                    <mxGeometry relative="1" as="geometry">
                        <mxPoint x="1110" y="1100" as="sourcePoint"/>
                        <mxPoint x="1110" y="1120" as="targetPoint"/>
                        <Array as="points">
                            <mxPoint x="1130" y="1260"/>
                        </Array>
                    </mxGeometry>
                </mxCell>
                <mxCell id="Lo2DWNxIxuQ1iNFuZWaj-34" value="calls-method" style="edgeLabel;html=1;align=center;verticalAlign=middle;resizable=0;points=[];labelPosition=center;verticalLabelPosition=bottom;" parent="Lo2DWNxIxuQ1iNFuZWaj-33" vertex="1" connectable="0">
                    <mxGeometry relative="1" as="geometry">
                        <mxPoint as="offset"/>
                    </mxGeometry>
                </mxCell>
                <mxCell id="Lo2DWNxIxuQ1iNFuZWaj-35" value="0..*" style="edgeLabel;html=1;align=left;verticalAlign=middle;resizable=0;points=[];labelPosition=right;verticalLabelPosition=middle;" parent="Lo2DWNxIxuQ1iNFuZWaj-33" vertex="1" connectable="0">
                    <mxGeometry x="-1" relative="1" as="geometry">
                        <mxPoint as="offset"/>
                    </mxGeometry>
                </mxCell>
                <mxCell id="Lo2DWNxIxuQ1iNFuZWaj-36" value="0..*" style="edgeLabel;html=1;align=left;verticalAlign=middle;resizable=0;points=[];labelPosition=right;verticalLabelPosition=middle;" parent="Lo2DWNxIxuQ1iNFuZWaj-33" vertex="1" connectable="0">
                    <mxGeometry x="1" relative="1" as="geometry">
                        <mxPoint as="offset"/>
                    </mxGeometry>
                </mxCell>
                <mxCell id="Lo2DWNxIxuQ1iNFuZWaj-37" style="edgeStyle=elbowEdgeStyle;html=1;endArrow=none;endFill=0;" parent="WIyWlLk6GJQsqaUBKTNV-1" source="1tEBdCSff_7u_dz9eGTI-46" target="Lo2DWNxIxuQ1iNFuZWaj-13" edge="1">
                    <mxGeometry relative="1" as="geometry">
                        <Array as="points">
                            <mxPoint x="980" y="1460"/>
                        </Array>
                    </mxGeometry>
                </mxCell>
                <mxCell id="Lo2DWNxIxuQ1iNFuZWaj-39" value="created-by" style="edgeLabel;html=1;align=left;verticalAlign=middle;resizable=0;points=[];" parent="Lo2DWNxIxuQ1iNFuZWaj-37" vertex="1" connectable="0">
                    <mxGeometry x="-0.93" relative="1" as="geometry">
                        <mxPoint as="offset"/>
                    </mxGeometry>
                </mxCell>
                <mxCell id="Lo2DWNxIxuQ1iNFuZWaj-42" value="1" style="edgeLabel;html=1;align=left;verticalAlign=middle;resizable=0;points=[];" parent="Lo2DWNxIxuQ1iNFuZWaj-37" vertex="1" connectable="0">
                    <mxGeometry x="-1" relative="1" as="geometry">
                        <mxPoint as="offset"/>
                    </mxGeometry>
                </mxCell>
                <mxCell id="Lo2DWNxIxuQ1iNFuZWaj-43" value="0..*" style="edgeLabel;html=1;align=right;verticalAlign=top;resizable=0;points=[];" parent="Lo2DWNxIxuQ1iNFuZWaj-37" vertex="1" connectable="0">
                    <mxGeometry x="1" relative="1" as="geometry">
                        <mxPoint as="offset"/>
                    </mxGeometry>
                </mxCell>
                <mxCell id="Lo2DWNxIxuQ1iNFuZWaj-38" style="edgeStyle=elbowEdgeStyle;html=1;endArrow=none;endFill=0;" parent="WIyWlLk6GJQsqaUBKTNV-1" source="1tEBdCSff_7u_dz9eGTI-46" target="Lo2DWNxIxuQ1iNFuZWaj-13" edge="1">
                    <mxGeometry relative="1" as="geometry">
                        <mxPoint x="694" y="1380" as="sourcePoint"/>
                        <mxPoint x="910" y="1191" as="targetPoint"/>
                        <Array as="points">
                            <mxPoint x="1000" y="1480"/>
                        </Array>
                    </mxGeometry>
                </mxCell>
                <mxCell id="Lo2DWNxIxuQ1iNFuZWaj-40" value="last-edited-by" style="edgeLabel;html=1;align=left;verticalAlign=middle;resizable=0;points=[];" parent="Lo2DWNxIxuQ1iNFuZWaj-38" vertex="1" connectable="0">
                    <mxGeometry x="-0.94" relative="1" as="geometry">
                        <mxPoint as="offset"/>
                    </mxGeometry>
                </mxCell>
                <mxCell id="Lo2DWNxIxuQ1iNFuZWaj-41" value="1" style="edgeLabel;html=1;align=left;verticalAlign=middle;resizable=0;points=[];" parent="Lo2DWNxIxuQ1iNFuZWaj-38" vertex="1" connectable="0">
                    <mxGeometry x="-1" relative="1" as="geometry">
                        <mxPoint as="offset"/>
                    </mxGeometry>
                </mxCell>
                <mxCell id="Lo2DWNxIxuQ1iNFuZWaj-44" value="0..*" style="edgeLabel;html=1;align=left;verticalAlign=top;resizable=0;points=[];" parent="Lo2DWNxIxuQ1iNFuZWaj-38" vertex="1" connectable="0">
                    <mxGeometry x="1" relative="1" as="geometry">
                        <mxPoint as="offset"/>
                    </mxGeometry>
                </mxCell>
                <mxCell id="3" value="remove review request" style="swimlane;fontStyle=0;childLayout=stackLayout;horizontal=1;startSize=30;horizontalStack=0;resizeParent=1;resizeParentMax=0;resizeLast=0;collapsible=1;marginBottom=0;whiteSpace=wrap;html=1;" parent="WIyWlLk6GJQsqaUBKTNV-1" vertex="1">
                    <mxGeometry x="2120" y="940" width="140" height="120" as="geometry"/>
                </mxCell>
                <mxCell id="4" value="by: User" style="text;strokeColor=#23445d;fillColor=#bac8d3;align=left;verticalAlign=middle;spacingLeft=4;spacingRight=4;overflow=hidden;points=[[0,0.5],[1,0.5]];portConstraint=eastwest;rotatable=0;whiteSpace=wrap;html=1;" parent="3" vertex="1">
                    <mxGeometry y="30" width="140" height="30" as="geometry"/>
                </mxCell>
                <mxCell id="5" value="for: User" style="text;strokeColor=#23445d;fillColor=#bac8d3;align=left;verticalAlign=middle;spacingLeft=4;spacingRight=4;overflow=hidden;points=[[0,0.5],[1,0.5]];portConstraint=eastwest;rotatable=0;whiteSpace=wrap;html=1;" parent="3" vertex="1">
                    <mxGeometry y="60" width="140" height="30" as="geometry"/>
                </mxCell>
                <mxCell id="6" value="in-pr: Pull Request" style="text;strokeColor=#d79b00;fillColor=#ffe6cc;align=left;verticalAlign=middle;spacingLeft=4;spacingRight=4;overflow=hidden;points=[[0,0.5],[1,0.5]];portConstraint=eastwest;rotatable=0;whiteSpace=wrap;html=1;" parent="3" vertex="1">
                    <mxGeometry y="90" width="140" height="30" as="geometry"/>
                </mxCell>
                <mxCell id="10" style="edgeStyle=elbowEdgeStyle;rounded=1;orthogonalLoop=1;jettySize=auto;html=1;endArrow=none;startFill=0;elbow=vertical;" parent="WIyWlLk6GJQsqaUBKTNV-1" source="1tEBdCSff_7u_dz9eGTI-46" target="1tEBdCSff_7u_dz9eGTI-51" edge="1">
                    <mxGeometry relative="1" as="geometry">
                        <Array as="points">
                            <mxPoint x="790" y="1430"/>
                        </Array>
                        <mxPoint x="679.99" y="1442" as="sourcePoint"/>
                        <mxPoint x="780.0104081632651" y="1380" as="targetPoint"/>
                    </mxGeometry>
                </mxCell>
                <mxCell id="11" value="1" style="edgeLabel;html=1;align=left;verticalAlign=middle;resizable=0;points=[];" parent="10" vertex="1" connectable="0">
                    <mxGeometry x="-1" relative="1" as="geometry">
                        <mxPoint as="offset"/>
                    </mxGeometry>
                </mxCell>
                <mxCell id="12" value="last-edited-by" style="edgeLabel;html=1;align=left;verticalAlign=middle;resizable=0;points=[];" parent="10" vertex="1" connectable="0">
                    <mxGeometry x="-1" relative="1" as="geometry">
                        <mxPoint x="15" as="offset"/>
                    </mxGeometry>
                </mxCell>
                <mxCell id="13" value="0..*" style="edgeLabel;html=1;align=left;verticalAlign=top;resizable=0;points=[];" parent="10" vertex="1" connectable="0">
                    <mxGeometry x="1" relative="1" as="geometry">
                        <mxPoint as="offset"/>
                    </mxGeometry>
                </mxCell>
            </root>
        </mxGraphModel>
    </diagram>
    <diagram id="L8MfOd5uyXhnGUv-uEOC" name="Process-Model">
        <mxGraphModel dx="1597" dy="920" grid="1" gridSize="10" guides="1" tooltips="1" connect="1" arrows="1" fold="1" page="1" pageScale="1" pageWidth="1169" pageHeight="827" math="0" shadow="0" adaptiveColors="simple">
            <root>
                <mxCell id="0"/>
                <mxCell id="1" parent="0"/>
                <mxCell id="5u7bnY5aeNVEBnPNH4C3-10" value="connected" style="ellipse;whiteSpace=wrap;html=1;" parent="1" vertex="1">
                    <mxGeometry x="110" y="1810" width="80" height="80" as="geometry"/>
                </mxCell>
                <mxCell id="5u7bnY5aeNVEBnPNH4C3-11" value="convert-to-draft" style="ellipse;whiteSpace=wrap;html=1;" parent="1" vertex="1">
                    <mxGeometry x="110" y="1890" width="80" height="80" as="geometry"/>
                </mxCell>
                <mxCell id="5u7bnY5aeNVEBnPNH4C3-12" value="cross-referenced" style="ellipse;whiteSpace=wrap;html=1;" parent="1" vertex="1">
                    <mxGeometry x="110" y="1970" width="80" height="80" as="geometry"/>
                </mxCell>
                <mxCell id="5u7bnY5aeNVEBnPNH4C3-13" value="deployed" style="ellipse;whiteSpace=wrap;html=1;" parent="1" vertex="1">
                    <mxGeometry x="110" y="2050" width="80" height="80" as="geometry"/>
                </mxCell>
                <mxCell id="5u7bnY5aeNVEBnPNH4C3-14" value="disconnected" style="ellipse;whiteSpace=wrap;html=1;" parent="1" vertex="1">
                    <mxGeometry x="30" y="1810" width="80" height="80" as="geometry"/>
                </mxCell>
                <mxCell id="5u7bnY5aeNVEBnPNH4C3-15" value="locked" style="ellipse;whiteSpace=wrap;html=1;" parent="1" vertex="1">
                    <mxGeometry x="110" y="2130" width="80" height="80" as="geometry"/>
                </mxCell>
                <mxCell id="5u7bnY5aeNVEBnPNH4C3-16" value="mentioned" style="ellipse;whiteSpace=wrap;html=1;" parent="1" vertex="1">
                    <mxGeometry x="110" y="2210" width="80" height="80" as="geometry"/>
                </mxCell>
                <mxCell id="5u7bnY5aeNVEBnPNH4C3-17" value="marked-as-duplicate" style="ellipse;whiteSpace=wrap;html=1;" parent="1" vertex="1">
                    <mxGeometry x="110" y="2290" width="80" height="80" as="geometry"/>
                </mxCell>
                <mxCell id="-rGZMsEckgrTAfZ7zgTu-56" style="edgeStyle=none;html=1;" parent="1" source="5u7bnY5aeNVEBnPNH4C3-18" target="5u7bnY5aeNVEBnPNH4C3-21" edge="1">
                    <mxGeometry relative="1" as="geometry"/>
                </mxCell>
                <mxCell id="-rGZMsEckgrTAfZ7zgTu-63" style="edgeStyle=none;html=1;" parent="1" source="5u7bnY5aeNVEBnPNH4C3-18" target="5u7bnY5aeNVEBnPNH4C3-25" edge="1">
                    <mxGeometry relative="1" as="geometry"/>
                </mxCell>
                <mxCell id="-rGZMsEckgrTAfZ7zgTu-64" style="edgeStyle=none;html=1;" parent="1" source="5u7bnY5aeNVEBnPNH4C3-18" target="5u7bnY5aeNVEBnPNH4C3-24" edge="1">
                    <mxGeometry relative="1" as="geometry"/>
                </mxCell>
                <mxCell id="-rGZMsEckgrTAfZ7zgTu-65" style="edgeStyle=none;html=1;" parent="1" source="5u7bnY5aeNVEBnPNH4C3-18" target="-rGZMsEckgrTAfZ7zgTu-70" edge="1">
                    <mxGeometry relative="1" as="geometry">
                        <mxPoint x="491.0557280900009" y="282.1114561800017" as="targetPoint"/>
                    </mxGeometry>
                </mxCell>
                <mxCell id="-rGZMsEckgrTAfZ7zgTu-66" style="edgeStyle=none;html=1;" parent="1" source="5u7bnY5aeNVEBnPNH4C3-18" target="-rGZMsEckgrTAfZ7zgTu-71" edge="1">
                    <mxGeometry relative="1" as="geometry">
                        <mxPoint x="563.3589941132561" y="288.90599607550405" as="targetPoint"/>
                    </mxGeometry>
                </mxCell>
                <mxCell id="5u7bnY5aeNVEBnPNH4C3-18" value="rq-r" style="ellipse;whiteSpace=wrap;html=1;aspect=fixed;" parent="1" vertex="1">
                    <mxGeometry x="440" y="280" width="40" height="40" as="geometry"/>
                </mxCell>
                <mxCell id="5u7bnY5aeNVEBnPNH4C3-19" value="referenced-from-commit" style="ellipse;whiteSpace=wrap;html=1;" parent="1" vertex="1">
                    <mxGeometry x="30" y="1970" width="80" height="80" as="geometry"/>
                </mxCell>
                <mxCell id="-rGZMsEckgrTAfZ7zgTu-57" style="edgeStyle=elbowEdgeStyle;html=1;elbow=vertical;" parent="1" source="5u7bnY5aeNVEBnPNH4C3-21" target="5u7bnY5aeNVEBnPNH4C3-18" edge="1">
                    <mxGeometry relative="1" as="geometry">
                        <Array as="points">
                            <mxPoint x="420" y="260"/>
                        </Array>
                    </mxGeometry>
                </mxCell>
                <mxCell id="5u7bnY5aeNVEBnPNH4C3-21" value="dr-r" style="ellipse;whiteSpace=wrap;html=1;aspect=fixed;" parent="1" vertex="1">
                    <mxGeometry x="360" y="280" width="40" height="40" as="geometry"/>
                </mxCell>
                <mxCell id="-rGZMsEckgrTAfZ7zgTu-68" style="edgeStyle=orthogonalEdgeStyle;html=1;" parent="1" source="5u7bnY5aeNVEBnPNH4C3-24" target="-rGZMsEckgrTAfZ7zgTu-38" edge="1">
                    <mxGeometry relative="1" as="geometry">
                        <Array as="points">
                            <mxPoint x="380" y="420"/>
                            <mxPoint x="260" y="420"/>
                            <mxPoint x="260" y="140"/>
                        </Array>
                    </mxGeometry>
                </mxCell>
                <mxCell id="5u7bnY5aeNVEBnPNH4C3-24" value="co-r" style="ellipse;whiteSpace=wrap;html=1;aspect=fixed;" parent="1" vertex="1">
                    <mxGeometry x="360" y="360" width="40" height="40" as="geometry"/>
                </mxCell>
                <mxCell id="-rGZMsEckgrTAfZ7zgTu-67" style="edgeStyle=orthogonalEdgeStyle;html=1;" parent="1" source="5u7bnY5aeNVEBnPNH4C3-25" target="-rGZMsEckgrTAfZ7zgTu-38" edge="1">
                    <mxGeometry relative="1" as="geometry">
                        <Array as="points">
                            <mxPoint x="300" y="140"/>
                        </Array>
                    </mxGeometry>
                </mxCell>
                <mxCell id="5u7bnY5aeNVEBnPNH4C3-25" value="ch-r" style="ellipse;whiteSpace=wrap;html=1;aspect=fixed;" parent="1" vertex="1">
                    <mxGeometry x="280" y="360" width="40" height="40" as="geometry"/>
                </mxCell>
                <mxCell id="5u7bnY5aeNVEBnPNH4C3-28" value="assigned" style="ellipse;whiteSpace=wrap;html=1;" parent="1" vertex="1">
                    <mxGeometry x="110" y="2370" width="80" height="80" as="geometry"/>
                </mxCell>
                <mxCell id="5u7bnY5aeNVEBnPNH4C3-29" value="unassigned" style="ellipse;whiteSpace=wrap;html=1;" parent="1" vertex="1">
                    <mxGeometry x="30" y="2370" width="80" height="80" as="geometry"/>
                </mxCell>
                <mxCell id="5u7bnY5aeNVEBnPNH4C3-30" value="unlocked" style="ellipse;whiteSpace=wrap;html=1;" parent="1" vertex="1">
                    <mxGeometry x="30" y="2130" width="80" height="80" as="geometry"/>
                </mxCell>
                <mxCell id="5u7bnY5aeNVEBnPNH4C3-31" value="unmarked-as-duplicate" style="ellipse;whiteSpace=wrap;html=1;" parent="1" vertex="1">
                    <mxGeometry x="30" y="2290" width="80" height="80" as="geometry"/>
                </mxCell>
                <mxCell id="5u7bnY5aeNVEBnPNH4C3-32" value="user-blocked" style="ellipse;whiteSpace=wrap;html=1;" parent="1" vertex="1">
                    <mxGeometry x="110" y="1730" width="80" height="80" as="geometry"/>
                </mxCell>
                <mxCell id="-rGZMsEckgrTAfZ7zgTu-7" style="edgeStyle=none;html=1;" parent="1" source="-rGZMsEckgrTAfZ7zgTu-4" target="-rGZMsEckgrTAfZ7zgTu-6" edge="1">
                    <mxGeometry relative="1" as="geometry"/>
                </mxCell>
                <mxCell id="-rGZMsEckgrTAfZ7zgTu-9" style="edgeStyle=none;html=1;" parent="1" source="-rGZMsEckgrTAfZ7zgTu-6" target="-rGZMsEckgrTAfZ7zgTu-10" edge="1">
                    <mxGeometry relative="1" as="geometry">
                        <mxPoint x="100" y="200" as="targetPoint"/>
                    </mxGeometry>
                </mxCell>
                <mxCell id="-rGZMsEckgrTAfZ7zgTu-6" value="co" style="ellipse;whiteSpace=wrap;html=1;aspect=fixed;" parent="1" vertex="1">
                    <mxGeometry x="80" y="120" width="40" height="40" as="geometry"/>
                </mxCell>
                <mxCell id="-rGZMsEckgrTAfZ7zgTu-31" style="edgeStyle=elbowEdgeStyle;html=1;" parent="1" source="-rGZMsEckgrTAfZ7zgTu-10" target="-rGZMsEckgrTAfZ7zgTu-15" edge="1">
                    <mxGeometry relative="1" as="geometry">
                        <Array as="points">
                            <mxPoint x="180" y="390"/>
                        </Array>
                    </mxGeometry>
                </mxCell>
                <mxCell id="-rGZMsEckgrTAfZ7zgTu-10" value="op-pr" style="ellipse;whiteSpace=wrap;html=1;aspect=fixed;" parent="1" vertex="1">
                    <mxGeometry x="80" y="200" width="40" height="40" as="geometry"/>
                </mxCell>
                <mxCell id="-rGZMsEckgrTAfZ7zgTu-17" style="edgeStyle=none;html=1;" parent="1" source="-rGZMsEckgrTAfZ7zgTu-12" target="-rGZMsEckgrTAfZ7zgTu-32" edge="1">
                    <mxGeometry relative="1" as="geometry"/>
                </mxCell>
                <mxCell id="-rGZMsEckgrTAfZ7zgTu-18" style="edgeStyle=elbowEdgeStyle;html=1;" parent="1" source="-rGZMsEckgrTAfZ7zgTu-12" target="-rGZMsEckgrTAfZ7zgTu-15" edge="1">
                    <mxGeometry relative="1" as="geometry">
                        <Array as="points">
                            <mxPoint x="180" y="440"/>
                        </Array>
                    </mxGeometry>
                </mxCell>
                <mxCell id="-rGZMsEckgrTAfZ7zgTu-12" value="ad-l" style="ellipse;whiteSpace=wrap;html=1;aspect=fixed;" parent="1" vertex="1">
                    <mxGeometry x="80" y="280" width="40" height="40" as="geometry"/>
                </mxCell>
                <mxCell id="-rGZMsEckgrTAfZ7zgTu-13" style="edgeStyle=none;html=1;" parent="1" source="-rGZMsEckgrTAfZ7zgTu-10" target="-rGZMsEckgrTAfZ7zgTu-12" edge="1">
                    <mxGeometry relative="1" as="geometry"/>
                </mxCell>
                <mxCell id="-rGZMsEckgrTAfZ7zgTu-19" style="edgeStyle=none;html=1;" parent="1" source="-rGZMsEckgrTAfZ7zgTu-15" target="-rGZMsEckgrTAfZ7zgTu-16" edge="1">
                    <mxGeometry relative="1" as="geometry"/>
                </mxCell>
                <mxCell id="-rGZMsEckgrTAfZ7zgTu-15" value="me-pr" style="ellipse;whiteSpace=wrap;html=1;aspect=fixed;" parent="1" vertex="1">
                    <mxGeometry x="160" y="560" width="40" height="40" as="geometry"/>
                </mxCell>
                <mxCell id="-rGZMsEckgrTAfZ7zgTu-20" style="edgeStyle=none;html=1;" parent="1" source="-rGZMsEckgrTAfZ7zgTu-16" target="-rGZMsEckgrTAfZ7zgTu-21" edge="1">
                    <mxGeometry relative="1" as="geometry">
                        <mxPoint x="100" y="640" as="targetPoint"/>
                    </mxGeometry>
                </mxCell>
                <mxCell id="-rGZMsEckgrTAfZ7zgTu-26" style="edgeStyle=none;html=1;" parent="1" source="-rGZMsEckgrTAfZ7zgTu-16" target="-rGZMsEckgrTAfZ7zgTu-25" edge="1">
                    <mxGeometry relative="1" as="geometry"/>
                </mxCell>
                <mxCell id="-rGZMsEckgrTAfZ7zgTu-29" style="edgeStyle=none;html=1;" parent="1" source="-rGZMsEckgrTAfZ7zgTu-16" target="-rGZMsEckgrTAfZ7zgTu-27" edge="1">
                    <mxGeometry relative="1" as="geometry"/>
                </mxCell>
                <mxCell id="-rGZMsEckgrTAfZ7zgTu-16" value="cl-pr" style="ellipse;whiteSpace=wrap;html=1;aspect=fixed;" parent="1" vertex="1">
                    <mxGeometry x="80" y="560" width="40" height="40" as="geometry"/>
                </mxCell>
                <mxCell id="-rGZMsEckgrTAfZ7zgTu-23" style="edgeStyle=elbowEdgeStyle;html=1;" parent="1" source="-rGZMsEckgrTAfZ7zgTu-21" target="-rGZMsEckgrTAfZ7zgTu-6" edge="1">
                    <mxGeometry relative="1" as="geometry">
                        <Array as="points">
                            <mxPoint x="20" y="140"/>
                        </Array>
                    </mxGeometry>
                </mxCell>
                <mxCell id="-rGZMsEckgrTAfZ7zgTu-24" style="edgeStyle=elbowEdgeStyle;html=1;rounded=1;curved=0;" parent="1" source="-rGZMsEckgrTAfZ7zgTu-21" target="-rGZMsEckgrTAfZ7zgTu-16" edge="1">
                    <mxGeometry relative="1" as="geometry">
                        <Array as="points">
                            <mxPoint x="60" y="540"/>
                        </Array>
                    </mxGeometry>
                </mxCell>
                <mxCell id="-rGZMsEckgrTAfZ7zgTu-21" value="ro-pr" style="ellipse;whiteSpace=wrap;html=1;aspect=fixed;" parent="1" vertex="1">
                    <mxGeometry y="560" width="40" height="40" as="geometry"/>
                </mxCell>
                <mxCell id="-rGZMsEckgrTAfZ7zgTu-30" style="edgeStyle=none;html=1;" parent="1" source="-rGZMsEckgrTAfZ7zgTu-25" target="-rGZMsEckgrTAfZ7zgTu-27" edge="1">
                    <mxGeometry relative="1" as="geometry"/>
                </mxCell>
                <mxCell id="-rGZMsEckgrTAfZ7zgTu-25" value="re-l" style="ellipse;whiteSpace=wrap;html=1;aspect=fixed;" parent="1" vertex="1">
                    <mxGeometry x="160" y="640" width="40" height="40" as="geometry"/>
                </mxCell>
                <mxCell id="-rGZMsEckgrTAfZ7zgTu-33" style="edgeStyle=none;html=1;" parent="1" source="-rGZMsEckgrTAfZ7zgTu-32" target="-rGZMsEckgrTAfZ7zgTu-16" edge="1">
                    <mxGeometry relative="1" as="geometry"/>
                </mxCell>
                <mxCell id="-rGZMsEckgrTAfZ7zgTu-32" value="co-pr" style="ellipse;whiteSpace=wrap;html=1;aspect=fixed;" parent="1" vertex="1">
                    <mxGeometry x="80" y="360" width="40" height="40" as="geometry"/>
                </mxCell>
                <mxCell id="-rGZMsEckgrTAfZ7zgTu-40" style="edgeStyle=none;html=1;" parent="1" source="-rGZMsEckgrTAfZ7zgTu-34" target="-rGZMsEckgrTAfZ7zgTu-38" edge="1">
                    <mxGeometry relative="1" as="geometry"/>
                </mxCell>
                <mxCell id="-rGZMsEckgrTAfZ7zgTu-41" style="edgeStyle=none;html=1;" parent="1" source="-rGZMsEckgrTAfZ7zgTu-80" target="5u7bnY5aeNVEBnPNH4C3-18" edge="1">
                    <mxGeometry relative="1" as="geometry"/>
                </mxCell>
                <mxCell id="-rGZMsEckgrTAfZ7zgTu-79" style="edgeStyle=none;html=1;" parent="1" source="-rGZMsEckgrTAfZ7zgTu-38" target="-rGZMsEckgrTAfZ7zgTu-80" edge="1">
                    <mxGeometry relative="1" as="geometry">
                        <mxPoint x="520" y="200" as="targetPoint"/>
                    </mxGeometry>
                </mxCell>
                <mxCell id="-rGZMsEckgrTAfZ7zgTu-38" value="co" style="ellipse;whiteSpace=wrap;html=1;aspect=fixed;" parent="1" vertex="1">
                    <mxGeometry x="440" y="120" width="40" height="40" as="geometry"/>
                </mxCell>
                <mxCell id="-rGZMsEckgrTAfZ7zgTu-58" style="edgeStyle=none;html=1;" parent="1" source="-rGZMsEckgrTAfZ7zgTu-59" target="-rGZMsEckgrTAfZ7zgTu-61" edge="1">
                    <mxGeometry relative="1" as="geometry"/>
                </mxCell>
                <mxCell id="-rGZMsEckgrTAfZ7zgTu-59" value="me-pr" style="ellipse;whiteSpace=wrap;html=1;aspect=fixed;" parent="1" vertex="1">
                    <mxGeometry x="520" y="560" width="40" height="40" as="geometry"/>
                </mxCell>
                <mxCell id="-rGZMsEckgrTAfZ7zgTu-60" style="edgeStyle=none;html=1;" parent="1" source="-rGZMsEckgrTAfZ7zgTu-61" edge="1">
                    <mxGeometry relative="1" as="geometry">
                        <mxPoint x="460" y="720" as="targetPoint"/>
                    </mxGeometry>
                </mxCell>
                <mxCell id="-rGZMsEckgrTAfZ7zgTu-61" value="cl-pr" style="ellipse;whiteSpace=wrap;html=1;aspect=fixed;" parent="1" vertex="1">
                    <mxGeometry x="440" y="560" width="40" height="40" as="geometry"/>
                </mxCell>
                <mxCell id="-rGZMsEckgrTAfZ7zgTu-72" style="edgeStyle=none;html=1;" parent="1" source="-rGZMsEckgrTAfZ7zgTu-70" target="-rGZMsEckgrTAfZ7zgTu-61" edge="1">
                    <mxGeometry relative="1" as="geometry"/>
                </mxCell>
                <mxCell id="-rGZMsEckgrTAfZ7zgTu-70" value="di-r" style="ellipse;whiteSpace=wrap;html=1;aspect=fixed;" parent="1" vertex="1">
                    <mxGeometry x="440" y="360" width="40" height="40" as="geometry"/>
                </mxCell>
                <mxCell id="-rGZMsEckgrTAfZ7zgTu-73" style="edgeStyle=none;html=1;" parent="1" source="-rGZMsEckgrTAfZ7zgTu-71" target="-rGZMsEckgrTAfZ7zgTu-59" edge="1">
                    <mxGeometry relative="1" as="geometry"/>
                </mxCell>
                <mxCell id="-rGZMsEckgrTAfZ7zgTu-71" value="ap-r" style="ellipse;whiteSpace=wrap;html=1;aspect=fixed;" parent="1" vertex="1">
                    <mxGeometry x="520" y="360" width="40" height="40" as="geometry"/>
                </mxCell>
                <mxCell id="-rGZMsEckgrTAfZ7zgTu-75" value="" style="group" parent="1" vertex="1" connectable="0">
                    <mxGeometry x="440" y="720" width="40" height="40" as="geometry"/>
                </mxCell>
                <mxCell id="-rGZMsEckgrTAfZ7zgTu-36" value="" style="ellipse;whiteSpace=wrap;html=1;aspect=fixed;fillColor=#e1d5e7;strokeColor=#9673a6;" parent="-rGZMsEckgrTAfZ7zgTu-75" vertex="1">
                    <mxGeometry width="40" height="40" as="geometry"/>
                </mxCell>
                <mxCell id="-rGZMsEckgrTAfZ7zgTu-74" value="" style="whiteSpace=wrap;html=1;aspect=fixed;strokeColor=none;" parent="-rGZMsEckgrTAfZ7zgTu-75" vertex="1">
                    <mxGeometry x="12" y="12" width="16" height="16" as="geometry"/>
                </mxCell>
                <mxCell id="-rGZMsEckgrTAfZ7zgTu-76" value="" style="group" parent="1" vertex="1" connectable="0">
                    <mxGeometry x="80" y="720" width="40" height="40" as="geometry"/>
                </mxCell>
                <mxCell id="-rGZMsEckgrTAfZ7zgTu-27" value="" style="ellipse;whiteSpace=wrap;html=1;aspect=fixed;fillColor=#fad9d5;strokeColor=#ae4132;" parent="-rGZMsEckgrTAfZ7zgTu-76" vertex="1">
                    <mxGeometry width="40" height="40" as="geometry"/>
                </mxCell>
                <mxCell id="-rGZMsEckgrTAfZ7zgTu-28" value="" style="whiteSpace=wrap;html=1;aspect=fixed;strokeColor=none;" parent="-rGZMsEckgrTAfZ7zgTu-76" vertex="1">
                    <mxGeometry x="12" y="12" width="16" height="16" as="geometry"/>
                </mxCell>
                <mxCell id="-rGZMsEckgrTAfZ7zgTu-77" value="" style="group" parent="1" vertex="1" connectable="0">
                    <mxGeometry x="80" y="40" width="40" height="40" as="geometry"/>
                </mxCell>
                <mxCell id="-rGZMsEckgrTAfZ7zgTu-4" value="" style="ellipse;whiteSpace=wrap;html=1;aspect=fixed;fillColor=#fad9d5;strokeColor=#ae4132;" parent="-rGZMsEckgrTAfZ7zgTu-77" vertex="1">
                    <mxGeometry width="40" height="40" as="geometry"/>
                </mxCell>
                <mxCell id="-rGZMsEckgrTAfZ7zgTu-5" value="" style="triangle;whiteSpace=wrap;html=1;strokeColor=none;" parent="-rGZMsEckgrTAfZ7zgTu-77" vertex="1">
                    <mxGeometry x="14" y="10" width="16" height="20" as="geometry"/>
                </mxCell>
                <mxCell id="-rGZMsEckgrTAfZ7zgTu-78" value="" style="group" parent="1" vertex="1" connectable="0">
                    <mxGeometry x="440" y="40" width="40" height="40" as="geometry"/>
                </mxCell>
                <mxCell id="-rGZMsEckgrTAfZ7zgTu-34" value="" style="ellipse;whiteSpace=wrap;html=1;aspect=fixed;fillColor=#e1d5e7;strokeColor=#9673a6;" parent="-rGZMsEckgrTAfZ7zgTu-78" vertex="1">
                    <mxGeometry width="40" height="40" as="geometry"/>
                </mxCell>
                <mxCell id="-rGZMsEckgrTAfZ7zgTu-35" value="" style="triangle;whiteSpace=wrap;html=1;strokeColor=none;" parent="-rGZMsEckgrTAfZ7zgTu-78" vertex="1">
                    <mxGeometry x="14" y="10" width="16" height="20" as="geometry"/>
                </mxCell>
                <mxCell id="-rGZMsEckgrTAfZ7zgTu-81" value="" style="edgeStyle=none;html=1;" parent="1" source="-rGZMsEckgrTAfZ7zgTu-38" target="-rGZMsEckgrTAfZ7zgTu-80" edge="1">
                    <mxGeometry relative="1" as="geometry">
                        <mxPoint x="460" y="160" as="sourcePoint"/>
                        <mxPoint x="460" y="280" as="targetPoint"/>
                    </mxGeometry>
                </mxCell>
                <mxCell id="-rGZMsEckgrTAfZ7zgTu-80" value="mr-r" style="ellipse;whiteSpace=wrap;html=1;aspect=fixed;" parent="1" vertex="1">
                    <mxGeometry x="440" y="200" width="40" height="40" as="geometry"/>
                </mxCell>
                <mxCell id="Ts7cOnaBU8SNPCVaaG7k-17" style="edgeStyle=none;html=1;" parent="1" source="Ts7cOnaBU8SNPCVaaG7k-5" target="Ts7cOnaBU8SNPCVaaG7k-13" edge="1">
                    <mxGeometry relative="1" as="geometry"/>
                </mxCell>
                <mxCell id="Ts7cOnaBU8SNPCVaaG7k-5" value="" style="ellipse;whiteSpace=wrap;html=1;aspect=fixed;fillColor=#fff2cc;strokeColor=#d6b656;" parent="1" vertex="1">
                    <mxGeometry x="800" y="400" width="40" height="40" as="geometry"/>
                </mxCell>
                <mxCell id="Ts7cOnaBU8SNPCVaaG7k-6" value="" style="triangle;whiteSpace=wrap;html=1;strokeColor=none;" parent="1" vertex="1">
                    <mxGeometry x="814" y="410" width="16" height="20" as="geometry"/>
                </mxCell>
                <mxCell id="Ts7cOnaBU8SNPCVaaG7k-7" value="" style="ellipse;whiteSpace=wrap;html=1;aspect=fixed;fillColor=#fff2cc;strokeColor=#d6b656;" parent="1" vertex="1">
                    <mxGeometry x="800" y="720" width="40" height="40" as="geometry"/>
                </mxCell>
                <mxCell id="Ts7cOnaBU8SNPCVaaG7k-8" value="" style="whiteSpace=wrap;html=1;aspect=fixed;strokeColor=none;" parent="1" vertex="1">
                    <mxGeometry x="812" y="732" width="16" height="16" as="geometry"/>
                </mxCell>
                <mxCell id="Ts7cOnaBU8SNPCVaaG7k-10" style="edgeStyle=none;html=1;" parent="1" source="Ts7cOnaBU8SNPCVaaG7k-9" target="Ts7cOnaBU8SNPCVaaG7k-7" edge="1">
                    <mxGeometry relative="1" as="geometry"/>
                </mxCell>
                <mxCell id="Ts7cOnaBU8SNPCVaaG7k-9" value="me-pr" style="ellipse;whiteSpace=wrap;html=1;aspect=fixed;" parent="1" vertex="1">
                    <mxGeometry x="800" y="640" width="40" height="40" as="geometry"/>
                </mxCell>
                <mxCell id="Ts7cOnaBU8SNPCVaaG7k-19" style="edgeStyle=none;html=1;" parent="1" source="Ts7cOnaBU8SNPCVaaG7k-11" target="Ts7cOnaBU8SNPCVaaG7k-9" edge="1">
                    <mxGeometry relative="1" as="geometry"/>
                </mxCell>
                <mxCell id="Ts7cOnaBU8SNPCVaaG7k-11" value="co" style="ellipse;whiteSpace=wrap;html=1;aspect=fixed;" parent="1" vertex="1">
                    <mxGeometry x="800" y="560" width="40" height="40" as="geometry"/>
                </mxCell>
                <mxCell id="Ts7cOnaBU8SNPCVaaG7k-18" style="edgeStyle=none;html=1;" parent="1" source="Ts7cOnaBU8SNPCVaaG7k-13" target="Ts7cOnaBU8SNPCVaaG7k-11" edge="1">
                    <mxGeometry relative="1" as="geometry"/>
                </mxCell>
                <mxCell id="Ts7cOnaBU8SNPCVaaG7k-13" value="ch-f" style="ellipse;whiteSpace=wrap;html=1;aspect=fixed;" parent="1" vertex="1">
                    <mxGeometry x="800" y="480" width="40" height="40" as="geometry"/>
                </mxCell>
                <mxCell id="Ts7cOnaBU8SNPCVaaG7k-14" style="edgeStyle=orthogonalEdgeStyle;html=1;rounded=1;curved=1;entryX=1;entryY=0;entryDx=0;entryDy=0;" parent="1" source="Ts7cOnaBU8SNPCVaaG7k-13" target="Ts7cOnaBU8SNPCVaaG7k-13" edge="1">
                    <mxGeometry relative="1" as="geometry">
                        <Array as="points">
                            <mxPoint x="860" y="514"/>
                            <mxPoint x="860" y="486"/>
                        </Array>
                        <mxPoint x="830" y="520" as="sourcePoint"/>
                        <mxPoint x="830" y="492" as="targetPoint"/>
                    </mxGeometry>
                </mxCell>
                <mxCell id="Ts7cOnaBU8SNPCVaaG7k-15" style="edgeStyle=orthogonalEdgeStyle;html=1;rounded=1;curved=1;entryX=1;entryY=0;entryDx=0;entryDy=0;exitX=1;exitY=1;exitDx=0;exitDy=0;" parent="1" source="-rGZMsEckgrTAfZ7zgTu-38" target="-rGZMsEckgrTAfZ7zgTu-38" edge="1">
                    <mxGeometry relative="1" as="geometry">
                        <Array as="points">
                            <mxPoint x="500" y="154"/>
                            <mxPoint x="500" y="126"/>
                        </Array>
                        <mxPoint x="470" y="154" as="sourcePoint"/>
                        <mxPoint x="470" y="126" as="targetPoint"/>
                    </mxGeometry>
                </mxCell>
                <mxCell id="Ts7cOnaBU8SNPCVaaG7k-16" style="edgeStyle=orthogonalEdgeStyle;html=1;rounded=1;curved=1;entryX=1;entryY=0;entryDx=0;entryDy=0;exitX=1;exitY=1;exitDx=0;exitDy=0;" parent="1" source="-rGZMsEckgrTAfZ7zgTu-6" target="-rGZMsEckgrTAfZ7zgTu-6" edge="1">
                    <mxGeometry relative="1" as="geometry">
                        <Array as="points">
                            <mxPoint x="140" y="154"/>
                            <mxPoint x="140" y="126"/>
                        </Array>
                        <mxPoint x="110" y="154" as="sourcePoint"/>
                        <mxPoint x="110" y="126" as="targetPoint"/>
                    </mxGeometry>
                </mxCell>
                <mxCell id="sd89XL3OkmtZsm4qGdty-1" value="" style="shape=table;startSize=0;container=1;collapsible=0;childLayout=tableLayout;fontSize=12;swimlaneLine=0;" parent="1" vertex="1">
                    <mxGeometry x="670" y="10" width="470" height="360" as="geometry"/>
                </mxCell>
                <mxCell id="sd89XL3OkmtZsm4qGdty-2" value="" style="shape=tableRow;horizontal=0;startSize=0;swimlaneHead=0;swimlaneBody=0;strokeColor=inherit;top=0;left=0;bottom=0;right=0;collapsible=0;dropTarget=0;fillColor=none;points=[[0,0.5],[1,0.5]];portConstraint=eastwest;fontSize=16;" parent="sd89XL3OkmtZsm4qGdty-1" vertex="1">
                    <mxGeometry width="470" height="20" as="geometry"/>
                </mxCell>
                <mxCell id="sd89XL3OkmtZsm4qGdty-3" value="Abbreviation" style="shape=partialRectangle;html=1;whiteSpace=wrap;connectable=0;strokeColor=#0e8088;overflow=hidden;fillColor=#999999;top=0;left=0;bottom=0;right=0;pointerEvents=1;fontSize=12;" parent="sd89XL3OkmtZsm4qGdty-2" vertex="1">
                    <mxGeometry width="40" height="20" as="geometry">
                        <mxRectangle width="40" height="20" as="alternateBounds"/>
                    </mxGeometry>
                </mxCell>
                <mxCell id="sd89XL3OkmtZsm4qGdty-4" value="Activity Name" style="shape=partialRectangle;html=1;whiteSpace=wrap;connectable=0;strokeColor=#0e8088;overflow=hidden;fillColor=#999999;top=0;left=0;bottom=0;right=0;pointerEvents=1;fontSize=12;" parent="sd89XL3OkmtZsm4qGdty-2" vertex="1">
                    <mxGeometry x="40" width="210" height="20" as="geometry">
                        <mxRectangle width="210" height="20" as="alternateBounds"/>
                    </mxGeometry>
                </mxCell>
                <mxCell id="sd89XL3OkmtZsm4qGdty-5" value="Description" style="shape=partialRectangle;html=1;whiteSpace=wrap;connectable=0;strokeColor=#0e8088;overflow=hidden;fillColor=#999999;top=0;left=0;bottom=0;right=0;pointerEvents=1;fontSize=12;" parent="sd89XL3OkmtZsm4qGdty-2" vertex="1">
                    <mxGeometry x="250" width="220" height="20" as="geometry">
                        <mxRectangle width="220" height="20" as="alternateBounds"/>
                    </mxGeometry>
                </mxCell>
                <mxCell id="sd89XL3OkmtZsm4qGdty-6" value="" style="shape=tableRow;horizontal=0;startSize=0;swimlaneHead=0;swimlaneBody=0;strokeColor=inherit;top=0;left=0;bottom=0;right=0;collapsible=0;dropTarget=0;fillColor=none;points=[[0,0.5],[1,0.5]];portConstraint=eastwest;fontSize=16;" parent="sd89XL3OkmtZsm4qGdty-1" vertex="1">
                    <mxGeometry y="20" width="470" height="20" as="geometry"/>
                </mxCell>
                <mxCell id="sd89XL3OkmtZsm4qGdty-7" value="co" style="shape=partialRectangle;html=1;whiteSpace=wrap;connectable=0;strokeColor=inherit;overflow=hidden;fillColor=none;top=0;left=0;bottom=0;right=0;pointerEvents=1;fontSize=12;" parent="sd89XL3OkmtZsm4qGdty-6" vertex="1">
                    <mxGeometry width="40" height="20" as="geometry">
                        <mxRectangle width="40" height="20" as="alternateBounds"/>
                    </mxGeometry>
                </mxCell>
                <mxCell id="sd89XL3OkmtZsm4qGdty-8" value="commit" style="shape=partialRectangle;html=1;whiteSpace=wrap;connectable=0;strokeColor=inherit;overflow=hidden;fillColor=none;top=0;left=0;bottom=0;right=0;pointerEvents=1;fontSize=12;" parent="sd89XL3OkmtZsm4qGdty-6" vertex="1">
                    <mxGeometry x="40" width="210" height="20" as="geometry">
                        <mxRectangle width="210" height="20" as="alternateBounds"/>
                    </mxGeometry>
                </mxCell>
                <mxCell id="sd89XL3OkmtZsm4qGdty-9" value="" style="shape=partialRectangle;html=1;whiteSpace=wrap;connectable=0;strokeColor=inherit;overflow=hidden;fillColor=none;top=0;left=0;bottom=0;right=0;pointerEvents=1;fontSize=12;" parent="sd89XL3OkmtZsm4qGdty-6" vertex="1">
                    <mxGeometry x="250" width="220" height="20" as="geometry">
                        <mxRectangle width="220" height="20" as="alternateBounds"/>
                    </mxGeometry>
                </mxCell>
                <mxCell id="sd89XL3OkmtZsm4qGdty-10" value="" style="shape=tableRow;horizontal=0;startSize=0;swimlaneHead=0;swimlaneBody=0;strokeColor=inherit;top=0;left=0;bottom=0;right=0;collapsible=0;dropTarget=0;fillColor=none;points=[[0,0.5],[1,0.5]];portConstraint=eastwest;fontSize=16;" parent="sd89XL3OkmtZsm4qGdty-1" vertex="1">
                    <mxGeometry y="40" width="470" height="20" as="geometry"/>
                </mxCell>
                <mxCell id="sd89XL3OkmtZsm4qGdty-11" value="op-pr" style="shape=partialRectangle;html=1;whiteSpace=wrap;connectable=0;strokeColor=inherit;overflow=hidden;fillColor=none;top=0;left=0;bottom=0;right=0;pointerEvents=1;fontSize=12;" parent="sd89XL3OkmtZsm4qGdty-10" vertex="1">
                    <mxGeometry width="40" height="20" as="geometry">
                        <mxRectangle width="40" height="20" as="alternateBounds"/>
                    </mxGeometry>
                </mxCell>
                <mxCell id="sd89XL3OkmtZsm4qGdty-12" value="open pull request" style="shape=partialRectangle;html=1;whiteSpace=wrap;connectable=0;strokeColor=inherit;overflow=hidden;fillColor=none;top=0;left=0;bottom=0;right=0;pointerEvents=1;fontSize=12;" parent="sd89XL3OkmtZsm4qGdty-10" vertex="1">
                    <mxGeometry x="40" width="210" height="20" as="geometry">
                        <mxRectangle width="210" height="20" as="alternateBounds"/>
                    </mxGeometry>
                </mxCell>
                <mxCell id="sd89XL3OkmtZsm4qGdty-13" value="" style="shape=partialRectangle;html=1;whiteSpace=wrap;connectable=0;strokeColor=inherit;overflow=hidden;fillColor=none;top=0;left=0;bottom=0;right=0;pointerEvents=1;fontSize=12;" parent="sd89XL3OkmtZsm4qGdty-10" vertex="1">
                    <mxGeometry x="250" width="220" height="20" as="geometry">
                        <mxRectangle width="220" height="20" as="alternateBounds"/>
                    </mxGeometry>
                </mxCell>
                <mxCell id="sd89XL3OkmtZsm4qGdty-14" value="" style="shape=tableRow;horizontal=0;startSize=0;swimlaneHead=0;swimlaneBody=0;strokeColor=inherit;top=0;left=0;bottom=0;right=0;collapsible=0;dropTarget=0;fillColor=none;points=[[0,0.5],[1,0.5]];portConstraint=eastwest;fontSize=16;" parent="sd89XL3OkmtZsm4qGdty-1" vertex="1">
                    <mxGeometry y="60" width="470" height="20" as="geometry"/>
                </mxCell>
                <mxCell id="sd89XL3OkmtZsm4qGdty-15" value="cl-pr" style="shape=partialRectangle;html=1;whiteSpace=wrap;connectable=0;strokeColor=inherit;overflow=hidden;fillColor=none;top=0;left=0;bottom=0;right=0;pointerEvents=1;fontSize=12;" parent="sd89XL3OkmtZsm4qGdty-14" vertex="1">
                    <mxGeometry width="40" height="20" as="geometry">
                        <mxRectangle width="40" height="20" as="alternateBounds"/>
                    </mxGeometry>
                </mxCell>
                <mxCell id="sd89XL3OkmtZsm4qGdty-16" value="close pull request" style="shape=partialRectangle;html=1;whiteSpace=wrap;connectable=0;strokeColor=inherit;overflow=hidden;fillColor=none;top=0;left=0;bottom=0;right=0;pointerEvents=1;fontSize=12;" parent="sd89XL3OkmtZsm4qGdty-14" vertex="1">
                    <mxGeometry x="40" width="210" height="20" as="geometry">
                        <mxRectangle width="210" height="20" as="alternateBounds"/>
                    </mxGeometry>
                </mxCell>
                <mxCell id="sd89XL3OkmtZsm4qGdty-17" value="" style="shape=partialRectangle;html=1;whiteSpace=wrap;connectable=0;strokeColor=inherit;overflow=hidden;fillColor=none;top=0;left=0;bottom=0;right=0;pointerEvents=1;fontSize=12;" parent="sd89XL3OkmtZsm4qGdty-14" vertex="1">
                    <mxGeometry x="250" width="220" height="20" as="geometry">
                        <mxRectangle width="220" height="20" as="alternateBounds"/>
                    </mxGeometry>
                </mxCell>
                <mxCell id="sd89XL3OkmtZsm4qGdty-18" value="" style="shape=tableRow;horizontal=0;startSize=0;swimlaneHead=0;swimlaneBody=0;strokeColor=inherit;top=0;left=0;bottom=0;right=0;collapsible=0;dropTarget=0;fillColor=none;points=[[0,0.5],[1,0.5]];portConstraint=eastwest;fontSize=16;" parent="sd89XL3OkmtZsm4qGdty-1" vertex="1">
                    <mxGeometry y="80" width="470" height="20" as="geometry"/>
                </mxCell>
                <mxCell id="sd89XL3OkmtZsm4qGdty-19" value="me-pr" style="shape=partialRectangle;html=1;whiteSpace=wrap;connectable=0;strokeColor=inherit;overflow=hidden;fillColor=none;top=0;left=0;bottom=0;right=0;pointerEvents=1;fontSize=12;" parent="sd89XL3OkmtZsm4qGdty-18" vertex="1">
                    <mxGeometry width="40" height="20" as="geometry">
                        <mxRectangle width="40" height="20" as="alternateBounds"/>
                    </mxGeometry>
                </mxCell>
                <mxCell id="sd89XL3OkmtZsm4qGdty-20" value="merge pull request" style="shape=partialRectangle;html=1;whiteSpace=wrap;connectable=0;strokeColor=inherit;overflow=hidden;fillColor=none;top=0;left=0;bottom=0;right=0;pointerEvents=1;fontSize=12;" parent="sd89XL3OkmtZsm4qGdty-18" vertex="1">
                    <mxGeometry x="40" width="210" height="20" as="geometry">
                        <mxRectangle width="210" height="20" as="alternateBounds"/>
                    </mxGeometry>
                </mxCell>
                <mxCell id="sd89XL3OkmtZsm4qGdty-21" value="" style="shape=partialRectangle;html=1;whiteSpace=wrap;connectable=0;strokeColor=inherit;overflow=hidden;fillColor=none;top=0;left=0;bottom=0;right=0;pointerEvents=1;fontSize=12;" parent="sd89XL3OkmtZsm4qGdty-18" vertex="1">
                    <mxGeometry x="250" width="220" height="20" as="geometry">
                        <mxRectangle width="220" height="20" as="alternateBounds"/>
                    </mxGeometry>
                </mxCell>
                <mxCell id="sd89XL3OkmtZsm4qGdty-22" value="" style="shape=tableRow;horizontal=0;startSize=0;swimlaneHead=0;swimlaneBody=0;strokeColor=inherit;top=0;left=0;bottom=0;right=0;collapsible=0;dropTarget=0;fillColor=none;points=[[0,0.5],[1,0.5]];portConstraint=eastwest;fontSize=16;" parent="sd89XL3OkmtZsm4qGdty-1" vertex="1">
                    <mxGeometry y="100" width="470" height="20" as="geometry"/>
                </mxCell>
                <mxCell id="sd89XL3OkmtZsm4qGdty-23" value="ro-pr" style="shape=partialRectangle;html=1;whiteSpace=wrap;connectable=0;strokeColor=inherit;overflow=hidden;fillColor=none;top=0;left=0;bottom=0;right=0;pointerEvents=1;fontSize=12;" parent="sd89XL3OkmtZsm4qGdty-22" vertex="1">
                    <mxGeometry width="40" height="20" as="geometry">
                        <mxRectangle width="40" height="20" as="alternateBounds"/>
                    </mxGeometry>
                </mxCell>
                <mxCell id="sd89XL3OkmtZsm4qGdty-24" value="reopen pull request" style="shape=partialRectangle;html=1;whiteSpace=wrap;connectable=0;strokeColor=inherit;overflow=hidden;fillColor=none;top=0;left=0;bottom=0;right=0;pointerEvents=1;fontSize=12;" parent="sd89XL3OkmtZsm4qGdty-22" vertex="1">
                    <mxGeometry x="40" width="210" height="20" as="geometry">
                        <mxRectangle width="210" height="20" as="alternateBounds"/>
                    </mxGeometry>
                </mxCell>
                <mxCell id="sd89XL3OkmtZsm4qGdty-25" value="" style="shape=partialRectangle;html=1;whiteSpace=wrap;connectable=0;strokeColor=inherit;overflow=hidden;fillColor=none;top=0;left=0;bottom=0;right=0;pointerEvents=1;fontSize=12;" parent="sd89XL3OkmtZsm4qGdty-22" vertex="1">
                    <mxGeometry x="250" width="220" height="20" as="geometry">
                        <mxRectangle width="220" height="20" as="alternateBounds"/>
                    </mxGeometry>
                </mxCell>
                <mxCell id="sd89XL3OkmtZsm4qGdty-26" value="" style="shape=tableRow;horizontal=0;startSize=0;swimlaneHead=0;swimlaneBody=0;strokeColor=inherit;top=0;left=0;bottom=0;right=0;collapsible=0;dropTarget=0;fillColor=none;points=[[0,0.5],[1,0.5]];portConstraint=eastwest;fontSize=16;" parent="sd89XL3OkmtZsm4qGdty-1" vertex="1">
                    <mxGeometry y="120" width="470" height="20" as="geometry"/>
                </mxCell>
                <mxCell id="sd89XL3OkmtZsm4qGdty-27" value="rn-pr" style="shape=partialRectangle;html=1;whiteSpace=wrap;connectable=0;strokeColor=inherit;overflow=hidden;fillColor=none;top=0;left=0;bottom=0;right=0;pointerEvents=1;fontSize=12;" parent="sd89XL3OkmtZsm4qGdty-26" vertex="1">
                    <mxGeometry width="40" height="20" as="geometry">
                        <mxRectangle width="40" height="20" as="alternateBounds"/>
                    </mxGeometry>
                </mxCell>
                <mxCell id="sd89XL3OkmtZsm4qGdty-28" value="rename pull request" style="shape=partialRectangle;html=1;whiteSpace=wrap;connectable=0;strokeColor=inherit;overflow=hidden;fillColor=none;top=0;left=0;bottom=0;right=0;pointerEvents=1;fontSize=12;" parent="sd89XL3OkmtZsm4qGdty-26" vertex="1">
                    <mxGeometry x="40" width="210" height="20" as="geometry">
                        <mxRectangle width="210" height="20" as="alternateBounds"/>
                    </mxGeometry>
                </mxCell>
                <mxCell id="sd89XL3OkmtZsm4qGdty-29" value="" style="shape=partialRectangle;html=1;whiteSpace=wrap;connectable=0;strokeColor=inherit;overflow=hidden;fillColor=none;top=0;left=0;bottom=0;right=0;pointerEvents=1;fontSize=12;" parent="sd89XL3OkmtZsm4qGdty-26" vertex="1">
                    <mxGeometry x="250" width="220" height="20" as="geometry">
                        <mxRectangle width="220" height="20" as="alternateBounds"/>
                    </mxGeometry>
                </mxCell>
                <mxCell id="sd89XL3OkmtZsm4qGdty-30" value="" style="shape=tableRow;horizontal=0;startSize=0;swimlaneHead=0;swimlaneBody=0;strokeColor=inherit;top=0;left=0;bottom=0;right=0;collapsible=0;dropTarget=0;fillColor=none;points=[[0,0.5],[1,0.5]];portConstraint=eastwest;fontSize=16;" parent="sd89XL3OkmtZsm4qGdty-1" vertex="1">
                    <mxGeometry y="140" width="470" height="20" as="geometry"/>
                </mxCell>
                <mxCell id="sd89XL3OkmtZsm4qGdty-31" value="co-pr" style="shape=partialRectangle;html=1;whiteSpace=wrap;connectable=0;strokeColor=inherit;overflow=hidden;fillColor=none;top=0;left=0;bottom=0;right=0;pointerEvents=1;fontSize=12;" parent="sd89XL3OkmtZsm4qGdty-30" vertex="1">
                    <mxGeometry width="40" height="20" as="geometry">
                        <mxRectangle width="40" height="20" as="alternateBounds"/>
                    </mxGeometry>
                </mxCell>
                <mxCell id="sd89XL3OkmtZsm4qGdty-32" value="comment pull request" style="shape=partialRectangle;html=1;whiteSpace=wrap;connectable=0;strokeColor=inherit;overflow=hidden;fillColor=none;top=0;left=0;bottom=0;right=0;pointerEvents=1;fontSize=12;" parent="sd89XL3OkmtZsm4qGdty-30" vertex="1">
                    <mxGeometry x="40" width="210" height="20" as="geometry">
                        <mxRectangle width="210" height="20" as="alternateBounds"/>
                    </mxGeometry>
                </mxCell>
                <mxCell id="sd89XL3OkmtZsm4qGdty-33" value="" style="shape=partialRectangle;html=1;whiteSpace=wrap;connectable=0;strokeColor=inherit;overflow=hidden;fillColor=none;top=0;left=0;bottom=0;right=0;pointerEvents=1;fontSize=12;" parent="sd89XL3OkmtZsm4qGdty-30" vertex="1">
                    <mxGeometry x="250" width="220" height="20" as="geometry">
                        <mxRectangle width="220" height="20" as="alternateBounds"/>
                    </mxGeometry>
                </mxCell>
                <mxCell id="sd89XL3OkmtZsm4qGdty-34" value="" style="shape=tableRow;horizontal=0;startSize=0;swimlaneHead=0;swimlaneBody=0;strokeColor=inherit;top=0;left=0;bottom=0;right=0;collapsible=0;dropTarget=0;fillColor=none;points=[[0,0.5],[1,0.5]];portConstraint=eastwest;fontSize=16;" parent="sd89XL3OkmtZsm4qGdty-1" vertex="1">
                    <mxGeometry y="160" width="470" height="20" as="geometry"/>
                </mxCell>
                <mxCell id="sd89XL3OkmtZsm4qGdty-35" value="ad-l" style="shape=partialRectangle;html=1;whiteSpace=wrap;connectable=0;strokeColor=inherit;overflow=hidden;fillColor=none;top=0;left=0;bottom=0;right=0;pointerEvents=1;fontSize=12;" parent="sd89XL3OkmtZsm4qGdty-34" vertex="1">
                    <mxGeometry width="40" height="20" as="geometry">
                        <mxRectangle width="40" height="20" as="alternateBounds"/>
                    </mxGeometry>
                </mxCell>
                <mxCell id="sd89XL3OkmtZsm4qGdty-36" value="add label" style="shape=partialRectangle;html=1;whiteSpace=wrap;connectable=0;strokeColor=inherit;overflow=hidden;fillColor=none;top=0;left=0;bottom=0;right=0;pointerEvents=1;fontSize=12;" parent="sd89XL3OkmtZsm4qGdty-34" vertex="1">
                    <mxGeometry x="40" width="210" height="20" as="geometry">
                        <mxRectangle width="210" height="20" as="alternateBounds"/>
                    </mxGeometry>
                </mxCell>
                <mxCell id="sd89XL3OkmtZsm4qGdty-37" value="" style="shape=partialRectangle;html=1;whiteSpace=wrap;connectable=0;strokeColor=inherit;overflow=hidden;fillColor=none;top=0;left=0;bottom=0;right=0;pointerEvents=1;fontSize=12;" parent="sd89XL3OkmtZsm4qGdty-34" vertex="1">
                    <mxGeometry x="250" width="220" height="20" as="geometry">
                        <mxRectangle width="220" height="20" as="alternateBounds"/>
                    </mxGeometry>
                </mxCell>
                <mxCell id="sd89XL3OkmtZsm4qGdty-38" value="" style="shape=tableRow;horizontal=0;startSize=0;swimlaneHead=0;swimlaneBody=0;strokeColor=inherit;top=0;left=0;bottom=0;right=0;collapsible=0;dropTarget=0;fillColor=none;points=[[0,0.5],[1,0.5]];portConstraint=eastwest;fontSize=16;" parent="sd89XL3OkmtZsm4qGdty-1" vertex="1">
                    <mxGeometry y="180" width="470" height="20" as="geometry"/>
                </mxCell>
                <mxCell id="sd89XL3OkmtZsm4qGdty-39" value="re-l" style="shape=partialRectangle;html=1;whiteSpace=wrap;connectable=0;strokeColor=inherit;overflow=hidden;fillColor=none;top=0;left=0;bottom=0;right=0;pointerEvents=1;fontSize=12;" parent="sd89XL3OkmtZsm4qGdty-38" vertex="1">
                    <mxGeometry width="40" height="20" as="geometry">
                        <mxRectangle width="40" height="20" as="alternateBounds"/>
                    </mxGeometry>
                </mxCell>
                <mxCell id="sd89XL3OkmtZsm4qGdty-40" value="remove label" style="shape=partialRectangle;html=1;whiteSpace=wrap;connectable=0;strokeColor=inherit;overflow=hidden;fillColor=none;top=0;left=0;bottom=0;right=0;pointerEvents=1;fontSize=12;" parent="sd89XL3OkmtZsm4qGdty-38" vertex="1">
                    <mxGeometry x="40" width="210" height="20" as="geometry">
                        <mxRectangle width="210" height="20" as="alternateBounds"/>
                    </mxGeometry>
                </mxCell>
                <mxCell id="sd89XL3OkmtZsm4qGdty-41" value="" style="shape=partialRectangle;html=1;whiteSpace=wrap;connectable=0;strokeColor=inherit;overflow=hidden;fillColor=none;top=0;left=0;bottom=0;right=0;pointerEvents=1;fontSize=12;" parent="sd89XL3OkmtZsm4qGdty-38" vertex="1">
                    <mxGeometry x="250" width="220" height="20" as="geometry">
                        <mxRectangle width="220" height="20" as="alternateBounds"/>
                    </mxGeometry>
                </mxCell>
                <mxCell id="sd89XL3OkmtZsm4qGdty-42" value="" style="shape=tableRow;horizontal=0;startSize=0;swimlaneHead=0;swimlaneBody=0;strokeColor=inherit;top=0;left=0;bottom=0;right=0;collapsible=0;dropTarget=0;fillColor=none;points=[[0,0.5],[1,0.5]];portConstraint=eastwest;fontSize=16;" parent="sd89XL3OkmtZsm4qGdty-1" vertex="1">
                    <mxGeometry y="200" width="470" height="20" as="geometry"/>
                </mxCell>
                <mxCell id="sd89XL3OkmtZsm4qGdty-43" value="mr-r" style="shape=partialRectangle;html=1;whiteSpace=wrap;connectable=0;strokeColor=inherit;overflow=hidden;fillColor=none;top=0;left=0;bottom=0;right=0;pointerEvents=1;fontSize=12;" parent="sd89XL3OkmtZsm4qGdty-42" vertex="1">
                    <mxGeometry width="40" height="20" as="geometry">
                        <mxRectangle width="40" height="20" as="alternateBounds"/>
                    </mxGeometry>
                </mxCell>
                <mxCell id="sd89XL3OkmtZsm4qGdty-44" value="mark ready for review" style="shape=partialRectangle;html=1;whiteSpace=wrap;connectable=0;strokeColor=inherit;overflow=hidden;fillColor=none;top=0;left=0;bottom=0;right=0;pointerEvents=1;fontSize=12;" parent="sd89XL3OkmtZsm4qGdty-42" vertex="1">
                    <mxGeometry x="40" width="210" height="20" as="geometry">
                        <mxRectangle width="210" height="20" as="alternateBounds"/>
                    </mxGeometry>
                </mxCell>
                <mxCell id="sd89XL3OkmtZsm4qGdty-45" value="" style="shape=partialRectangle;html=1;whiteSpace=wrap;connectable=0;strokeColor=inherit;overflow=hidden;fillColor=none;top=0;left=0;bottom=0;right=0;pointerEvents=1;fontSize=12;" parent="sd89XL3OkmtZsm4qGdty-42" vertex="1">
                    <mxGeometry x="250" width="220" height="20" as="geometry">
                        <mxRectangle width="220" height="20" as="alternateBounds"/>
                    </mxGeometry>
                </mxCell>
                <mxCell id="sd89XL3OkmtZsm4qGdty-46" value="" style="shape=tableRow;horizontal=0;startSize=0;swimlaneHead=0;swimlaneBody=0;strokeColor=inherit;top=0;left=0;bottom=0;right=0;collapsible=0;dropTarget=0;fillColor=none;points=[[0,0.5],[1,0.5]];portConstraint=eastwest;fontSize=16;" parent="sd89XL3OkmtZsm4qGdty-1" vertex="1">
                    <mxGeometry y="220" width="470" height="20" as="geometry"/>
                </mxCell>
                <mxCell id="sd89XL3OkmtZsm4qGdty-47" value="rq-r" style="shape=partialRectangle;html=1;whiteSpace=wrap;connectable=0;strokeColor=inherit;overflow=hidden;fillColor=none;top=0;left=0;bottom=0;right=0;pointerEvents=1;fontSize=12;" parent="sd89XL3OkmtZsm4qGdty-46" vertex="1">
                    <mxGeometry width="40" height="20" as="geometry">
                        <mxRectangle width="40" height="20" as="alternateBounds"/>
                    </mxGeometry>
                </mxCell>
                <mxCell id="sd89XL3OkmtZsm4qGdty-48" value="request review" style="shape=partialRectangle;html=1;whiteSpace=wrap;connectable=0;strokeColor=inherit;overflow=hidden;fillColor=none;top=0;left=0;bottom=0;right=0;pointerEvents=1;fontSize=12;" parent="sd89XL3OkmtZsm4qGdty-46" vertex="1">
                    <mxGeometry x="40" width="210" height="20" as="geometry">
                        <mxRectangle width="210" height="20" as="alternateBounds"/>
                    </mxGeometry>
                </mxCell>
                <mxCell id="sd89XL3OkmtZsm4qGdty-49" value="" style="shape=partialRectangle;html=1;whiteSpace=wrap;connectable=0;strokeColor=inherit;overflow=hidden;fillColor=none;top=0;left=0;bottom=0;right=0;pointerEvents=1;fontSize=12;" parent="sd89XL3OkmtZsm4qGdty-46" vertex="1">
                    <mxGeometry x="250" width="220" height="20" as="geometry">
                        <mxRectangle width="220" height="20" as="alternateBounds"/>
                    </mxGeometry>
                </mxCell>
                <mxCell id="sd89XL3OkmtZsm4qGdty-50" value="" style="shape=tableRow;horizontal=0;startSize=0;swimlaneHead=0;swimlaneBody=0;strokeColor=inherit;top=0;left=0;bottom=0;right=0;collapsible=0;dropTarget=0;fillColor=none;points=[[0,0.5],[1,0.5]];portConstraint=eastwest;fontSize=16;" parent="sd89XL3OkmtZsm4qGdty-1" vertex="1">
                    <mxGeometry y="240" width="470" height="20" as="geometry"/>
                </mxCell>
                <mxCell id="sd89XL3OkmtZsm4qGdty-51" value="dr-r" style="shape=partialRectangle;html=1;whiteSpace=wrap;connectable=0;strokeColor=inherit;overflow=hidden;fillColor=none;top=0;left=0;bottom=0;right=0;pointerEvents=1;fontSize=12;" parent="sd89XL3OkmtZsm4qGdty-50" vertex="1">
                    <mxGeometry width="40" height="20" as="geometry">
                        <mxRectangle width="40" height="20" as="alternateBounds"/>
                    </mxGeometry>
                </mxCell>
                <mxCell id="sd89XL3OkmtZsm4qGdty-52" value="dismiss requested review" style="shape=partialRectangle;html=1;whiteSpace=wrap;connectable=0;strokeColor=inherit;overflow=hidden;fillColor=none;top=0;left=0;bottom=0;right=0;pointerEvents=1;fontSize=12;" parent="sd89XL3OkmtZsm4qGdty-50" vertex="1">
                    <mxGeometry x="40" width="210" height="20" as="geometry">
                        <mxRectangle width="210" height="20" as="alternateBounds"/>
                    </mxGeometry>
                </mxCell>
                <mxCell id="sd89XL3OkmtZsm4qGdty-53" value="" style="shape=partialRectangle;html=1;whiteSpace=wrap;connectable=0;strokeColor=inherit;overflow=hidden;fillColor=none;top=0;left=0;bottom=0;right=0;pointerEvents=1;fontSize=12;" parent="sd89XL3OkmtZsm4qGdty-50" vertex="1">
                    <mxGeometry x="250" width="220" height="20" as="geometry">
                        <mxRectangle width="220" height="20" as="alternateBounds"/>
                    </mxGeometry>
                </mxCell>
                <mxCell id="sd89XL3OkmtZsm4qGdty-54" value="" style="shape=tableRow;horizontal=0;startSize=0;swimlaneHead=0;swimlaneBody=0;strokeColor=inherit;top=0;left=0;bottom=0;right=0;collapsible=0;dropTarget=0;fillColor=none;points=[[0,0.5],[1,0.5]];portConstraint=eastwest;fontSize=16;" parent="sd89XL3OkmtZsm4qGdty-1" vertex="1">
                    <mxGeometry y="260" width="470" height="20" as="geometry"/>
                </mxCell>
                <mxCell id="sd89XL3OkmtZsm4qGdty-55" value="ap-r" style="shape=partialRectangle;html=1;whiteSpace=wrap;connectable=0;strokeColor=inherit;overflow=hidden;fillColor=none;top=0;left=0;bottom=0;right=0;pointerEvents=1;fontSize=12;" parent="sd89XL3OkmtZsm4qGdty-54" vertex="1">
                    <mxGeometry width="40" height="20" as="geometry">
                        <mxRectangle width="40" height="20" as="alternateBounds"/>
                    </mxGeometry>
                </mxCell>
                <mxCell id="sd89XL3OkmtZsm4qGdty-56" value="approve review" style="shape=partialRectangle;html=1;whiteSpace=wrap;connectable=0;strokeColor=inherit;overflow=hidden;fillColor=none;top=0;left=0;bottom=0;right=0;pointerEvents=1;fontSize=12;" parent="sd89XL3OkmtZsm4qGdty-54" vertex="1">
                    <mxGeometry x="40" width="210" height="20" as="geometry">
                        <mxRectangle width="210" height="20" as="alternateBounds"/>
                    </mxGeometry>
                </mxCell>
                <mxCell id="sd89XL3OkmtZsm4qGdty-57" value="" style="shape=partialRectangle;html=1;whiteSpace=wrap;connectable=0;strokeColor=inherit;overflow=hidden;fillColor=none;top=0;left=0;bottom=0;right=0;pointerEvents=1;fontSize=12;" parent="sd89XL3OkmtZsm4qGdty-54" vertex="1">
                    <mxGeometry x="250" width="220" height="20" as="geometry">
                        <mxRectangle width="220" height="20" as="alternateBounds"/>
                    </mxGeometry>
                </mxCell>
                <mxCell id="sd89XL3OkmtZsm4qGdty-58" value="request-by: User" style="text;strokeColor=#23445d;fillColor=#bac8d3;align=left;verticalAlign=middle;spacingLeft=4;spacingRight=4;overflow=hidden;points=[[0,0.5],[1,0.5]];portConstraint=eastwest;rotatable=0;whiteSpace=wrap;html=1;" parent="sd89XL3OkmtZsm4qGdty-54" vertex="1">
                    <mxGeometry x="470" height="20" as="geometry">
                        <mxRectangle width="NaN" height="20" as="alternateBounds"/>
                    </mxGeometry>
                </mxCell>
                <mxCell id="sd89XL3OkmtZsm4qGdty-59" value="" style="shape=tableRow;horizontal=0;startSize=0;swimlaneHead=0;swimlaneBody=0;strokeColor=inherit;top=0;left=0;bottom=0;right=0;collapsible=0;dropTarget=0;fillColor=none;points=[[0,0.5],[1,0.5]];portConstraint=eastwest;fontSize=16;" parent="sd89XL3OkmtZsm4qGdty-1" vertex="1">
                    <mxGeometry y="280" width="470" height="20" as="geometry"/>
                </mxCell>
                <mxCell id="sd89XL3OkmtZsm4qGdty-60" value="di-r" style="shape=partialRectangle;html=1;whiteSpace=wrap;connectable=0;strokeColor=inherit;overflow=hidden;fillColor=none;top=0;left=0;bottom=0;right=0;pointerEvents=1;fontSize=12;" parent="sd89XL3OkmtZsm4qGdty-59" vertex="1">
                    <mxGeometry width="40" height="20" as="geometry">
                        <mxRectangle width="40" height="20" as="alternateBounds"/>
                    </mxGeometry>
                </mxCell>
                <mxCell id="sd89XL3OkmtZsm4qGdty-61" value="dismiss review" style="shape=partialRectangle;html=1;whiteSpace=wrap;connectable=0;strokeColor=inherit;overflow=hidden;fillColor=none;top=0;left=0;bottom=0;right=0;pointerEvents=1;fontSize=12;" parent="sd89XL3OkmtZsm4qGdty-59" vertex="1">
                    <mxGeometry x="40" width="210" height="20" as="geometry">
                        <mxRectangle width="210" height="20" as="alternateBounds"/>
                    </mxGeometry>
                </mxCell>
                <mxCell id="sd89XL3OkmtZsm4qGdty-62" value="" style="shape=partialRectangle;html=1;whiteSpace=wrap;connectable=0;strokeColor=inherit;overflow=hidden;fillColor=none;top=0;left=0;bottom=0;right=0;pointerEvents=1;fontSize=12;" parent="sd89XL3OkmtZsm4qGdty-59" vertex="1">
                    <mxGeometry x="250" width="220" height="20" as="geometry">
                        <mxRectangle width="220" height="20" as="alternateBounds"/>
                    </mxGeometry>
                </mxCell>
                <mxCell id="sd89XL3OkmtZsm4qGdty-63" value="" style="shape=tableRow;horizontal=0;startSize=0;swimlaneHead=0;swimlaneBody=0;strokeColor=inherit;top=0;left=0;bottom=0;right=0;collapsible=0;dropTarget=0;fillColor=none;points=[[0,0.5],[1,0.5]];portConstraint=eastwest;fontSize=16;" parent="sd89XL3OkmtZsm4qGdty-1" vertex="1">
                    <mxGeometry y="300" width="470" height="20" as="geometry"/>
                </mxCell>
                <mxCell id="sd89XL3OkmtZsm4qGdty-64" value="ch-r" style="shape=partialRectangle;html=1;whiteSpace=wrap;connectable=0;strokeColor=inherit;overflow=hidden;fillColor=none;top=0;left=0;bottom=0;right=0;pointerEvents=1;fontSize=12;" parent="sd89XL3OkmtZsm4qGdty-63" vertex="1">
                    <mxGeometry width="40" height="20" as="geometry">
                        <mxRectangle width="40" height="20" as="alternateBounds"/>
                    </mxGeometry>
                </mxCell>
                <mxCell id="sd89XL3OkmtZsm4qGdty-65" value="suggest changes&amp;nbsp;" style="shape=partialRectangle;html=1;whiteSpace=wrap;connectable=0;strokeColor=inherit;overflow=hidden;fillColor=none;top=0;left=0;bottom=0;right=0;pointerEvents=1;fontSize=12;" parent="sd89XL3OkmtZsm4qGdty-63" vertex="1">
                    <mxGeometry x="40" width="210" height="20" as="geometry">
                        <mxRectangle width="210" height="20" as="alternateBounds"/>
                    </mxGeometry>
                </mxCell>
                <mxCell id="sd89XL3OkmtZsm4qGdty-66" value="" style="shape=partialRectangle;html=1;whiteSpace=wrap;connectable=0;strokeColor=inherit;overflow=hidden;fillColor=none;top=0;left=0;bottom=0;right=0;pointerEvents=1;fontSize=12;" parent="sd89XL3OkmtZsm4qGdty-63" vertex="1">
                    <mxGeometry x="250" width="220" height="20" as="geometry">
                        <mxRectangle width="220" height="20" as="alternateBounds"/>
                    </mxGeometry>
                </mxCell>
                <mxCell id="sd89XL3OkmtZsm4qGdty-67" value="request-by: User" style="text;strokeColor=#23445d;fillColor=#bac8d3;align=left;verticalAlign=middle;spacingLeft=4;spacingRight=4;overflow=hidden;points=[[0,0.5],[1,0.5]];portConstraint=eastwest;rotatable=0;whiteSpace=wrap;html=1;" parent="sd89XL3OkmtZsm4qGdty-63" vertex="1">
                    <mxGeometry x="470" height="20" as="geometry">
                        <mxRectangle width="NaN" height="20" as="alternateBounds"/>
                    </mxGeometry>
                </mxCell>
                <mxCell id="sd89XL3OkmtZsm4qGdty-68" value="" style="shape=tableRow;horizontal=0;startSize=0;swimlaneHead=0;swimlaneBody=0;strokeColor=inherit;top=0;left=0;bottom=0;right=0;collapsible=0;dropTarget=0;fillColor=none;points=[[0,0.5],[1,0.5]];portConstraint=eastwest;fontSize=16;" parent="sd89XL3OkmtZsm4qGdty-1" vertex="1">
                    <mxGeometry y="320" width="470" height="20" as="geometry"/>
                </mxCell>
                <mxCell id="sd89XL3OkmtZsm4qGdty-69" value="co-r" style="shape=partialRectangle;html=1;whiteSpace=wrap;connectable=0;strokeColor=inherit;overflow=hidden;fillColor=none;top=0;left=0;bottom=0;right=0;pointerEvents=1;fontSize=12;" parent="sd89XL3OkmtZsm4qGdty-68" vertex="1">
                    <mxGeometry width="40" height="20" as="geometry">
                        <mxRectangle width="40" height="20" as="alternateBounds"/>
                    </mxGeometry>
                </mxCell>
                <mxCell id="sd89XL3OkmtZsm4qGdty-70" value="comment review" style="shape=partialRectangle;html=1;whiteSpace=wrap;connectable=0;strokeColor=inherit;overflow=hidden;fillColor=none;top=0;left=0;bottom=0;right=0;pointerEvents=1;fontSize=12;" parent="sd89XL3OkmtZsm4qGdty-68" vertex="1">
                    <mxGeometry x="40" width="210" height="20" as="geometry">
                        <mxRectangle width="210" height="20" as="alternateBounds"/>
                    </mxGeometry>
                </mxCell>
                <mxCell id="sd89XL3OkmtZsm4qGdty-71" value="" style="shape=partialRectangle;html=1;whiteSpace=wrap;connectable=0;strokeColor=inherit;overflow=hidden;fillColor=none;top=0;left=0;bottom=0;right=0;pointerEvents=1;fontSize=12;" parent="sd89XL3OkmtZsm4qGdty-68" vertex="1">
                    <mxGeometry x="250" width="220" height="20" as="geometry">
                        <mxRectangle width="220" height="20" as="alternateBounds"/>
                    </mxGeometry>
                </mxCell>
                <mxCell id="sd89XL3OkmtZsm4qGdty-72" value="" style="shape=tableRow;horizontal=0;startSize=0;swimlaneHead=0;swimlaneBody=0;strokeColor=inherit;top=0;left=0;bottom=0;right=0;collapsible=0;dropTarget=0;fillColor=none;points=[[0,0.5],[1,0.5]];portConstraint=eastwest;fontSize=16;" parent="sd89XL3OkmtZsm4qGdty-1" vertex="1">
                    <mxGeometry y="340" width="470" height="20" as="geometry"/>
                </mxCell>
                <mxCell id="sd89XL3OkmtZsm4qGdty-73" value="ch-f" style="shape=partialRectangle;html=1;whiteSpace=wrap;connectable=0;strokeColor=inherit;overflow=hidden;fillColor=none;top=0;left=0;bottom=0;right=0;pointerEvents=1;fontSize=12;align=center;verticalAlign=middle;fontFamily=Helvetica;fontColor=default;" parent="sd89XL3OkmtZsm4qGdty-72" vertex="1">
                    <mxGeometry width="40" height="20" as="geometry">
                        <mxRectangle width="40" height="20" as="alternateBounds"/>
                    </mxGeometry>
                </mxCell>
                <mxCell id="sd89XL3OkmtZsm4qGdty-74" value="change file" style="shape=partialRectangle;html=1;whiteSpace=wrap;connectable=0;strokeColor=inherit;overflow=hidden;fillColor=none;top=0;left=0;bottom=0;right=0;pointerEvents=1;fontSize=12;align=center;verticalAlign=middle;fontFamily=Helvetica;fontColor=default;" parent="sd89XL3OkmtZsm4qGdty-72" vertex="1">
                    <mxGeometry x="40" width="210" height="20" as="geometry">
                        <mxRectangle width="210" height="20" as="alternateBounds"/>
                    </mxGeometry>
                </mxCell>
                <mxCell id="sd89XL3OkmtZsm4qGdty-75" value="part of commit" style="shape=partialRectangle;html=1;whiteSpace=wrap;connectable=0;strokeColor=inherit;overflow=hidden;fillColor=none;top=0;left=0;bottom=0;right=0;pointerEvents=1;fontSize=12;align=center;verticalAlign=middle;fontFamily=Helvetica;fontColor=default;" parent="sd89XL3OkmtZsm4qGdty-72" vertex="1">
                    <mxGeometry x="250" width="220" height="20" as="geometry">
                        <mxRectangle width="220" height="20" as="alternateBounds"/>
                    </mxGeometry>
                </mxCell>
                <mxCell id="Fuc5miLtpaoBp8aGmht8-1" style="edgeStyle=none;html=1;" edge="1" parent="1" source="Fuc5miLtpaoBp8aGmht8-6" target="Fuc5miLtpaoBp8aGmht8-8">
                    <mxGeometry relative="1" as="geometry"/>
                </mxCell>
                <mxCell id="Fuc5miLtpaoBp8aGmht8-2" style="edgeStyle=none;html=1;" edge="1" parent="1" source="Fuc5miLtpaoBp8aGmht8-6" target="Fuc5miLtpaoBp8aGmht8-12">
                    <mxGeometry relative="1" as="geometry"/>
                </mxCell>
                <mxCell id="Fuc5miLtpaoBp8aGmht8-3" style="edgeStyle=none;html=1;" edge="1" parent="1" source="Fuc5miLtpaoBp8aGmht8-6" target="Fuc5miLtpaoBp8aGmht8-10">
                    <mxGeometry relative="1" as="geometry"/>
                </mxCell>
                <mxCell id="Fuc5miLtpaoBp8aGmht8-4" style="edgeStyle=none;html=1;" edge="1" parent="1" source="Fuc5miLtpaoBp8aGmht8-6" target="Fuc5miLtpaoBp8aGmht8-22">
                    <mxGeometry relative="1" as="geometry">
                        <mxPoint x="650.9757280900009" y="1082.1114561800018" as="targetPoint"/>
                    </mxGeometry>
                </mxCell>
                <mxCell id="Fuc5miLtpaoBp8aGmht8-5" style="edgeStyle=none;html=1;" edge="1" parent="1" source="Fuc5miLtpaoBp8aGmht8-6" target="Fuc5miLtpaoBp8aGmht8-24">
                    <mxGeometry relative="1" as="geometry">
                        <mxPoint x="723.2789941132561" y="1088.905996075504" as="targetPoint"/>
                    </mxGeometry>
                </mxCell>
                <mxCell id="Fuc5miLtpaoBp8aGmht8-6" value="rq-r" style="ellipse;whiteSpace=wrap;html=1;aspect=fixed;" vertex="1" parent="1">
                    <mxGeometry x="599.92" y="1080" width="40" height="40" as="geometry"/>
                </mxCell>
                <mxCell id="Fuc5miLtpaoBp8aGmht8-7" style="edgeStyle=elbowEdgeStyle;html=1;elbow=vertical;" edge="1" parent="1" source="Fuc5miLtpaoBp8aGmht8-8" target="Fuc5miLtpaoBp8aGmht8-6">
                    <mxGeometry relative="1" as="geometry">
                        <Array as="points">
                            <mxPoint x="579.92" y="1060"/>
                        </Array>
                    </mxGeometry>
                </mxCell>
                <mxCell id="Fuc5miLtpaoBp8aGmht8-8" value="dr-r" style="ellipse;whiteSpace=wrap;html=1;aspect=fixed;" vertex="1" parent="1">
                    <mxGeometry x="519.92" y="1080" width="40" height="40" as="geometry"/>
                </mxCell>
                <mxCell id="Fuc5miLtpaoBp8aGmht8-9" style="edgeStyle=orthogonalEdgeStyle;html=1;" edge="1" parent="1" source="Fuc5miLtpaoBp8aGmht8-10" target="Fuc5miLtpaoBp8aGmht8-16">
                    <mxGeometry relative="1" as="geometry">
                        <Array as="points">
                            <mxPoint x="539.92" y="1220"/>
                            <mxPoint x="419.91999999999996" y="1220"/>
                            <mxPoint x="419.91999999999996" y="940"/>
                        </Array>
                    </mxGeometry>
                </mxCell>
                <mxCell id="Fuc5miLtpaoBp8aGmht8-10" value="co-r" style="ellipse;whiteSpace=wrap;html=1;aspect=fixed;" vertex="1" parent="1">
                    <mxGeometry x="519.92" y="1160" width="40" height="40" as="geometry"/>
                </mxCell>
                <mxCell id="Fuc5miLtpaoBp8aGmht8-11" style="edgeStyle=orthogonalEdgeStyle;html=1;" edge="1" parent="1" source="Fuc5miLtpaoBp8aGmht8-12" target="Fuc5miLtpaoBp8aGmht8-16">
                    <mxGeometry relative="1" as="geometry">
                        <Array as="points">
                            <mxPoint x="459.91999999999996" y="940"/>
                        </Array>
                    </mxGeometry>
                </mxCell>
                <mxCell id="Fuc5miLtpaoBp8aGmht8-12" value="ch-r" style="ellipse;whiteSpace=wrap;html=1;aspect=fixed;" vertex="1" parent="1">
                    <mxGeometry x="439.91999999999996" y="1160" width="40" height="40" as="geometry"/>
                </mxCell>
                <mxCell id="Fuc5miLtpaoBp8aGmht8-13" style="edgeStyle=none;html=1;" edge="1" parent="1" source="Fuc5miLtpaoBp8aGmht8-29" target="Fuc5miLtpaoBp8aGmht8-16">
                    <mxGeometry relative="1" as="geometry"/>
                </mxCell>
                <mxCell id="Fuc5miLtpaoBp8aGmht8-14" style="edgeStyle=none;html=1;" edge="1" parent="1" source="Fuc5miLtpaoBp8aGmht8-32" target="Fuc5miLtpaoBp8aGmht8-6">
                    <mxGeometry relative="1" as="geometry"/>
                </mxCell>
                <mxCell id="Fuc5miLtpaoBp8aGmht8-15" style="edgeStyle=none;html=1;" edge="1" parent="1" source="Fuc5miLtpaoBp8aGmht8-16" target="Fuc5miLtpaoBp8aGmht8-32">
                    <mxGeometry relative="1" as="geometry">
                        <mxPoint x="679.92" y="1000" as="targetPoint"/>
                    </mxGeometry>
                </mxCell>
                <mxCell id="Fuc5miLtpaoBp8aGmht8-16" value="co" style="ellipse;whiteSpace=wrap;html=1;aspect=fixed;" vertex="1" parent="1">
                    <mxGeometry x="599.92" y="920" width="40" height="40" as="geometry"/>
                </mxCell>
                <mxCell id="Fuc5miLtpaoBp8aGmht8-17" style="edgeStyle=none;html=1;" edge="1" parent="1" source="Fuc5miLtpaoBp8aGmht8-18" target="Fuc5miLtpaoBp8aGmht8-20">
                    <mxGeometry relative="1" as="geometry"/>
                </mxCell>
                <mxCell id="Fuc5miLtpaoBp8aGmht8-135" style="edgeStyle=none;html=1;" edge="1" parent="1" source="Fuc5miLtpaoBp8aGmht8-18" target="Fuc5miLtpaoBp8aGmht8-37">
                    <mxGeometry relative="1" as="geometry"/>
                </mxCell>
                <mxCell id="Fuc5miLtpaoBp8aGmht8-18" value="me-pr" style="ellipse;whiteSpace=wrap;html=1;aspect=fixed;" vertex="1" parent="1">
                    <mxGeometry x="679.92" y="1360" width="40" height="40" as="geometry"/>
                </mxCell>
                <mxCell id="Fuc5miLtpaoBp8aGmht8-19" style="edgeStyle=none;html=1;" edge="1" parent="1" source="Fuc5miLtpaoBp8aGmht8-20">
                    <mxGeometry relative="1" as="geometry">
                        <mxPoint x="619.92" y="1520" as="targetPoint"/>
                    </mxGeometry>
                </mxCell>
                <mxCell id="Fuc5miLtpaoBp8aGmht8-137" style="edgeStyle=none;html=1;" edge="1" parent="1" source="Fuc5miLtpaoBp8aGmht8-20" target="Fuc5miLtpaoBp8aGmht8-123">
                    <mxGeometry relative="1" as="geometry"/>
                </mxCell>
                <mxCell id="Fuc5miLtpaoBp8aGmht8-138" style="edgeStyle=none;html=1;" edge="1" parent="1" source="Fuc5miLtpaoBp8aGmht8-20" target="Fuc5miLtpaoBp8aGmht8-127">
                    <mxGeometry relative="1" as="geometry"/>
                </mxCell>
                <mxCell id="Fuc5miLtpaoBp8aGmht8-139" style="edgeStyle=none;html=1;" edge="1" parent="1" source="Fuc5miLtpaoBp8aGmht8-20" target="Fuc5miLtpaoBp8aGmht8-121">
                    <mxGeometry relative="1" as="geometry"/>
                </mxCell>
                <mxCell id="Fuc5miLtpaoBp8aGmht8-20" value="cl-pr" style="ellipse;whiteSpace=wrap;html=1;aspect=fixed;" vertex="1" parent="1">
                    <mxGeometry x="599.92" y="1360" width="40" height="40" as="geometry"/>
                </mxCell>
                <mxCell id="Fuc5miLtpaoBp8aGmht8-21" style="edgeStyle=none;html=1;" edge="1" parent="1" source="Fuc5miLtpaoBp8aGmht8-22" target="Fuc5miLtpaoBp8aGmht8-20">
                    <mxGeometry relative="1" as="geometry"/>
                </mxCell>
                <mxCell id="Fuc5miLtpaoBp8aGmht8-22" value="di-r" style="ellipse;whiteSpace=wrap;html=1;aspect=fixed;" vertex="1" parent="1">
                    <mxGeometry x="599.92" y="1160" width="40" height="40" as="geometry"/>
                </mxCell>
                <mxCell id="Fuc5miLtpaoBp8aGmht8-23" style="edgeStyle=none;html=1;" edge="1" parent="1" source="Fuc5miLtpaoBp8aGmht8-24" target="Fuc5miLtpaoBp8aGmht8-18">
                    <mxGeometry relative="1" as="geometry"/>
                </mxCell>
                <mxCell id="Fuc5miLtpaoBp8aGmht8-24" value="ap-r" style="ellipse;whiteSpace=wrap;html=1;aspect=fixed;" vertex="1" parent="1">
                    <mxGeometry x="679.92" y="1160" width="40" height="40" as="geometry"/>
                </mxCell>
                <mxCell id="Fuc5miLtpaoBp8aGmht8-25" value="" style="group" vertex="1" connectable="0" parent="1">
                    <mxGeometry x="599.92" y="1520" width="40" height="40" as="geometry"/>
                </mxCell>
                <mxCell id="Fuc5miLtpaoBp8aGmht8-26" value="" style="ellipse;whiteSpace=wrap;html=1;aspect=fixed;fillColor=#e1d5e7;strokeColor=#9673a6;" vertex="1" parent="Fuc5miLtpaoBp8aGmht8-25">
                    <mxGeometry width="40" height="40" as="geometry"/>
                </mxCell>
                <mxCell id="Fuc5miLtpaoBp8aGmht8-27" value="" style="whiteSpace=wrap;html=1;aspect=fixed;strokeColor=none;" vertex="1" parent="Fuc5miLtpaoBp8aGmht8-25">
                    <mxGeometry x="12" y="12" width="16" height="16" as="geometry"/>
                </mxCell>
                <mxCell id="Fuc5miLtpaoBp8aGmht8-28" value="" style="group" vertex="1" connectable="0" parent="1">
                    <mxGeometry x="599.92" y="840" width="40" height="40" as="geometry"/>
                </mxCell>
                <mxCell id="Fuc5miLtpaoBp8aGmht8-29" value="" style="ellipse;whiteSpace=wrap;html=1;aspect=fixed;fillColor=#e1d5e7;strokeColor=#9673a6;" vertex="1" parent="Fuc5miLtpaoBp8aGmht8-28">
                    <mxGeometry width="40" height="40" as="geometry"/>
                </mxCell>
                <mxCell id="Fuc5miLtpaoBp8aGmht8-30" value="" style="triangle;whiteSpace=wrap;html=1;strokeColor=none;" vertex="1" parent="Fuc5miLtpaoBp8aGmht8-28">
                    <mxGeometry x="14" y="10" width="16" height="20" as="geometry"/>
                </mxCell>
                <mxCell id="Fuc5miLtpaoBp8aGmht8-31" value="" style="edgeStyle=none;html=1;" edge="1" parent="1" source="Fuc5miLtpaoBp8aGmht8-16" target="Fuc5miLtpaoBp8aGmht8-108">
                    <mxGeometry relative="1" as="geometry">
                        <mxPoint x="619.92" y="960" as="sourcePoint"/>
                        <mxPoint x="619.92" y="1080" as="targetPoint"/>
                    </mxGeometry>
                </mxCell>
                <mxCell id="Fuc5miLtpaoBp8aGmht8-32" value="mr-r" style="ellipse;whiteSpace=wrap;html=1;aspect=fixed;" vertex="1" parent="1">
                    <mxGeometry x="599.92" y="1000" width="40" height="40" as="geometry"/>
                </mxCell>
                <mxCell id="Fuc5miLtpaoBp8aGmht8-33" style="edgeStyle=orthogonalEdgeStyle;html=1;rounded=1;curved=1;entryX=1;entryY=0;entryDx=0;entryDy=0;exitX=1;exitY=1;exitDx=0;exitDy=0;" edge="1" parent="1" source="Fuc5miLtpaoBp8aGmht8-16" target="Fuc5miLtpaoBp8aGmht8-16">
                    <mxGeometry relative="1" as="geometry">
                        <Array as="points">
                            <mxPoint x="659.92" y="954"/>
                            <mxPoint x="659.92" y="926"/>
                        </Array>
                        <mxPoint x="629.92" y="954" as="sourcePoint"/>
                        <mxPoint x="629.92" y="926" as="targetPoint"/>
                    </mxGeometry>
                </mxCell>
                <mxCell id="Fuc5miLtpaoBp8aGmht8-34" style="edgeStyle=none;html=1;" edge="1" source="Fuc5miLtpaoBp8aGmht8-35" target="Fuc5miLtpaoBp8aGmht8-44" parent="1">
                    <mxGeometry relative="1" as="geometry"/>
                </mxCell>
                <mxCell id="Fuc5miLtpaoBp8aGmht8-35" value="" style="ellipse;whiteSpace=wrap;html=1;aspect=fixed;fillColor=#fff2cc;strokeColor=#d6b656;" vertex="1" parent="1">
                    <mxGeometry x="840" y="842" width="40" height="40" as="geometry"/>
                </mxCell>
                <mxCell id="Fuc5miLtpaoBp8aGmht8-36" value="" style="triangle;whiteSpace=wrap;html=1;strokeColor=none;" vertex="1" parent="1">
                    <mxGeometry x="850" y="852" width="20" height="20" as="geometry"/>
                </mxCell>
                <mxCell id="Fuc5miLtpaoBp8aGmht8-37" value="" style="ellipse;whiteSpace=wrap;html=1;aspect=fixed;fillColor=#fff2cc;strokeColor=#d6b656;" vertex="1" parent="1">
                    <mxGeometry x="840" y="1520" width="40" height="40" as="geometry"/>
                </mxCell>
                <mxCell id="Fuc5miLtpaoBp8aGmht8-38" value="" style="whiteSpace=wrap;html=1;aspect=fixed;strokeColor=none;" vertex="1" parent="1">
                    <mxGeometry x="852" y="1532" width="16" height="16" as="geometry"/>
                </mxCell>
                <mxCell id="Fuc5miLtpaoBp8aGmht8-44" value="ch-f" style="ellipse;whiteSpace=wrap;html=1;aspect=fixed;" vertex="1" parent="1">
                    <mxGeometry x="840" y="922" width="40" height="40" as="geometry"/>
                </mxCell>
                <mxCell id="Fuc5miLtpaoBp8aGmht8-45" style="edgeStyle=orthogonalEdgeStyle;html=1;rounded=1;curved=1;entryX=1;entryY=0;entryDx=0;entryDy=0;" edge="1" source="Fuc5miLtpaoBp8aGmht8-44" target="Fuc5miLtpaoBp8aGmht8-44" parent="1">
                    <mxGeometry relative="1" as="geometry">
                        <Array as="points">
                            <mxPoint x="900" y="956"/>
                            <mxPoint x="900" y="928"/>
                        </Array>
                        <mxPoint x="870" y="962" as="sourcePoint"/>
                        <mxPoint x="870" y="934" as="targetPoint"/>
                    </mxGeometry>
                </mxCell>
                <mxCell id="Fuc5miLtpaoBp8aGmht8-104" style="edgeStyle=none;html=1;" edge="1" parent="1" source="Fuc5miLtpaoBp8aGmht8-130" target="Fuc5miLtpaoBp8aGmht8-16">
                    <mxGeometry relative="1" as="geometry"/>
                </mxCell>
                <mxCell id="Fuc5miLtpaoBp8aGmht8-107" style="edgeStyle=orthogonalEdgeStyle;html=1;elbow=vertical;" edge="1" parent="1" source="Fuc5miLtpaoBp8aGmht8-108" target="Fuc5miLtpaoBp8aGmht8-18">
                    <mxGeometry relative="1" as="geometry">
                        <Array as="points">
                            <mxPoint x="230" y="1020"/>
                            <mxPoint x="230" y="1230"/>
                            <mxPoint x="700" y="1230"/>
                        </Array>
                    </mxGeometry>
                </mxCell>
                <mxCell id="Fuc5miLtpaoBp8aGmht8-108" value="op-pr" style="ellipse;whiteSpace=wrap;html=1;aspect=fixed;" vertex="1" parent="1">
                    <mxGeometry x="130" y="1000" width="40" height="40" as="geometry"/>
                </mxCell>
                <mxCell id="Fuc5miLtpaoBp8aGmht8-109" style="edgeStyle=none;html=1;" edge="1" parent="1" source="Fuc5miLtpaoBp8aGmht8-111" target="Fuc5miLtpaoBp8aGmht8-125">
                    <mxGeometry relative="1" as="geometry"/>
                </mxCell>
                <mxCell id="Fuc5miLtpaoBp8aGmht8-110" style="edgeStyle=orthogonalEdgeStyle;html=1;elbow=vertical;" edge="1" parent="1" source="Fuc5miLtpaoBp8aGmht8-111" target="Fuc5miLtpaoBp8aGmht8-18">
                    <mxGeometry relative="1" as="geometry">
                        <Array as="points">
                            <mxPoint x="230" y="1100"/>
                            <mxPoint x="230" y="1230"/>
                            <mxPoint x="700" y="1230"/>
                        </Array>
                    </mxGeometry>
                </mxCell>
                <mxCell id="Fuc5miLtpaoBp8aGmht8-111" value="ad-l" style="ellipse;whiteSpace=wrap;html=1;aspect=fixed;" vertex="1" parent="1">
                    <mxGeometry x="130" y="1080" width="40" height="40" as="geometry"/>
                </mxCell>
                <mxCell id="Fuc5miLtpaoBp8aGmht8-112" style="edgeStyle=none;html=1;" edge="1" parent="1" source="Fuc5miLtpaoBp8aGmht8-108" target="Fuc5miLtpaoBp8aGmht8-111">
                    <mxGeometry relative="1" as="geometry"/>
                </mxCell>
                <mxCell id="Fuc5miLtpaoBp8aGmht8-119" style="edgeStyle=elbowEdgeStyle;html=1;" edge="1" parent="1" source="Fuc5miLtpaoBp8aGmht8-121" target="Fuc5miLtpaoBp8aGmht8-16">
                    <mxGeometry relative="1" as="geometry">
                        <Array as="points">
                            <mxPoint x="70" y="940"/>
                        </Array>
                        <mxPoint x="130" y="940" as="targetPoint"/>
                    </mxGeometry>
                </mxCell>
                <mxCell id="Fuc5miLtpaoBp8aGmht8-140" style="edgeStyle=elbowEdgeStyle;html=1;elbow=vertical;" edge="1" parent="1" source="Fuc5miLtpaoBp8aGmht8-121" target="Fuc5miLtpaoBp8aGmht8-20">
                    <mxGeometry relative="1" as="geometry">
                        <Array as="points">
                            <mxPoint x="340" y="1320"/>
                        </Array>
                    </mxGeometry>
                </mxCell>
                <mxCell id="Fuc5miLtpaoBp8aGmht8-121" value="ro-pr" style="ellipse;whiteSpace=wrap;html=1;aspect=fixed;" vertex="1" parent="1">
                    <mxGeometry x="50" y="1360" width="40" height="40" as="geometry"/>
                </mxCell>
                <mxCell id="Fuc5miLtpaoBp8aGmht8-122" style="edgeStyle=none;html=1;" edge="1" parent="1" source="Fuc5miLtpaoBp8aGmht8-123" target="Fuc5miLtpaoBp8aGmht8-127">
                    <mxGeometry relative="1" as="geometry"/>
                </mxCell>
                <mxCell id="Fuc5miLtpaoBp8aGmht8-123" value="re-l" style="ellipse;whiteSpace=wrap;html=1;aspect=fixed;" vertex="1" parent="1">
                    <mxGeometry x="210" y="1440" width="40" height="40" as="geometry"/>
                </mxCell>
                <mxCell id="Fuc5miLtpaoBp8aGmht8-124" style="edgeStyle=orthogonalEdgeStyle;html=1;curved=1;" edge="1" parent="1" source="Fuc5miLtpaoBp8aGmht8-125" target="Fuc5miLtpaoBp8aGmht8-20">
                    <mxGeometry relative="1" as="geometry">
                        <mxPoint x="150" y="1360" as="targetPoint"/>
                        <Array as="points">
                            <mxPoint x="150" y="1270"/>
                            <mxPoint x="620" y="1270"/>
                        </Array>
                    </mxGeometry>
                </mxCell>
                <mxCell id="Fuc5miLtpaoBp8aGmht8-125" value="co-pr" style="ellipse;whiteSpace=wrap;html=1;aspect=fixed;" vertex="1" parent="1">
                    <mxGeometry x="130" y="1160" width="40" height="40" as="geometry"/>
                </mxCell>
                <mxCell id="Fuc5miLtpaoBp8aGmht8-126" value="" style="group" vertex="1" connectable="0" parent="1">
                    <mxGeometry x="130" y="1520" width="40" height="40" as="geometry"/>
                </mxCell>
                <mxCell id="Fuc5miLtpaoBp8aGmht8-127" value="" style="ellipse;whiteSpace=wrap;html=1;aspect=fixed;fillColor=#fad9d5;strokeColor=#ae4132;" vertex="1" parent="Fuc5miLtpaoBp8aGmht8-126">
                    <mxGeometry width="40" height="40" as="geometry"/>
                </mxCell>
                <mxCell id="Fuc5miLtpaoBp8aGmht8-128" value="" style="whiteSpace=wrap;html=1;aspect=fixed;strokeColor=none;" vertex="1" parent="Fuc5miLtpaoBp8aGmht8-126">
                    <mxGeometry x="12" y="12" width="16" height="16" as="geometry"/>
                </mxCell>
                <mxCell id="Fuc5miLtpaoBp8aGmht8-129" value="" style="group" vertex="1" connectable="0" parent="1">
                    <mxGeometry x="130" y="840" width="40" height="40" as="geometry"/>
                </mxCell>
                <mxCell id="Fuc5miLtpaoBp8aGmht8-130" value="" style="ellipse;whiteSpace=wrap;html=1;aspect=fixed;fillColor=#fad9d5;strokeColor=#ae4132;" vertex="1" parent="Fuc5miLtpaoBp8aGmht8-129">
                    <mxGeometry width="40" height="40" as="geometry"/>
                </mxCell>
                <mxCell id="Fuc5miLtpaoBp8aGmht8-131" value="" style="triangle;whiteSpace=wrap;html=1;strokeColor=none;" vertex="1" parent="Fuc5miLtpaoBp8aGmht8-129">
                    <mxGeometry x="14" y="10" width="16" height="20" as="geometry"/>
                </mxCell>
                <mxCell id="Fuc5miLtpaoBp8aGmht8-136" style="edgeStyle=none;html=1;" edge="1" parent="1" source="Fuc5miLtpaoBp8aGmht8-44" target="Fuc5miLtpaoBp8aGmht8-16">
                    <mxGeometry relative="1" as="geometry">
                        <mxPoint x="680" y="970" as="targetPoint"/>
                    </mxGeometry>
                </mxCell>
            </root>
        </mxGraphModel>
    </diagram>
    <diagram id="MQlubie60wBIQaROKki1" name="Sequence-Diagram">
        <mxGraphModel dx="998" dy="1771" grid="1" gridSize="10" guides="1" tooltips="1" connect="1" arrows="1" fold="1" page="1" pageScale="1" pageWidth="1169" pageHeight="827" math="0" shadow="0">
            <root>
                <mxCell id="0"/>
                <mxCell id="1" parent="0"/>
                <mxCell id="ABt2acHJ1TTvE4cJWGHj-38" value="Review activity" style="shape=note;whiteSpace=wrap;html=1;backgroundOutline=1;darkOpacity=0.05;size=5;fillColor=#fff2cc;strokeColor=#d6b656;fontSize=4;align=left;verticalAlign=top;spacingLeft=4;" parent="1" vertex="1">
                    <mxGeometry x="490" y="-620" width="220" height="130" as="geometry"/>
                </mxCell>
                <mxCell id="ABt2acHJ1TTvE4cJWGHj-1" value="" style="endArrow=none;dashed=1;html=1;dashPattern=1 3;strokeWidth=2;rounded=0;fontSize=12;startSize=8;endSize=8;curved=1;" parent="1" source="ABt2acHJ1TTvE4cJWGHj-7" edge="1">
                    <mxGeometry width="50" height="50" relative="1" as="geometry">
                        <mxPoint x="240" y="-440" as="sourcePoint"/>
                        <mxPoint x="240" y="-760" as="targetPoint"/>
                    </mxGeometry>
                </mxCell>
                <mxCell id="ABt2acHJ1TTvE4cJWGHj-2" value="Commit" style="rounded=0;whiteSpace=wrap;html=1;" parent="1" vertex="1">
                    <mxGeometry x="80" y="-800" width="80" height="40" as="geometry"/>
                </mxCell>
                <mxCell id="ABt2acHJ1TTvE4cJWGHj-3" value="Pull Request" style="rounded=0;whiteSpace=wrap;html=1;" parent="1" vertex="1">
                    <mxGeometry x="320" y="-800" width="80" height="40" as="geometry"/>
                </mxCell>
                <mxCell id="ABt2acHJ1TTvE4cJWGHj-4" value="Review" style="rounded=0;whiteSpace=wrap;html=1;" parent="1" vertex="1">
                    <mxGeometry x="560" y="-800" width="80" height="40" as="geometry"/>
                </mxCell>
                <mxCell id="ABt2acHJ1TTvE4cJWGHj-5" value="" style="endArrow=none;dashed=1;html=1;dashPattern=1 3;strokeWidth=2;rounded=0;fontSize=12;startSize=8;endSize=8;curved=1;" parent="1" edge="1">
                    <mxGeometry width="50" height="50" relative="1" as="geometry">
                        <mxPoint x="480" y="-440" as="sourcePoint"/>
                        <mxPoint x="480" y="-760" as="targetPoint"/>
                    </mxGeometry>
                </mxCell>
                <mxCell id="ABt2acHJ1TTvE4cJWGHj-28" style="edgeStyle=orthogonalEdgeStyle;curved=1;rounded=0;orthogonalLoop=1;jettySize=auto;html=1;entryX=0.5;entryY=0;entryDx=0;entryDy=0;fontSize=12;startSize=8;endSize=8;" parent="1" source="ABt2acHJ1TTvE4cJWGHj-6" target="ABt2acHJ1TTvE4cJWGHj-7" edge="1">
                    <mxGeometry relative="1" as="geometry"/>
                </mxCell>
                <mxCell id="ABt2acHJ1TTvE4cJWGHj-36" style="edgeStyle=none;curved=1;rounded=0;orthogonalLoop=1;jettySize=auto;html=1;entryX=0.5;entryY=0;entryDx=0;entryDy=0;fontSize=12;startSize=8;endSize=8;" parent="1" source="ABt2acHJ1TTvE4cJWGHj-6" target="ABt2acHJ1TTvE4cJWGHj-14" edge="1">
                    <mxGeometry relative="1" as="geometry"/>
                </mxCell>
                <mxCell id="ABt2acHJ1TTvE4cJWGHj-6" value="Open-PR" style="ellipse;whiteSpace=wrap;html=1;fontSize=6;align=center;" parent="1" vertex="1">
                    <mxGeometry x="320" y="-740" width="80" height="20" as="geometry"/>
                </mxCell>
                <mxCell id="ABt2acHJ1TTvE4cJWGHj-8" value="Revert-C" style="ellipse;whiteSpace=wrap;html=1;fontSize=6;align=center;" parent="1" vertex="1">
                    <mxGeometry x="40" y="-560" width="80" height="20" as="geometry"/>
                </mxCell>
                <mxCell id="ABt2acHJ1TTvE4cJWGHj-32" style="edgeStyle=none;curved=1;rounded=0;orthogonalLoop=1;jettySize=auto;html=1;fontSize=12;startSize=8;endSize=8;" parent="1" source="ABt2acHJ1TTvE4cJWGHj-10" target="ABt2acHJ1TTvE4cJWGHj-11" edge="1">
                    <mxGeometry relative="1" as="geometry"/>
                </mxCell>
                <mxCell id="ABt2acHJ1TTvE4cJWGHj-10" value="Assign-PR" style="ellipse;whiteSpace=wrap;html=1;fontSize=6;align=center;" parent="1" vertex="1">
                    <mxGeometry x="260" y="-690" width="80" height="20" as="geometry"/>
                </mxCell>
                <mxCell id="ABt2acHJ1TTvE4cJWGHj-11" value="Un-Assign-PR" style="ellipse;whiteSpace=wrap;html=1;fontSize=6;align=center;" parent="1" vertex="1">
                    <mxGeometry x="260" y="-650" width="80" height="20" as="geometry"/>
                </mxCell>
                <mxCell id="ABt2acHJ1TTvE4cJWGHj-33" style="edgeStyle=none;curved=1;rounded=0;orthogonalLoop=1;jettySize=auto;html=1;entryX=0.5;entryY=0;entryDx=0;entryDy=0;fontSize=12;startSize=8;endSize=8;" parent="1" source="ABt2acHJ1TTvE4cJWGHj-12" target="ABt2acHJ1TTvE4cJWGHj-13" edge="1">
                    <mxGeometry relative="1" as="geometry"/>
                </mxCell>
                <mxCell id="ABt2acHJ1TTvE4cJWGHj-12" value="Label-PR" style="ellipse;whiteSpace=wrap;html=1;fontSize=6;align=center;" parent="1" vertex="1">
                    <mxGeometry x="370" y="-690" width="80" height="20" as="geometry"/>
                </mxCell>
                <mxCell id="ABt2acHJ1TTvE4cJWGHj-49" style="edgeStyle=none;curved=1;rounded=0;orthogonalLoop=1;jettySize=auto;html=1;entryX=1;entryY=0.5;entryDx=0;entryDy=0;fontSize=12;startSize=8;endSize=8;" parent="1" source="ABt2acHJ1TTvE4cJWGHj-13" target="ABt2acHJ1TTvE4cJWGHj-7" edge="1">
                    <mxGeometry relative="1" as="geometry"/>
                </mxCell>
                <mxCell id="ABt2acHJ1TTvE4cJWGHj-13" value="Un-Label-PR" style="ellipse;whiteSpace=wrap;html=1;fontSize=6;align=center;" parent="1" vertex="1">
                    <mxGeometry x="370" y="-650" width="80" height="20" as="geometry"/>
                </mxCell>
                <mxCell id="ABt2acHJ1TTvE4cJWGHj-14" value="Comment-PR" style="ellipse;whiteSpace=wrap;html=1;fontSize=6;align=center;" parent="1" vertex="1">
                    <mxGeometry x="320" y="-600" width="80" height="20" as="geometry"/>
                </mxCell>
                <mxCell id="ABt2acHJ1TTvE4cJWGHj-15" value="" style="endArrow=none;dashed=1;html=1;dashPattern=1 3;strokeWidth=2;rounded=0;fontSize=12;startSize=8;endSize=8;curved=1;" parent="1" target="ABt2acHJ1TTvE4cJWGHj-7" edge="1">
                    <mxGeometry width="50" height="50" relative="1" as="geometry">
                        <mxPoint x="240" y="-440" as="sourcePoint"/>
                        <mxPoint x="240" y="-760" as="targetPoint"/>
                    </mxGeometry>
                </mxCell>
                <mxCell id="ABt2acHJ1TTvE4cJWGHj-29" style="edgeStyle=orthogonalEdgeStyle;curved=1;rounded=0;orthogonalLoop=1;jettySize=auto;html=1;entryX=0.5;entryY=0;entryDx=0;entryDy=0;fontSize=12;startSize=8;endSize=8;" parent="1" source="ABt2acHJ1TTvE4cJWGHj-7" target="ABt2acHJ1TTvE4cJWGHj-24" edge="1">
                    <mxGeometry relative="1" as="geometry">
                        <Array as="points">
                            <mxPoint x="450" y="-610"/>
                            <mxPoint x="450" y="-540"/>
                            <mxPoint x="660" y="-540"/>
                        </Array>
                    </mxGeometry>
                </mxCell>
                <mxCell id="ABt2acHJ1TTvE4cJWGHj-47" style="edgeStyle=none;curved=1;rounded=0;orthogonalLoop=1;jettySize=auto;html=1;entryX=0.5;entryY=0;entryDx=0;entryDy=0;fontSize=12;startSize=8;endSize=8;" parent="1" source="ABt2acHJ1TTvE4cJWGHj-7" target="ABt2acHJ1TTvE4cJWGHj-9" edge="1">
                    <mxGeometry relative="1" as="geometry"/>
                </mxCell>
                <mxCell id="ABt2acHJ1TTvE4cJWGHj-7" value="Create-C" style="ellipse;whiteSpace=wrap;html=1;fontSize=6;align=center;" parent="1" vertex="1">
                    <mxGeometry x="200" y="-620" width="80" height="20" as="geometry"/>
                </mxCell>
                <mxCell id="ABt2acHJ1TTvE4cJWGHj-9" value="Merge-C" style="ellipse;whiteSpace=wrap;html=1;fontSize=6;align=center;" parent="1" vertex="1">
                    <mxGeometry x="200" y="-480" width="80" height="20" as="geometry"/>
                </mxCell>
                <mxCell id="ABt2acHJ1TTvE4cJWGHj-42" style="edgeStyle=none;curved=1;rounded=0;orthogonalLoop=1;jettySize=auto;html=1;fontSize=12;startSize=8;endSize=8;" parent="1" source="ABt2acHJ1TTvE4cJWGHj-16" target="ABt2acHJ1TTvE4cJWGHj-17" edge="1">
                    <mxGeometry relative="1" as="geometry"/>
                </mxCell>
                <mxCell id="ABt2acHJ1TTvE4cJWGHj-16" value="Close-PR" style="ellipse;whiteSpace=wrap;html=1;fontSize=6;align=center;" parent="1" vertex="1">
                    <mxGeometry x="320" y="-460" width="80" height="20" as="geometry"/>
                </mxCell>
                <mxCell id="ABt2acHJ1TTvE4cJWGHj-17" value="Re-Open-PR" style="ellipse;whiteSpace=wrap;html=1;fontSize=6;align=center;" parent="1" vertex="1">
                    <mxGeometry x="320" y="-424" width="80" height="20" as="geometry"/>
                </mxCell>
                <mxCell id="ABt2acHJ1TTvE4cJWGHj-39" style="edgeStyle=none;curved=1;rounded=0;orthogonalLoop=1;jettySize=auto;html=1;entryX=0.5;entryY=0;entryDx=0;entryDy=0;fontSize=12;startSize=8;endSize=8;" parent="1" source="ABt2acHJ1TTvE4cJWGHj-18" target="ABt2acHJ1TTvE4cJWGHj-19" edge="1">
                    <mxGeometry relative="1" as="geometry"/>
                </mxCell>
                <mxCell id="ABt2acHJ1TTvE4cJWGHj-18" value="Request-R" style="ellipse;whiteSpace=wrap;html=1;fontSize=6;align=center;" parent="1" vertex="1">
                    <mxGeometry x="560" y="-740" width="80" height="20" as="geometry"/>
                </mxCell>
                <mxCell id="ABt2acHJ1TTvE4cJWGHj-19" value="Remove-Request-R" style="ellipse;whiteSpace=wrap;html=1;fontSize=6;align=center;" parent="1" vertex="1">
                    <mxGeometry x="520" y="-700" width="80" height="20" as="geometry"/>
                </mxCell>
                <mxCell id="ABt2acHJ1TTvE4cJWGHj-22" value="Request-Changes" style="ellipse;whiteSpace=wrap;html=1;fontSize=6;align=center;" parent="1" vertex="1">
                    <mxGeometry x="560" y="-610" width="80" height="20" as="geometry"/>
                </mxCell>
                <mxCell id="ABt2acHJ1TTvE4cJWGHj-23" value="Comment-R" style="ellipse;whiteSpace=wrap;html=1;fontSize=6;align=center;" parent="1" vertex="1">
                    <mxGeometry x="560" y="-580" width="80" height="20" as="geometry"/>
                </mxCell>
                <mxCell id="ABt2acHJ1TTvE4cJWGHj-30" style="edgeStyle=orthogonalEdgeStyle;curved=1;rounded=0;orthogonalLoop=1;jettySize=auto;html=1;entryX=0.5;entryY=0;entryDx=0;entryDy=0;fontSize=12;startSize=8;endSize=8;exitX=0.5;exitY=1;exitDx=0;exitDy=0;" parent="1" source="ABt2acHJ1TTvE4cJWGHj-24" target="ABt2acHJ1TTvE4cJWGHj-9" edge="1">
                    <mxGeometry relative="1" as="geometry">
                        <Array as="points">
                            <mxPoint x="660" y="-480"/>
                            <mxPoint x="310" y="-480"/>
                            <mxPoint x="310" y="-510"/>
                            <mxPoint x="240" y="-510"/>
                        </Array>
                    </mxGeometry>
                </mxCell>
                <mxCell id="ABt2acHJ1TTvE4cJWGHj-24" value="Approve-R" style="ellipse;whiteSpace=wrap;html=1;fontSize=6;align=center;" parent="1" vertex="1">
                    <mxGeometry x="620" y="-520" width="80" height="20" as="geometry"/>
                </mxCell>
                <mxCell id="ABt2acHJ1TTvE4cJWGHj-25" value="Dismiss-R" style="ellipse;whiteSpace=wrap;html=1;fontSize=6;align=center;" parent="1" vertex="1">
                    <mxGeometry x="505" y="-520" width="80" height="20" as="geometry"/>
                </mxCell>
                <mxCell id="ABt2acHJ1TTvE4cJWGHj-26" value="&lt;div&gt;&lt;font&gt;Create PR Object with state open&lt;/font&gt;&lt;/div&gt;" style="shape=note;whiteSpace=wrap;html=1;backgroundOutline=1;darkOpacity=0.05;size=5;fillColor=#fff2cc;strokeColor=#d6b656;fontSize=4;" parent="1" vertex="1">
                    <mxGeometry x="410" y="-750" width="60" height="20" as="geometry"/>
                </mxCell>
                <mxCell id="ABt2acHJ1TTvE4cJWGHj-27" style="edgeStyle=none;curved=1;rounded=0;orthogonalLoop=1;jettySize=auto;html=1;entryX=0.004;entryY=0.486;entryDx=0;entryDy=0;entryPerimeter=0;fontSize=12;endArrow=none;startFill=0;dashed=1;" parent="1" source="ABt2acHJ1TTvE4cJWGHj-6" target="ABt2acHJ1TTvE4cJWGHj-26" edge="1">
                    <mxGeometry relative="1" as="geometry"/>
                </mxCell>
                <mxCell id="ABt2acHJ1TTvE4cJWGHj-31" style="edgeStyle=orthogonalEdgeStyle;curved=1;rounded=0;orthogonalLoop=1;jettySize=auto;html=1;entryX=0.5;entryY=0;entryDx=0;entryDy=0;fontSize=12;startSize=8;endSize=8;" parent="1" source="ABt2acHJ1TTvE4cJWGHj-9" target="ABt2acHJ1TTvE4cJWGHj-16" edge="1">
                    <mxGeometry relative="1" as="geometry"/>
                </mxCell>
                <mxCell id="ABt2acHJ1TTvE4cJWGHj-34" style="edgeStyle=none;curved=1;rounded=0;orthogonalLoop=1;jettySize=auto;html=1;entryX=0.554;entryY=0.05;entryDx=0;entryDy=0;entryPerimeter=0;fontSize=12;startSize=8;endSize=8;" parent="1" source="ABt2acHJ1TTvE4cJWGHj-6" target="ABt2acHJ1TTvE4cJWGHj-10" edge="1">
                    <mxGeometry relative="1" as="geometry"/>
                </mxCell>
                <mxCell id="ABt2acHJ1TTvE4cJWGHj-35" style="edgeStyle=none;curved=1;rounded=0;orthogonalLoop=1;jettySize=auto;html=1;entryX=0.404;entryY=0.017;entryDx=0;entryDy=0;entryPerimeter=0;fontSize=12;startSize=8;endSize=8;" parent="1" source="ABt2acHJ1TTvE4cJWGHj-6" target="ABt2acHJ1TTvE4cJWGHj-12" edge="1">
                    <mxGeometry relative="1" as="geometry"/>
                </mxCell>
                <mxCell id="ABt2acHJ1TTvE4cJWGHj-40" style="edgeStyle=none;curved=1;rounded=0;orthogonalLoop=1;jettySize=auto;html=1;entryX=0.624;entryY=0.003;entryDx=0;entryDy=0;entryPerimeter=0;fontSize=12;startSize=8;endSize=8;" parent="1" source="ABt2acHJ1TTvE4cJWGHj-18" target="ABt2acHJ1TTvE4cJWGHj-38" edge="1">
                    <mxGeometry relative="1" as="geometry"/>
                </mxCell>
                <mxCell id="ABt2acHJ1TTvE4cJWGHj-41" style="edgeStyle=none;curved=1;rounded=0;orthogonalLoop=1;jettySize=auto;html=1;entryX=0.929;entryY=0.283;entryDx=0;entryDy=0;entryPerimeter=0;fontSize=12;startSize=8;endSize=8;" parent="1" source="ABt2acHJ1TTvE4cJWGHj-25" target="ABt2acHJ1TTvE4cJWGHj-16" edge="1">
                    <mxGeometry relative="1" as="geometry"/>
                </mxCell>
                <mxCell id="ABt2acHJ1TTvE4cJWGHj-43" style="edgeStyle=none;curved=1;rounded=0;orthogonalLoop=1;jettySize=auto;html=1;entryX=0.892;entryY=0.005;entryDx=0;entryDy=0;entryPerimeter=0;fontSize=12;startSize=8;endSize=8;" parent="1" source="ABt2acHJ1TTvE4cJWGHj-23" target="ABt2acHJ1TTvE4cJWGHj-38" edge="1">
                    <mxGeometry relative="1" as="geometry"/>
                </mxCell>
                <mxCell id="ABt2acHJ1TTvE4cJWGHj-44" style="edgeStyle=none;curved=1;rounded=0;orthogonalLoop=1;jettySize=auto;html=1;entryX=0.814;entryY=0.008;entryDx=0;entryDy=0;entryPerimeter=0;fontSize=12;startSize=8;endSize=8;" parent="1" source="ABt2acHJ1TTvE4cJWGHj-22" target="ABt2acHJ1TTvE4cJWGHj-38" edge="1">
                    <mxGeometry relative="1" as="geometry"/>
                </mxCell>
                <mxCell id="ABt2acHJ1TTvE4cJWGHj-45" style="edgeStyle=none;curved=1;rounded=0;orthogonalLoop=1;jettySize=auto;html=1;entryX=0.529;entryY=0.017;entryDx=0;entryDy=0;entryPerimeter=0;fontSize=12;startSize=8;endSize=8;" parent="1" source="ABt2acHJ1TTvE4cJWGHj-7" target="ABt2acHJ1TTvE4cJWGHj-8" edge="1">
                    <mxGeometry relative="1" as="geometry"/>
                </mxCell>
                <mxCell id="ABt2acHJ1TTvE4cJWGHj-46" style="edgeStyle=none;curved=1;rounded=0;orthogonalLoop=1;jettySize=auto;html=1;entryX=0.5;entryY=1;entryDx=0;entryDy=0;fontSize=12;startSize=8;endSize=8;" parent="1" source="ABt2acHJ1TTvE4cJWGHj-8" target="ABt2acHJ1TTvE4cJWGHj-7" edge="1">
                    <mxGeometry relative="1" as="geometry"/>
                </mxCell>
                <mxCell id="ABt2acHJ1TTvE4cJWGHj-48" style="edgeStyle=none;curved=1;rounded=0;orthogonalLoop=1;jettySize=auto;html=1;entryX=0.883;entryY=0.233;entryDx=0;entryDy=0;entryPerimeter=0;fontSize=12;startSize=8;endSize=8;" parent="1" source="ABt2acHJ1TTvE4cJWGHj-11" target="ABt2acHJ1TTvE4cJWGHj-7" edge="1">
                    <mxGeometry relative="1" as="geometry"/>
                </mxCell>
                <mxCell id="ABt2acHJ1TTvE4cJWGHj-50" style="edgeStyle=none;curved=1;rounded=0;orthogonalLoop=1;jettySize=auto;html=1;entryX=0.821;entryY=0.167;entryDx=0;entryDy=0;entryPerimeter=0;fontSize=12;startSize=8;endSize=8;" parent="1" source="ABt2acHJ1TTvE4cJWGHj-13" target="ABt2acHJ1TTvE4cJWGHj-14" edge="1">
                    <mxGeometry relative="1" as="geometry"/>
                </mxCell>
                <mxCell id="ABt2acHJ1TTvE4cJWGHj-51" style="edgeStyle=none;curved=1;rounded=0;orthogonalLoop=1;jettySize=auto;html=1;entryX=0.113;entryY=0.267;entryDx=0;entryDy=0;entryPerimeter=0;fontSize=12;startSize=8;endSize=8;" parent="1" source="ABt2acHJ1TTvE4cJWGHj-11" target="ABt2acHJ1TTvE4cJWGHj-14" edge="1">
                    <mxGeometry relative="1" as="geometry"/>
                </mxCell>
                <mxCell id="ABt2acHJ1TTvE4cJWGHj-52" style="edgeStyle=orthogonalEdgeStyle;curved=1;rounded=0;orthogonalLoop=1;jettySize=auto;html=1;entryX=0.025;entryY=0.683;entryDx=0;entryDy=0;entryPerimeter=0;fontSize=12;startSize=8;endSize=8;" parent="1" target="ABt2acHJ1TTvE4cJWGHj-18" edge="1">
                    <mxGeometry relative="1" as="geometry">
                        <mxPoint x="240" y="-600" as="sourcePoint"/>
                        <Array as="points">
                            <mxPoint x="240" y="-570"/>
                            <mxPoint x="470" y="-570"/>
                            <mxPoint x="470" y="-726"/>
                        </Array>
                    </mxGeometry>
                </mxCell>
                <mxCell id="JkBWv1rKW-V9Nhk1DFJg-19" style="edgeStyle=none;curved=1;rounded=0;orthogonalLoop=1;jettySize=auto;html=1;entryX=0.5;entryY=0;entryDx=0;entryDy=0;fontSize=12;startSize=8;endSize=8;" parent="1" source="JkBWv1rKW-V9Nhk1DFJg-1" target="JkBWv1rKW-V9Nhk1DFJg-3" edge="1">
                    <mxGeometry relative="1" as="geometry"/>
                </mxCell>
                <mxCell id="JkBWv1rKW-V9Nhk1DFJg-1" value="Open-PR" style="ellipse;whiteSpace=wrap;html=1;fontSize=6;align=center;" parent="1" vertex="1">
                    <mxGeometry x="320" y="-320" width="80" height="20" as="geometry"/>
                </mxCell>
                <mxCell id="JkBWv1rKW-V9Nhk1DFJg-18" style="edgeStyle=none;curved=1;rounded=0;orthogonalLoop=1;jettySize=auto;html=1;fontSize=12;startSize=8;endSize=8;" parent="1" source="JkBWv1rKW-V9Nhk1DFJg-2" target="JkBWv1rKW-V9Nhk1DFJg-1" edge="1">
                    <mxGeometry relative="1" as="geometry"/>
                </mxCell>
                <mxCell id="JkBWv1rKW-V9Nhk1DFJg-28" style="edgeStyle=orthogonalEdgeStyle;curved=1;rounded=0;orthogonalLoop=1;jettySize=auto;html=1;entryX=0;entryY=0;entryDx=0;entryDy=0;fontSize=12;startSize=8;endSize=8;exitX=0.396;exitY=0.032;exitDx=0;exitDy=0;exitPerimeter=0;" parent="1" source="5QNVrdInxyZJsG-7k3hO-1" target="JkBWv1rKW-V9Nhk1DFJg-4" edge="1">
                    <mxGeometry relative="1" as="geometry">
                        <Array as="points">
                            <mxPoint x="352" y="-390"/>
                            <mxPoint x="280" y="-390"/>
                            <mxPoint x="280" y="-257"/>
                        </Array>
                        <mxPoint x="350" y="-380" as="sourcePoint"/>
                    </mxGeometry>
                </mxCell>
                <mxCell id="JkBWv1rKW-V9Nhk1DFJg-29" style="edgeStyle=none;curved=1;rounded=0;orthogonalLoop=1;jettySize=auto;html=1;fontSize=12;startSize=8;endSize=8;strokeColor=light-dark(#919191, #ededed);" parent="1" source="JkBWv1rKW-V9Nhk1DFJg-2" edge="1">
                    <mxGeometry relative="1" as="geometry">
                        <mxPoint x="520" y="-370" as="targetPoint"/>
                    </mxGeometry>
                </mxCell>
                <mxCell id="JkBWv1rKW-V9Nhk1DFJg-2" value="Commit" style="ellipse;whiteSpace=wrap;html=1;fontSize=6;align=center;" parent="1" vertex="1">
                    <mxGeometry x="320" y="-350" width="80" height="20" as="geometry"/>
                </mxCell>
                <mxCell id="JkBWv1rKW-V9Nhk1DFJg-5" value="" style="edgeStyle=none;curved=1;rounded=0;orthogonalLoop=1;jettySize=auto;html=1;fontSize=12;startSize=8;endSize=8;" parent="1" source="JkBWv1rKW-V9Nhk1DFJg-3" target="JkBWv1rKW-V9Nhk1DFJg-4" edge="1">
                    <mxGeometry relative="1" as="geometry"/>
                </mxCell>
                <mxCell id="JkBWv1rKW-V9Nhk1DFJg-3" value="Comment-PR" style="ellipse;whiteSpace=wrap;html=1;fontSize=6;align=center;" parent="1" vertex="1">
                    <mxGeometry x="320" y="-290" width="80" height="20" as="geometry"/>
                </mxCell>
                <mxCell id="JkBWv1rKW-V9Nhk1DFJg-8" value="" style="edgeStyle=none;curved=1;rounded=0;orthogonalLoop=1;jettySize=auto;html=1;fontSize=12;startSize=8;endSize=8;" parent="1" source="JkBWv1rKW-V9Nhk1DFJg-4" target="JkBWv1rKW-V9Nhk1DFJg-7" edge="1">
                    <mxGeometry relative="1" as="geometry"/>
                </mxCell>
                <mxCell id="JkBWv1rKW-V9Nhk1DFJg-21" value="" style="edgeStyle=orthogonalEdgeStyle;curved=1;rounded=0;orthogonalLoop=1;jettySize=auto;html=1;fontSize=12;startSize=8;endSize=8;" parent="1" source="JkBWv1rKW-V9Nhk1DFJg-4" target="JkBWv1rKW-V9Nhk1DFJg-20" edge="1">
                    <mxGeometry relative="1" as="geometry"/>
                </mxCell>
                <mxCell id="JkBWv1rKW-V9Nhk1DFJg-4" value="Review-Request" style="ellipse;whiteSpace=wrap;html=1;fontSize=6;align=center;" parent="1" vertex="1">
                    <mxGeometry x="320" y="-260" width="80" height="20" as="geometry"/>
                </mxCell>
                <mxCell id="JkBWv1rKW-V9Nhk1DFJg-10" value="" style="edgeStyle=none;curved=1;rounded=0;orthogonalLoop=1;jettySize=auto;html=1;fontSize=12;startSize=8;endSize=8;" parent="1" source="JkBWv1rKW-V9Nhk1DFJg-7" target="JkBWv1rKW-V9Nhk1DFJg-9" edge="1">
                    <mxGeometry relative="1" as="geometry"/>
                </mxCell>
                <mxCell id="JkBWv1rKW-V9Nhk1DFJg-7" value="Comment-Review" style="ellipse;whiteSpace=wrap;html=1;fontSize=6;align=center;" parent="1" vertex="1">
                    <mxGeometry x="320" y="-230" width="80" height="20" as="geometry"/>
                </mxCell>
                <mxCell id="JkBWv1rKW-V9Nhk1DFJg-11" style="edgeStyle=orthogonalEdgeStyle;curved=1;rounded=0;orthogonalLoop=1;jettySize=auto;html=1;entryX=1;entryY=0.5;entryDx=0;entryDy=0;fontSize=12;startSize=8;endSize=8;exitX=1;exitY=0.5;exitDx=0;exitDy=0;" parent="1" source="JkBWv1rKW-V9Nhk1DFJg-9" target="JkBWv1rKW-V9Nhk1DFJg-4" edge="1">
                    <mxGeometry relative="1" as="geometry"/>
                </mxCell>
                <mxCell id="JkBWv1rKW-V9Nhk1DFJg-13" value="" style="edgeStyle=none;curved=1;rounded=0;orthogonalLoop=1;jettySize=auto;html=1;fontSize=12;startSize=8;endSize=8;" parent="1" source="JkBWv1rKW-V9Nhk1DFJg-9" target="JkBWv1rKW-V9Nhk1DFJg-12" edge="1">
                    <mxGeometry relative="1" as="geometry"/>
                </mxCell>
                <mxCell id="JkBWv1rKW-V9Nhk1DFJg-9" value="Commit" style="ellipse;whiteSpace=wrap;html=1;fontSize=6;align=center;" parent="1" vertex="1">
                    <mxGeometry x="320" y="-200" width="80" height="20" as="geometry"/>
                </mxCell>
                <mxCell id="JkBWv1rKW-V9Nhk1DFJg-15" value="" style="edgeStyle=none;curved=1;rounded=0;orthogonalLoop=1;jettySize=auto;html=1;fontSize=12;startSize=8;endSize=8;" parent="1" source="JkBWv1rKW-V9Nhk1DFJg-12" target="JkBWv1rKW-V9Nhk1DFJg-14" edge="1">
                    <mxGeometry relative="1" as="geometry"/>
                </mxCell>
                <mxCell id="JkBWv1rKW-V9Nhk1DFJg-12" value="Approve-Review" style="ellipse;whiteSpace=wrap;html=1;fontSize=6;align=center;" parent="1" vertex="1">
                    <mxGeometry x="320" y="-170" width="80" height="20" as="geometry"/>
                </mxCell>
                <mxCell id="JkBWv1rKW-V9Nhk1DFJg-17" value="" style="edgeStyle=none;curved=1;rounded=0;orthogonalLoop=1;jettySize=auto;html=1;fontSize=12;startSize=8;endSize=8;" parent="1" source="JkBWv1rKW-V9Nhk1DFJg-14" target="JkBWv1rKW-V9Nhk1DFJg-16" edge="1">
                    <mxGeometry relative="1" as="geometry"/>
                </mxCell>
                <mxCell id="JkBWv1rKW-V9Nhk1DFJg-14" value="Merge-PR" style="ellipse;whiteSpace=wrap;html=1;fontSize=6;align=center;" parent="1" vertex="1">
                    <mxGeometry x="320" y="-140" width="80" height="20" as="geometry"/>
                </mxCell>
                <mxCell id="JkBWv1rKW-V9Nhk1DFJg-24" value="" style="edgeStyle=orthogonalEdgeStyle;curved=1;rounded=0;orthogonalLoop=1;jettySize=auto;html=1;fontSize=12;startSize=8;endSize=8;entryX=0;entryY=0.5;entryDx=0;entryDy=0;" parent="1" source="JkBWv1rKW-V9Nhk1DFJg-16" target="JkBWv1rKW-V9Nhk1DFJg-23" edge="1">
                    <mxGeometry relative="1" as="geometry"/>
                </mxCell>
                <mxCell id="JkBWv1rKW-V9Nhk1DFJg-16" value="Close-PR" style="ellipse;whiteSpace=wrap;html=1;fontSize=6;align=center;" parent="1" vertex="1">
                    <mxGeometry x="320" y="-110" width="80" height="20" as="geometry"/>
                </mxCell>
                <mxCell id="JkBWv1rKW-V9Nhk1DFJg-22" style="edgeStyle=orthogonalEdgeStyle;curved=1;rounded=0;orthogonalLoop=1;jettySize=auto;html=1;entryX=0;entryY=0.5;entryDx=0;entryDy=0;fontSize=12;startSize=8;endSize=8;exitX=0.5;exitY=1;exitDx=0;exitDy=0;" parent="1" source="JkBWv1rKW-V9Nhk1DFJg-20" target="JkBWv1rKW-V9Nhk1DFJg-16" edge="1">
                    <mxGeometry relative="1" as="geometry"/>
                </mxCell>
                <mxCell id="JkBWv1rKW-V9Nhk1DFJg-20" value="Decline-Review" style="ellipse;whiteSpace=wrap;html=1;fontSize=6;align=center;" parent="1" vertex="1">
                    <mxGeometry x="230" y="-170" width="80" height="20" as="geometry"/>
                </mxCell>
                <mxCell id="JkBWv1rKW-V9Nhk1DFJg-26" style="edgeStyle=none;curved=1;rounded=0;orthogonalLoop=1;jettySize=auto;html=1;entryX=1;entryY=0.5;entryDx=0;entryDy=0;fontSize=12;startSize=8;endSize=8;" parent="1" source="JkBWv1rKW-V9Nhk1DFJg-23" target="JkBWv1rKW-V9Nhk1DFJg-3" edge="1">
                    <mxGeometry relative="1" as="geometry"/>
                </mxCell>
                <mxCell id="JkBWv1rKW-V9Nhk1DFJg-23" value="Re-Open-PR" style="ellipse;whiteSpace=wrap;html=1;fontSize=6;align=center;" parent="1" vertex="1">
                    <mxGeometry x="450" y="-320" width="80" height="20" as="geometry"/>
                </mxCell>
                <mxCell id="JkBWv1rKW-V9Nhk1DFJg-27" style="edgeStyle=orthogonalEdgeStyle;curved=1;rounded=0;orthogonalLoop=1;jettySize=auto;html=1;fontSize=12;startSize=8;endSize=8;exitX=-0.012;exitY=0.5;exitDx=0;exitDy=0;exitPerimeter=0;" parent="1" source="JkBWv1rKW-V9Nhk1DFJg-3" target="5QNVrdInxyZJsG-7k3hO-1" edge="1">
                    <mxGeometry relative="1" as="geometry">
                        <mxPoint x="329.99" y="-279.9" as="sourcePoint"/>
                        <mxPoint x="328.23" y="-369.98" as="targetPoint"/>
                        <Array as="points">
                            <mxPoint x="300" y="-280"/>
                            <mxPoint x="300" y="-370"/>
                        </Array>
                    </mxGeometry>
                </mxCell>
                <mxCell id="JkBWv1rKW-V9Nhk1DFJg-30" value="Commit" style="ellipse;whiteSpace=wrap;html=1;fontSize=6;align=center;strokeColor=light-dark(#919191, #ededed);" parent="1" vertex="1">
                    <mxGeometry x="520" y="-380" width="80" height="20" as="geometry"/>
                </mxCell>
                <mxCell id="5QNVrdInxyZJsG-7k3hO-1" value="Change-File" style="ellipse;whiteSpace=wrap;html=1;fontSize=6;align=center;" parent="1" vertex="1">
                    <mxGeometry x="320" y="-380" width="80" height="20" as="geometry"/>
                </mxCell>
                <mxCell id="5QNVrdInxyZJsG-7k3hO-2" style="edgeStyle=none;html=1;" parent="1" source="5QNVrdInxyZJsG-7k3hO-1" target="JkBWv1rKW-V9Nhk1DFJg-2" edge="1">
                    <mxGeometry relative="1" as="geometry"/>
                </mxCell>
            </root>
        </mxGraphModel>
    </diagram>
</mxfile>